font.ufo
<glyph name="exclam" format="2">
	<unicode hex="0021"/>
	<advance width="600"/>
	<outline>
		<contour>
			<point x="252" y="244" type="line"/>
			<point x="324" y="244" type="line"/>
			<point x="406" y="556" type="line"/>
			<point x="429" y="671" type="line"/>
			<point x="318" y="671" type="line"/>
			<point x="298" y="556" type="line"/>
		</contour>
		<contour>
			<point x="244" y="-12" type="curve" smooth="yes"/>
			<point x="299" y="-12"/>
			<point x="340" y="34"/>
			<point x="340" y="87" type="curve" smooth="yes"/>
			<point x="340" y="130"/>
			<point x="312" y="160"/>
			<point x="271" y="160" type="curve" smooth="yes"/>
			<point x="216" y="160"/>
			<point x="176" y="114"/>
			<point x="176" y="60" type="curve" smooth="yes"/>
			<point x="176" y="18"/>
			<point x="204" y="-12"/>
		</contour>
	</outline>
</glyph>
<glyph name="dollar" format="2">
	<unicode hex="0024"/>
	<advance width="600"/>
	<outline>
		<contour>
			<point x="271" y="34" type="curve" smooth="yes"/>
			<point x="389" y="34"/>
			<point x="491" y="86"/>
			<point x="491" y="205" type="curve" smooth="yes"/>
			<point x="491" y="293"/>
			<point x="422" y="331"/>
			<point x="339" y="370" type="curve" smooth="yes"/>
			<point x="270" y="403"/>
			<point x="234" y="427"/>
			<point x="234" y="467" type="curve" smooth="yes"/>
			<point x="234" y="510"/>
			<point x="272" y="531"/>
			<point x="325" y="531" type="curve" smooth="yes"/>
			<point x="383" y="531"/>
			<point x="429" y="504"/>
			<point x="465" y="462" type="curve"/>
			<point x="529" y="520" type="line"/>
			<point x="497" y="564"/>
			<point x="426" y="618"/>
			<point x="334" y="618" type="curve" smooth="yes"/>
			<point x="216" y="618"/>
			<point x="131" y="566"/>
			<point x="131" y="455" type="curve" smooth="yes"/>
			<point x="131" y="370"/>
			<point x="192" y="329"/>
			<point x="274" y="289" type="curve" smooth="yes"/>
			<point x="343" y="256"/>
			<point x="386" y="235"/>
			<point x="386" y="193" type="curve" smooth="yes"/>
			<point x="386" y="146"/>
			<point x="344" y="121"/>
			<point x="278" y="121" type="curve" smooth="yes"/>
			<point x="200" y="121"/>
			<point x="152" y="160"/>
			<point x="116" y="203" type="curve"/>
			<point x="50" y="138" type="line"/>
			<point x="91" y="87"/>
			<point x="165" y="34"/>
		</contour>
		<contour>
			<point x="312" y="582" type="line"/>
			<point x="385" y="582" type="line"/>
			<point x="417" y="747" type="line"/>
			<point x="343" y="747" type="line"/>
		</contour>
		<contour>
			<point x="182" y="-110" type="line"/>
			<point x="256" y="-110" type="line"/>
			<point x="292" y="74" type="line"/>
			<point x="219" y="74" type="line"/>
		</contour>
	</outline>
</glyph>
<glyph name="quotesingle" format="2">
	<unicode hex="0027"/>
	<advance width="600"/>
	<outline>
		<contour>
			<point x="276" y="335" type="line"/>
			<point x="344" y="335" type="line"/>
			<point x="419" y="564" type="line"/>
			<point x="446" y="686" type="line"/>
			<point x="315" y="686" type="line"/>
			<point x="293" y="564" type="line"/>
		</contour>
	</outline>
</glyph>
<glyph name="slash" format="1">
	<unicode hex="002F"/>
	<advance width="600"/>
	<outline>
		<contour>
			<point x="1" y="-160" type="line"/>
			<point x="97" y="-160" type="line"/>
			<point x="600" y="710" type="line"/>
			<point x="503" y="710" type="line"/>
		</contour>
	</outline>
</glyph>
<glyph name="seven" format="2">
	<unicode hex="0037"/>
	<advance width="600"/>
	<outline>
		<contour>
			<point x="141" y="0" type="curve"/>
			<point x="254" y="0" type="line"/>
			<point x="315" y="254"/>
			<point x="366" y="382"/>
			<point x="570" y="569" type="curve"/>
			<point x="583" y="636" type="line"/>
			<point x="124" y="636" type="line"/>
			<point x="107" y="546" type="line"/>
			<point x="463" y="546" type="line"/>
			<point x="448" y="556" type="line"/>
			<point x="281" y="399"/>
			<point x="199" y="249"/>
		</contour>
	</outline>
</glyph>
<glyph name="nine" format="1">
	<unicode hex="0039"/>
	<advance width="600"/>
	<outline>
		<contour>
			<point x="209" y="-12" type="curve" smooth="yes"/>
			<point x="390" y="-12"/>
			<point x="541" y="142"/>
			<point x="541" y="418" type="curve" smooth="yes"/>
			<point x="541" y="557"/>
			<point x="455" y="648"/>
			<point x="326" y="648" type="curve" smooth="yes"/>
			<point x="187" y="648"/>
			<point x="86" y="535"/>
			<point x="86" y="406" type="curve" smooth="yes"/>
			<point x="86" y="288"/>
			<point x="166" y="239"/>
			<point x="259" y="239" type="curve" smooth="yes"/>
			<point x="324" y="239"/>
			<point x="397" y="275"/>
			<point x="439" y="327" type="curve"/>
			<point x="447" y="406" type="line"/>
			<point x="397" y="341"/>
			<point x="342" y="314"/>
			<point x="286" y="314" type="curve" smooth="yes"/>
			<point x="229" y="314"/>
			<point x="185" y="347"/>
			<point x="185" y="417" type="curve" smooth="yes"/>
			<point x="185" y="489"/>
			<point x="235" y="567"/>
			<point x="321" y="567" type="curve" smooth="yes"/>
			<point x="390" y="567"/>
			<point x="441" y="518"/>
			<point x="441" y="425" type="curve" smooth="yes"/>
			<point x="441" y="182"/>
			<point x="328" y="75"/>
			<point x="216" y="75" type="curve" smooth="yes"/>
			<point x="168" y="75"/>
			<point x="132" y="92"/>
			<point x="104" y="132" type="curve"/>
			<point x="35" y="75" type="line"/>
			<point x="67" y="29"/>
			<point x="126" y="-12"/>
		</contour>
	</outline>
</glyph>
<glyph name="less" format="1">
	<unicode hex="003C"/>
	<advance width="600"/>
	<outline>
		<contour>
			<point x="497" y="41" type="line"/>
			<point x="497" y="142" type="line"/>
			<point x="209" y="330" type="line"/>
			<point x="209" y="334" type="line"/>
			<point x="497" y="522" type="line"/>
			<point x="497" y="623" type="line"/>
			<point x="119" y="371" type="line"/>
			<point x="119" y="293" type="line"/>
		</contour>
	</outline>
</glyph>
<glyph name="at" format="2">
	<unicode hex="0040"/>
	<advance width="600"/>
	<outline>
		<contour>
			<point x="276" y="-146" type="curve" smooth="yes"/>
			<point x="344" y="-146"/>
			<point x="401" y="-124"/>
			<point x="447" y="-90" type="curve"/>
			<point x="414" y="-32" type="line"/>
			<point x="376" y="-60"/>
			<point x="338" y="-78"/>
			<point x="289" y="-78" type="curve" smooth="yes"/>
			<point x="181" y="-78"/>
			<point x="99" y="6"/>
			<point x="99" y="161" type="curve" smooth="yes"/>
			<point x="99" y="419"/>
			<point x="247" y="573"/>
			<point x="382" y="573" type="curve" smooth="yes"/>
			<point x="475" y="573"/>
			<point x="504" y="524"/>
			<point x="504" y="454" type="curve" smooth="yes"/>
			<point x="504" y="437"/>
			<point x="502" y="418"/>
			<point x="495" y="390" type="curve"/>
			<point x="294" y="367"/>
			<point x="202" y="308"/>
			<point x="202" y="193" type="curve" smooth="yes"/>
			<point x="202" y="126"/>
			<point x="253" y="88"/>
			<point x="313" y="88" type="curve" smooth="yes"/>
			<point x="370" y="88"/>
			<point x="412" y="116"/>
			<point x="448" y="155" type="curve"/>
			<point x="452" y="155" type="line"/>
			<point x="449" y="100" type="line"/>
			<point x="508" y="100" type="line"/>
			<point x="567" y="394" type="line" smooth="yes"/>
			<point x="572" y="418"/>
			<point x="575" y="441"/>
			<point x="575" y="464" type="curve" smooth="yes"/>
			<point x="575" y="572"/>
			<point x="518" y="639"/>
			<point x="391" y="639" type="curve" smooth="yes"/>
			<point x="196" y="639"/>
			<point x="19" y="456"/>
			<point x="19" y="152" type="curve" smooth="yes"/>
			<point x="19" y="-42"/>
			<point x="129" y="-146"/>
		</contour>
		<contour>
			<point x="344" y="157" type="curve" smooth="yes"/>
			<point x="310" y="157"/>
			<point x="284" y="175"/>
			<point x="284" y="211" type="curve" smooth="yes"/>
			<point x="284" y="271"/>
			<point x="336" y="310"/>
			<point x="477" y="330" type="curve"/>
			<point x="453" y="211" type="line"/>
			<point x="414" y="175"/>
			<point x="378" y="157"/>
		</contour>
	</outline>
</glyph>
<glyph name="A" format="2">
	<unicode hex="0041"/>
	<advance width="600"/>
	<outline>
		<contour>
			<point x="-33" y="0" type="line"/>
			<point x="85" y="0" type="line"/>
			<point x="261" y="366" type="line" smooth="yes"/>
			<point x="294" y="435"/>
			<point x="323" y="501"/>
			<point x="355" y="569" type="curve"/>
			<point x="360" y="569" type="line"/>
			<point x="364" y="500"/>
			<point x="368" y="432"/>
			<point x="374" y="365" type="curve" smooth="yes"/>
			<point x="400" y="0" type="line"/>
			<point x="513" y="0" type="line"/>
			<point x="439" y="654" type="line"/>
			<point x="312" y="654" type="line"/>
		</contour>
		<contour>
			<point x="128" y="184" type="line"/>
			<point x="424" y="184" type="line"/>
			<point x="442" y="266" type="line"/>
			<point x="148" y="266" type="line"/>
		</contour>
	</outline>
	<anchor name="aboveUC" x="372" y="674"/>
	<anchor name="baseLC" x="460" y="0"/>
	<anchor name="belowLC" x="250" y="-20"/>
	<anchor name="ogonekUC" x="441" y="0"/>
</glyph>
<glyph name="B" format="2">
	<unicode hex="0042"/>
	<advance width="600"/>
	<outline>
		<contour>
			<point x="33" y="0" type="line"/>
			<point x="250" y="0" type="line" smooth="yes"/>
			<point x="404" y="0"/>
			<point x="527" y="63"/>
			<point x="527" y="212" type="curve" smooth="yes"/>
			<point x="527" y="282"/>
			<point x="481" y="323"/>
			<point x="411" y="340" type="curve"/>
			<point x="412" y="344" type="line"/>
			<point x="491" y="364"/>
			<point x="556" y="425"/>
			<point x="556" y="507" type="curve" smooth="yes"/>
			<point x="556" y="606"/>
			<point x="475" y="654"/>
			<point x="344" y="654" type="curve" smooth="yes"/>
			<point x="165" y="654" type="line"/>
		</contour>
		<contour>
			<point x="217" y="382" type="line"/>
			<point x="256" y="567" type="line"/>
			<point x="323" y="567" type="line" smooth="yes"/>
			<point x="410" y="567"/>
			<point x="445" y="541"/>
			<point x="445" y="490" type="curve" smooth="yes"/>
			<point x="445" y="425"/>
			<point x="397" y="382"/>
			<point x="290" y="382" type="curve" smooth="yes"/>
		</contour>
		<contour>
			<point x="158" y="87" type="line"/>
			<point x="202" y="301" type="line"/>
			<point x="295" y="301" type="line" smooth="yes"/>
			<point x="379" y="301"/>
			<point x="423" y="267"/>
			<point x="423" y="207" type="curve" smooth="yes"/>
			<point x="423" y="123"/>
			<point x="359" y="87"/>
			<point x="251" y="87" type="curve" smooth="yes"/>
		</contour>
	</outline>
</glyph>
<glyph name="E" format="1">
	<unicode hex="0045"/>
	<advance width="600"/>
	<outline>
		<contour>
			<point x="49" y="0" type="line"/>
			<point x="473" y="0" type="line"/>
			<point x="491" y="91" type="line"/>
			<point x="174" y="91" type="line"/>
			<point x="217" y="296" type="line"/>
			<point x="473" y="296" type="line"/>
			<point x="491" y="387" type="line"/>
			<point x="234" y="387" type="line"/>
			<point x="269" y="563" type="line"/>
			<point x="577" y="563" type="line"/>
			<point x="595" y="654" type="line"/>
			<point x="180" y="654" type="line"/>
		</contour>
		<contour>
			<point name="aboveUC" x="399" y="674" type="move"/>
		</contour>
		<contour>
			<point name="ogonekUC" x="385" y="0" type="move"/>
		</contour>
		<contour>
			<point name="baseLC" x="282" y="0" type="move"/>
		</contour>
		<contour>
			<point name="belowLC" x="272" y="-20" type="move"/>
		</contour>
	</outline>
</glyph>
<glyph name="F" format="1">
	<unicode hex="0046"/>
	<advance width="600"/>
	<outline>
		<contour>
			<point x="67" y="0" type="line"/>
			<point x="175" y="0" type="line"/>
			<point x="231" y="279" type="line"/>
			<point x="483" y="279" type="line"/>
			<point x="501" y="370" type="line"/>
			<point x="248" y="370" type="line"/>
			<point x="286" y="563" type="line"/>
			<point x="590" y="563" type="line"/>
			<point x="608" y="654" type="line"/>
			<point x="198" y="654" type="line"/>
		</contour>
		<contour>
			<point name="aboveUC" x="410" y="674" type="move"/>
		</contour>
		<contour>
			<point name="baseLC" x="124" y="0" type="move"/>
		</contour>
		<contour>
			<point name="belowLC" x="126" y="-20" type="move"/>
		</contour>
	</outline>
</glyph>
<glyph name="H" format="1">
	<unicode hex="0048"/>
	<advance width="600"/>
	<outline>
		<contour>
			<point x="11" y="0" type="line"/>
			<point x="119" y="0" type="line"/>
			<point x="177" y="295" type="line"/>
			<point x="416" y="295" type="line"/>
			<point x="356" y="0" type="line"/>
			<point x="464" y="0" type="line"/>
			<point x="595" y="654" type="line"/>
			<point x="487" y="654" type="line"/>
			<point x="434" y="389" type="line"/>
			<point x="196" y="389" type="line"/>
			<point x="250" y="654" type="line"/>
			<point x="142" y="654" type="line"/>
		</contour>
		<contour>
			<point name="aboveUC" x="372" y="674" type="move"/>
		</contour>
		<contour>
			<point name="baseLC" x="69" y="0" type="move"/>
		</contour>
		<contour>
			<point name="belowLC" x="234" y="-20" type="move"/>
		</contour>
	</outline>
</glyph>
<glyph name="I" format="2">
	<unicode hex="0049"/>
	<advance width="600"/>
	<outline>
		<contour>
			<point x="25" y="0" type="line"/>
			<point x="449" y="0" type="line"/>
			<point x="468" y="91" type="line"/>
			<point x="309" y="91" type="line"/>
			<point x="404" y="563" type="line"/>
			<point x="563" y="563" type="line"/>
			<point x="582" y="654" type="line"/>
			<point x="157" y="654" type="line"/>
			<point x="138" y="563" type="line"/>
			<point x="296" y="563" type="line"/>
			<point x="201" y="91" type="line"/>
			<point x="44" y="91" type="line"/>
		</contour>
	</outline>
	<anchor name="aboveUC" x="372" y="674"/>
	<anchor name="baseLC" x="238" y="0"/>
	<anchor name="belowLC" x="234" y="-20"/>
	<anchor name="ogonekUC" x="238" y="0"/>
</glyph>
<glyph name="K" format="1">
	<unicode hex="004B"/>
	<advance width="600"/>
	<outline>
		<contour>
			<point x="629" y="654" type="line"/>
			<point x="509" y="654" type="line"/>
			<point x="207" y="342" type="line"/>
			<point x="203" y="342" type="line"/>
			<point x="266" y="654" type="line"/>
			<point x="159" y="654" type="line"/>
			<point x="28" y="0" type="line"/>
			<point x="135" y="0" type="line"/>
			<point x="174" y="196" type="line"/>
		</contour>
		<contour>
			<point x="276" y="329" type="line"/>
			<point x="404" y="0" type="line"/>
			<point x="526" y="0" type="line"/>
			<point x="354" y="413" type="line"/>
		</contour>
		<contour>
			<point name="aboveUC" x="384" y="674" type="move"/>
		</contour>
		<contour>
			<point name="belowLC" x="278" y="-20" type="move"/>
		</contour>
	</outline>
</glyph>
<glyph name="L" format="2">
	<unicode hex="004C"/>
	<advance width="600"/>
	<outline>
		<contour>
			<point x="82" y="0" type="line"/>
			<point x="498" y="0" type="line"/>
			<point x="516" y="91" type="line"/>
			<point x="208" y="91" type="line"/>
			<point x="320" y="654" type="line"/>
			<point x="212" y="654" type="line"/>
		</contour>
	</outline>
	<anchor name="aboveUC" x="272" y="674"/>
	<anchor name="baseLC" x="306" y="0"/>
	<anchor name="belowLC" x="296" y="-20"/>
	<anchor name="center" x="202" y="342"/>
</glyph>
<glyph name="M" format="1">
	<unicode hex="004D"/>
	<advance width="600"/>
	<outline>
		<contour>
			<point x="7" y="0" type="line"/>
			<point x="101" y="0" type="line"/>
			<point x="167" y="327" type="line" smooth="yes"/>
			<point x="177" y="373"/>
			<point x="187" y="472"/>
			<point x="194" y="542" type="curve"/>
			<point x="198" y="542" type="line"/>
			<point x="201" y="527"/>
			<point x="209" y="398"/>
			<point x="210" y="385" type="curve" smooth="yes"/>
			<point x="236" y="177" type="line"/>
			<point x="308" y="177" type="line"/>
			<point x="421" y="394" type="line" smooth="yes"/>
			<point x="434" y="417"/>
			<point x="486" y="528"/>
			<point x="492" y="542" type="curve"/>
			<point x="496" y="542" type="line"/>
			<point x="479" y="482"/>
			<point x="446" y="371"/>
			<point x="435" y="313" type="curve" smooth="yes"/>
			<point x="371" y="0" type="line"/>
			<point x="467" y="0" type="line"/>
			<point x="597" y="654" type="line"/>
			<point x="478" y="654" type="line"/>
			<point x="336" y="386" type="line"/>
			<point x="295" y="290" type="line"/>
			<point x="291" y="290" type="line"/>
			<point x="286" y="388" type="line"/>
			<point x="258" y="654" type="line"/>
			<point x="138" y="654" type="line"/>
		</contour>
		<contour>
			<point name="aboveUC" x="372" y="674" type="move"/>
		</contour>
		<contour>
			<point name="baseLC" x="422" y="0" type="move"/>
		</contour>
		<contour>
			<point name="belowLC" x="234" y="-20" type="move"/>
		</contour>
	</outline>
</glyph>
<glyph name="O" format="2">
	<unicode hex="004F"/>
	<advance width="600"/>
	<outline>
		<contour>
			<point x="252" y="-12" type="curve" smooth="yes"/>
			<point x="446" y="-12"/>
			<point x="572" y="187"/>
			<point x="572" y="404" type="curve" smooth="yes"/>
			<point x="572" y="564"/>
			<point x="490" y="666"/>
			<point x="356" y="666" type="curve" smooth="yes"/>
			<point x="162" y="666"/>
			<point x="36" y="467"/>
			<point x="36" y="250" type="curve" smooth="yes"/>
			<point x="36" y="90"/>
			<point x="118" y="-12"/>
		</contour>
		<contour>
			<point x="263" y="81" type="curve" smooth="yes"/>
			<point x="184" y="81"/>
			<point x="146" y="140"/>
			<point x="146" y="242" type="curve" smooth="yes"/>
			<point x="146" y="410"/>
			<point x="224" y="573"/>
			<point x="346" y="573" type="curve" smooth="yes"/>
			<point x="425" y="573"/>
			<point x="462" y="514"/>
			<point x="462" y="412" type="curve" smooth="yes"/>
			<point x="462" y="244"/>
			<point x="385" y="81"/>
		</contour>
	</outline>
	<anchor name="aboveUC" x="372" y="674"/>
	<anchor name="baseLC" x="238" y="0"/>
	<anchor name="belowLC" x="232" y="-20"/>
	<anchor name="hornLC" x="366" y="644"/>
	<anchor name="ogonekUC" x="238" y="0"/>
</glyph>
<glyph name="P" format="2">
	<unicode hex="0050"/>
	<advance width="600"/>
	<outline>
		<contour>
			<point x="40" y="0" type="line"/>
			<point x="148" y="0" type="line"/>
			<point x="197" y="245" type="line"/>
			<point x="288" y="245" type="line" smooth="yes"/>
			<point x="452" y="245"/>
			<point x="581" y="316"/>
			<point x="581" y="487" type="curve" smooth="yes"/>
			<point x="581" y="607"/>
			<point x="489" y="654"/>
			<point x="364" y="654" type="curve" smooth="yes"/>
			<point x="171" y="654" type="line"/>
		</contour>
		<contour>
			<point x="214" y="331" type="line"/>
			<point x="261" y="568" type="line"/>
			<point x="342" y="568" type="line" smooth="yes"/>
			<point x="427" y="568"/>
			<point x="472" y="539"/>
			<point x="472" y="472" type="curve" smooth="yes"/>
			<point x="472" y="379"/>
			<point x="409" y="331"/>
			<point x="292" y="331" type="curve" smooth="yes"/>
		</contour>
	</outline>
	<anchor name="aboveUC" x="386" y="674"/>
	<anchor name="belowLC" x="102" y="-20"/>
</glyph>
<glyph name="Q" format="1">
	<unicode hex="0051"/>
	<advance width="600"/>
	<outline>
		<contour>
			<point x="252" y="-12" type="curve" smooth="yes"/>
			<point x="446" y="-12"/>
			<point x="572" y="187"/>
			<point x="572" y="404" type="curve" smooth="yes"/>
			<point x="572" y="564"/>
			<point x="490" y="666"/>
			<point x="356" y="666" type="curve" smooth="yes"/>
			<point x="162" y="666"/>
			<point x="36" y="467"/>
			<point x="36" y="250" type="curve" smooth="yes"/>
			<point x="36" y="90"/>
			<point x="118" y="-12"/>
		</contour>
		<contour>
			<point x="264" y="76" type="curve" smooth="yes"/>
			<point x="184" y="76"/>
			<point x="146" y="134"/>
			<point x="146" y="242" type="curve" smooth="yes"/>
			<point x="146" y="410"/>
			<point x="224" y="573"/>
			<point x="346" y="573" type="curve" smooth="yes"/>
			<point x="425" y="573"/>
			<point x="462" y="514"/>
			<point x="462" y="412" type="curve" smooth="yes"/>
			<point x="462" y="237"/>
			<point x="385" y="76"/>
		</contour>
		<contour>
			<point x="402" y="-173" type="curve" smooth="yes"/>
			<point x="449" y="-173"/>
			<point x="488" y="-164"/>
			<point x="511" y="-154" type="curve"/>
			<point x="494" y="-71" type="line"/>
			<point x="474" y="-79"/>
			<point x="449" y="-85"/>
			<point x="415" y="-85" type="curve" smooth="yes"/>
			<point x="352" y="-85"/>
			<point x="305" y="-50"/>
			<point x="294" y="19" type="curve"/>
			<point x="186" y="22" type="line"/>
			<point x="215" y="-112"/>
			<point x="297" y="-173"/>
		</contour>
		<contour>
			<point name="aboveUC" x="372" y="674" type="move"/>
		</contour>
	</outline>
</glyph>
<glyph name="R" format="1">
	<unicode hex="0052"/>
	<advance width="600"/>
	<outline>
		<contour>
			<point x="25" y="0" type="line"/>
			<point x="133" y="0" type="line"/>
			<point x="184" y="258" type="line"/>
			<point x="284" y="258" type="line" smooth="yes"/>
			<point x="427" y="258"/>
			<point x="561" y="335"/>
			<point x="561" y="490" type="curve" smooth="yes"/>
			<point x="561" y="610"/>
			<point x="470" y="654"/>
			<point x="344" y="654" type="curve" smooth="yes"/>
			<point x="156" y="654" type="line"/>
		</contour>
		<contour>
			<point x="202" y="344" type="line"/>
			<point x="246" y="568" type="line"/>
			<point x="326" y="568" type="line" smooth="yes"/>
			<point x="409" y="568"/>
			<point x="452" y="542"/>
			<point x="452" y="479" type="curve" smooth="yes"/>
			<point x="452" y="397"/>
			<point x="390" y="344"/>
			<point x="279" y="344" type="curve" smooth="yes"/>
		</contour>
		<contour>
			<point x="268" y="276" type="line"/>
			<point x="372" y="0" type="line"/>
			<point x="492" y="0" type="line"/>
			<point x="360" y="321" type="line"/>
		</contour>
		<contour>
			<point name="aboveUC" x="370" y="674" type="move"/>
		</contour>
		<contour>
			<point name="baseLC" x="83" y="0" type="move"/>
		</contour>
		<contour>
			<point name="belowLC" x="260" y="-20" type="move"/>
		</contour>
	</outline>
</glyph>
<glyph name="S" format="2">
	<unicode hex="0053"/>
	<advance width="600"/>
	<outline>
		<contour>
			<point x="264" y="-12" type="curve" smooth="yes"/>
			<point x="392" y="-12"/>
			<point x="494" y="60"/>
			<point x="494" y="186" type="curve" smooth="yes"/>
			<point x="494" y="269"/>
			<point x="448" y="315"/>
			<point x="384" y="354" type="curve" smooth="yes"/>
			<point x="310" y="401" type="line" smooth="yes"/>
			<point x="272" y="424"/>
			<point x="241" y="449"/>
			<point x="241" y="491" type="curve" smooth="yes"/>
			<point x="241" y="538"/>
			<point x="282" y="575"/>
			<point x="339" y="575" type="curve" smooth="yes"/>
			<point x="400" y="575"/>
			<point x="446" y="542"/>
			<point x="478" y="504" type="curve"/>
			<point x="547" y="563" type="line"/>
			<point x="506" y="621"/>
			<point x="431" y="666"/>
			<point x="342" y="666" type="curve" smooth="yes"/>
			<point x="221" y="666"/>
			<point x="130" y="590"/>
			<point x="130" y="483" type="curve" smooth="yes"/>
			<point x="130" y="402"/>
			<point x="180" y="350"/>
			<point x="238" y="316" type="curve" smooth="yes"/>
			<point x="306" y="275" type="line" smooth="yes"/>
			<point x="354" y="247"/>
			<point x="384" y="221"/>
			<point x="384" y="177" type="curve" smooth="yes"/>
			<point x="384" y="117"/>
			<point x="333" y="81"/>
			<point x="262" y="81" type="curve" smooth="yes"/>
			<point x="194" y="81"/>
			<point x="140" y="113"/>
			<point x="102" y="172" type="curve"/>
			<point x="31" y="111" type="line"/>
			<point x="76" y="38"/>
			<point x="153" y="-12"/>
		</contour>
	</outline>
	<anchor name="aboveUC" x="356" y="674"/>
	<anchor name="baseLC" x="260" y="0"/>
	<anchor name="belowLC" x="260" y="-20"/>
</glyph>
<glyph name="T" format="2">
	<unicode hex="0054"/>
	<advance width="600"/>
	<outline>
		<contour>
			<point x="184" y="0" type="line"/>
			<point x="292" y="0" type="line"/>
			<point x="403" y="562" type="line"/>
			<point x="611" y="562" type="line"/>
			<point x="629" y="654" type="line"/>
			<point x="106" y="654" type="line"/>
			<point x="88" y="562" type="line"/>
			<point x="295" y="562" type="line"/>
		</contour>
	</outline>
	<anchor name="aboveUC" x="372" y="674"/>
	<anchor name="baseLC" x="239" y="0"/>
	<anchor name="belowLC" x="235" y="-20"/>
</glyph>
<glyph name="U" format="2">
	<unicode hex="0055"/>
	<advance width="600"/>
	<outline>
		<contour>
			<point x="252" y="-12" type="curve" smooth="yes"/>
			<point x="384" y="-12"/>
			<point x="475" y="55"/>
			<point x="515" y="253" type="curve" smooth="yes"/>
			<point x="595" y="654" type="line"/>
			<point x="489" y="654" type="line"/>
			<point x="411" y="261" type="line" smooth="yes"/>
			<point x="384" y="124"/>
			<point x="334" y="81"/>
			<point x="266" y="81" type="curve" smooth="yes"/>
			<point x="199" y="81"/>
			<point x="164" y="124"/>
			<point x="164" y="200" type="curve" smooth="yes"/>
			<point x="164" y="225"/>
			<point x="169" y="252"/>
			<point x="175" y="281" type="curve" smooth="yes"/>
			<point x="250" y="654" type="line"/>
			<point x="142" y="654" type="line"/>
			<point x="69" y="290" type="line" smooth="yes"/>
			<point x="62" y="254"/>
			<point x="58" y="224"/>
			<point x="58" y="190" type="curve" smooth="yes"/>
			<point x="58" y="68"/>
			<point x="125" y="-12"/>
		</contour>
	</outline>
	<anchor name="aboveUC" x="372" y="674"/>
	<anchor name="baseLC" x="238" y="0"/>
	<anchor name="belowLC" x="232" y="-20"/>
	<anchor name="hornLC" x="455" y="664"/>
	<anchor name="ogonekUC" x="238" y="0"/>
</glyph>
<glyph name="X" format="1">
	<unicode hex="0058"/>
	<advance width="600"/>
	<outline>
		<contour>
			<point x="-17" y="0" type="line"/>
			<point x="101" y="0" type="line"/>
			<point x="218" y="160" type="line" smooth="yes"/>
			<point x="237" y="188"/>
			<point x="262" y="227"/>
			<point x="285" y="263" type="curve"/>
			<point x="289" y="263" type="line"/>
			<point x="299" y="232"/>
			<point x="315" y="185"/>
			<point x="323" y="161" type="curve" smooth="yes"/>
			<point x="384" y="0" type="line"/>
			<point x="501" y="0" type="line"/>
			<point x="369" y="327" type="line"/>
			<point x="616" y="655" type="line"/>
			<point x="498" y="655" type="line"/>
			<point x="388" y="503" type="line" smooth="yes"/>
			<point x="373" y="482"/>
			<point x="345" y="434"/>
			<point x="324" y="401" type="curve"/>
			<point x="320" y="401" type="line"/>
			<point x="311" y="433"/>
			<point x="298" y="476"/>
			<point x="288" y="504" type="curve" smooth="yes"/>
			<point x="233" y="655" type="line"/>
			<point x="115" y="655" type="line"/>
			<point x="239" y="344" type="line"/>
		</contour>
		<contour>
			<point name="aboveUC" x="366" y="674" type="move"/>
		</contour>
		<contour>
			<point name="baseLC" x="447" y="0" type="move"/>
		</contour>
		<contour>
			<point name="belowLC" x="244" y="-20" type="move"/>
		</contour>
	</outline>
</glyph>
<glyph name="Y" format="1">
	<unicode hex="0059"/>
	<advance width="600"/>
	<outline>
		<contour>
			<point x="184" y="0" type="line"/>
			<point x="291" y="0" type="line"/>
			<point x="333" y="207" type="line"/>
			<point x="636" y="655" type="line"/>
			<point x="522" y="655" type="line"/>
			<point x="400" y="468" type="line" smooth="yes"/>
			<point x="366" y="415"/>
			<point x="329" y="353"/>
			<point x="302" y="307" type="curve"/>
			<point x="298" y="307" type="line"/>
			<point x="288" y="355"/>
			<point x="273" y="416"/>
			<point x="259" y="468" type="curve" smooth="yes"/>
			<point x="210" y="655" type="line"/>
			<point x="98" y="655" type="line"/>
			<point x="228" y="218" type="line"/>
		</contour>
		<contour>
			<point name="aboveUC" x="360" y="674" type="move"/>
		</contour>
		<contour>
			<point name="ogonekUC" x="239" y="0" type="move"/>
		</contour>
		<contour>
			<point name="belowLC" x="234" y="-20" type="move"/>
		</contour>
	</outline>
</glyph>
<glyph name="underscore" format="1">
	<unicode hex="005F"/>
	<advance width="600"/>
	<outline>
		<contour>
			<point x="-30" y="-148" type="line"/>
			<point x="450" y="-148" type="line"/>
			<point x="467" y="-63" type="line"/>
			<point x="-13" y="-63" type="line"/>
		</contour>
	</outline>
</glyph>
<glyph name="d" format="1">
	<unicode hex="0064"/>
	<advance width="600"/>
	<outline>
		<contour>
			<point x="207" y="-12" type="curve" smooth="yes"/>
			<point x="267" y="-12"/>
			<point x="329" y="20"/>
			<point x="378" y="71" type="curve"/>
			<point x="382" y="71" type="line"/>
			<point x="377" y="0" type="line"/>
			<point x="465" y="0" type="line"/>
			<point x="607" y="706" type="line"/>
			<point x="500" y="706" type="line"/>
			<point x="466" y="532" type="line"/>
			<point x="452" y="438" type="line"/>
			<point x="449" y="438" type="line"/>
			<point x="422" y="477"/>
			<point x="377" y="503"/>
			<point x="310" y="503" type="curve" smooth="yes"/>
			<point x="166" y="503"/>
			<point x="43" y="355"/>
			<point x="43" y="177" type="curve" smooth="yes"/>
			<point x="43" y="55"/>
			<point x="108" y="-12"/>
		</contour>
		<contour>
			<point x="245" y="76" type="curve" smooth="yes"/>
			<point x="190" y="76"/>
			<point x="154" y="113"/>
			<point x="154" y="192" type="curve" smooth="yes"/>
			<point x="154" y="313"/>
			<point x="232" y="415"/>
			<point x="327" y="415" type="curve" smooth="yes"/>
			<point x="364" y="415"/>
			<point x="404" y="397"/>
			<point x="430" y="355" type="curve"/>
			<point x="390" y="162" type="line"/>
			<point x="344" y="104"/>
			<point x="290" y="76"/>
		</contour>
		<contour>
			<point name="aboveUC" x="552" y="734" type="move"/>
		</contour>
		<contour>
			<point name="baseLC" x="226" y="0" type="move"/>
		</contour>
		<contour>
			<point name="belowLC" x="249" y="-20" type="move"/>
		</contour>
	</outline>
</glyph>
<glyph name="e" format="1">
	<unicode hex="0065"/>
	<advance width="600"/>
	<outline>
		<contour>
			<point x="269" y="-12" type="curve" smooth="yes"/>
			<point x="355" y="-12"/>
			<point x="433" y="17"/>
			<point x="487" y="57" type="curve"/>
			<point x="449" y="129" type="line"/>
			<point x="404" y="96"/>
			<point x="352" y="71"/>
			<point x="292" y="71" type="curve" smooth="yes"/>
			<point x="216" y="71"/>
			<point x="161" y="114"/>
			<point x="161" y="208" type="curve" smooth="yes"/>
			<point x="161" y="342"/>
			<point x="254" y="420"/>
			<point x="333" y="420" type="curve" smooth="yes"/>
			<point x="393" y="420"/>
			<point x="431" y="381"/>
			<point x="431" y="315" type="curve" smooth="yes"/>
			<point x="431" y="301"/>
			<point x="429" y="286"/>
			<point x="425" y="273" type="curve"/>
			<point x="461" y="291" type="line"/>
			<point x="148" y="291" type="line"/>
			<point x="136" y="217" type="line"/>
			<point x="516" y="217" type="line"/>
			<point x="521" y="231"/>
			<point x="531" y="274"/>
			<point x="531" y="312" type="curve" smooth="yes"/>
			<point x="531" y="424"/>
			<point x="461" y="503"/>
			<point x="337" y="503" type="curve" smooth="yes"/>
			<point x="187" y="503"/>
			<point x="55" y="380"/>
			<point x="55" y="203" type="curve" smooth="yes"/>
			<point x="55" y="60"/>
			<point x="142" y="-12"/>
		</contour>
		<contour>
			<point name="ogonekLC" x="355" y="0" type="move"/>
		</contour>
		<contour>
			<point name="aboveLC" x="344" y="512" type="move"/>
		</contour>
		<contour>
			<point name="baseLC" x="264" y="0" type="move"/>
		</contour>
		<contour>
			<point name="belowLC" x="260" y="-20" type="move"/>
		</contour>
	</outline>
</glyph>
<glyph name="g" format="1">
	<unicode hex="0067"/>
	<advance width="600"/>
	<outline>
		<contour>
			<point x="204" y="-206" type="curve" smooth="yes"/>
			<point x="327" y="-206"/>
			<point x="434" y="-154"/>
			<point x="463" y="-8" type="curve" smooth="yes"/>
			<point x="563" y="491" type="line"/>
			<point x="478" y="491" type="line"/>
			<point x="456" y="434" type="line"/>
			<point x="452" y="434" type="line"/>
			<point x="427" y="476"/>
			<point x="377" y="503"/>
			<point x="310" y="503" type="curve" smooth="yes"/>
			<point x="170" y="503"/>
			<point x="48" y="368"/>
			<point x="48" y="193" type="curve" smooth="yes"/>
			<point x="48" y="79"/>
			<point x="113" y="10"/>
			<point x="217" y="10" type="curve" smooth="yes"/>
			<point x="275" y="10"/>
			<point x="336" y="39"/>
			<point x="379" y="80" type="curve"/>
			<point x="383" y="80" type="line"/>
			<point x="362" y="-8" type="line" smooth="yes"/>
			<point x="340" y="-93"/>
			<point x="276" y="-120"/>
			<point x="203" y="-120" type="curve" smooth="yes"/>
			<point x="151" y="-120"/>
			<point x="95" y="-101"/>
			<point x="57" y="-68" type="curve"/>
			<point x="9" y="-144" type="line"/>
			<point x="56" y="-180"/>
			<point x="119" y="-206"/>
		</contour>
		<contour>
			<point x="252" y="98" type="curve" smooth="yes"/>
			<point x="193" y="98"/>
			<point x="159" y="133"/>
			<point x="159" y="210" type="curve" smooth="yes"/>
			<point x="159" y="326"/>
			<point x="240" y="415"/>
			<point x="325" y="415" type="curve" smooth="yes"/>
			<point x="366" y="415"/>
			<point x="402" y="396"/>
			<point x="430" y="354" type="curve"/>
			<point x="391" y="171" type="line"/>
			<point x="348" y="124"/>
			<point x="298" y="98"/>
		</contour>
		<contour>
			<point name="aboveLC" x="351" y="512" type="move"/>
		</contour>
		<contour>
			<point name="belowLC" x="218" y="-212" type="move"/>
		</contour>
	</outline>
</glyph>
<glyph name="h" format="1">
	<unicode hex="0068"/>
	<advance width="600"/>
	<outline>
		<contour>
			<point x="26" y="0" type="line"/>
			<point x="133" y="0" type="line"/>
			<point x="194" y="308" type="line"/>
			<point x="250" y="374"/>
			<point x="310" y="411"/>
			<point x="363" y="411" type="curve" smooth="yes"/>
			<point x="404" y="411"/>
			<point x="427" y="390"/>
			<point x="427" y="349" type="curve" smooth="yes"/>
			<point x="427" y="331"/>
			<point x="424" y="312"/>
			<point x="419" y="289" type="curve" smooth="yes"/>
			<point x="361" y="0" type="line"/>
			<point x="468" y="0" type="line"/>
			<point x="528" y="302" type="line" smooth="yes"/>
			<point x="534" y="328"/>
			<point x="537" y="353"/>
			<point x="537" y="379" type="curve" smooth="yes"/>
			<point x="537" y="457"/>
			<point x="495" y="503"/>
			<point x="410" y="503" type="curve" smooth="yes"/>
			<point x="334" y="503"/>
			<point x="266" y="457"/>
			<point x="211" y="402" type="curve"/>
			<point x="207" y="402" type="line"/>
			<point x="227" y="473" type="line"/>
			<point x="274" y="706" type="line"/>
			<point x="167" y="706" type="line"/>
		</contour>
		<contour>
			<point name="aboveUC" x="222" y="734" type="move"/>
		</contour>
		<contour>
			<point name="baseLC" x="80" y="0" type="move"/>
		</contour>
		<contour>
			<point name="belowLC" x="253" y="-20" type="move"/>
		</contour>
	</outline>
</glyph>
<glyph name="k" format="2">
	<unicode hex="006B"/>
	<advance width="600"/>
	<outline>
		<contour>
			<point x="35" y="0" type="line"/>
			<point x="142" y="0" type="line"/>
			<point x="166" y="123" type="line"/>
			<point x="336" y="261" type="line"/>
			<point x="597" y="491" type="line"/>
			<point x="471" y="491" type="line"/>
			<point x="198" y="260" type="line"/>
			<point x="194" y="260" type="line"/>
			<point x="284" y="706" type="line"/>
			<point x="176" y="706" type="line"/>
		</contour>
		<contour>
			<point x="288" y="243" type="line"/>
			<point x="406" y="0" type="line"/>
			<point x="516" y="0" type="line"/>
			<point x="359" y="315" type="line"/>
		</contour>
	</outline>
	<anchor name="aboveUC" x="229" y="728"/>
	<anchor name="belowLC" x="276" y="-20"/>
</glyph>
<glyph name="l" format="1">
	<unicode hex="006C"/>
	<advance width="600"/>
	<outline>
		<contour>
			<point x="325" y="-12" type="curve" smooth="yes"/>
			<point x="377" y="-12"/>
			<point x="422" y="-2"/>
			<point x="470" y="20" type="curve"/>
			<point x="446" y="100" type="line"/>
			<point x="412" y="84"/>
			<point x="388" y="76"/>
			<point x="357" y="76" type="curve" smooth="yes"/>
			<point x="318" y="76"/>
			<point x="291" y="95"/>
			<point x="291" y="138" type="curve" smooth="yes"/>
			<point x="291" y="154"/>
			<point x="293" y="167"/>
			<point x="296" y="179" type="curve" smooth="yes"/>
			<point x="409" y="706" type="line"/>
			<point x="152" y="706" type="line"/>
			<point x="134" y="622" type="line"/>
			<point x="286" y="622" type="line"/>
			<point x="192" y="189" type="line" smooth="yes"/>
			<point x="186" y="167"/>
			<point x="184" y="148"/>
			<point x="184" y="131" type="curve" smooth="yes"/>
			<point x="184" y="39"/>
			<point x="243" y="-12"/>
		</contour>
		<contour>
			<point name="aboveUC" x="354" y="734" type="move"/>
		</contour>
		<contour>
			<point name="center" x="285" y="376" type="move"/>
		</contour>
		<contour>
			<point name="baseLC" x="323" y="0" type="move"/>
		</contour>
		<contour>
			<point name="belowLC" x="318" y="-20" type="move"/>
		</contour>
	</outline>
</glyph>
<glyph name="m" format="1">
	<unicode hex="006D"/>
	<advance width="600"/>
	<outline>
		<contour>
			<point x="-10" y="0" type="line"/>
			<point x="92" y="0" type="line"/>
			<point x="159" y="345" type="line"/>
			<point x="190" y="390"/>
			<point x="214" y="411"/>
			<point x="244" y="411" type="curve" smooth="yes"/>
			<point x="262" y="411"/>
			<point x="273" y="402"/>
			<point x="273" y="376" type="curve" smooth="yes"/>
			<point x="273" y="367"/>
			<point x="272" y="359"/>
			<point x="270" y="345" type="curve" smooth="yes"/>
			<point x="198" y="0" type="line"/>
			<point x="290" y="0" type="line"/>
			<point x="361" y="346" type="line"/>
			<point x="389" y="390"/>
			<point x="413" y="411"/>
			<point x="442" y="411" type="curve" smooth="yes"/>
			<point x="460" y="411"/>
			<point x="470" y="402"/>
			<point x="470" y="376" type="curve" smooth="yes"/>
			<point x="470" y="367"/>
			<point x="469" y="359"/>
			<point x="466" y="345" type="curve" smooth="yes"/>
			<point x="396" y="0" type="line"/>
			<point x="498" y="0" type="line"/>
			<point x="572" y="363" type="line" smooth="yes"/>
			<point x="576" y="385"/>
			<point x="578" y="399"/>
			<point x="578" y="416" type="curve" smooth="yes"/>
			<point x="578" y="474"/>
			<point x="548" y="503"/>
			<point x="501" y="503" type="curve" smooth="yes"/>
			<point x="449" y="503"/>
			<point x="400" y="476"/>
			<point x="356" y="413" type="curve"/>
			<point x="368" y="422" type="line"/>
			<point x="365" y="479"/>
			<point x="341" y="503"/>
			<point x="297" y="503" type="curve" smooth="yes"/>
			<point x="243" y="503"/>
			<point x="200" y="471"/>
			<point x="165" y="426" type="curve"/>
			<point x="162" y="426" type="line"/>
			<point x="166" y="491" type="line"/>
			<point x="87" y="491" type="line"/>
		</contour>
		<contour>
			<point name="aboveLC" x="350" y="511" type="move"/>
		</contour>
		<contour>
			<point name="baseLC" x="450" y="0" type="move"/>
		</contour>
		<contour>
			<point name="belowLC" x="246" y="-20" type="move"/>
		</contour>
	</outline>
</glyph>
<glyph name="o" format="1">
	<unicode hex="006F"/>
	<advance width="600"/>
	<outline>
		<contour>
			<point x="252" y="-12" type="curve" smooth="yes"/>
			<point x="401" y="-12"/>
			<point x="536" y="112"/>
			<point x="536" y="286" type="curve" smooth="yes"/>
			<point x="536" y="416"/>
			<point x="456" y="503"/>
			<point x="324" y="503" type="curve" smooth="yes"/>
			<point x="175" y="503"/>
			<point x="40" y="380"/>
			<point x="40" y="205" type="curve" smooth="yes"/>
			<point x="40" y="75"/>
			<point x="120" y="-12"/>
		</contour>
		<contour>
			<point x="260" y="76" type="curve" smooth="yes"/>
			<point x="191" y="76"/>
			<point x="149" y="126"/>
			<point x="149" y="210" type="curve" smooth="yes"/>
			<point x="149" y="326"/>
			<point x="229" y="415"/>
			<point x="316" y="415" type="curve" smooth="yes"/>
			<point x="386" y="415"/>
			<point x="428" y="365"/>
			<point x="428" y="282" type="curve" smooth="yes"/>
			<point x="428" y="165"/>
			<point x="347" y="76"/>
		</contour>
		<contour>
			<point name="hornLC" x="352" y="491" type="move"/>
		</contour>
		<contour>
			<point name="aboveLC" x="339" y="512" type="move"/>
		</contour>
		<contour>
			<point name="ogonekLC" x="239" y="0" type="move"/>
		</contour>
		<contour>
			<point name="baseLC" x="239" y="0" type="move"/>
		</contour>
		<contour>
			<point name="belowLC" x="234" y="-20" type="move"/>
		</contour>
	</outline>
</glyph>
<glyph name="p" format="1">
	<unicode hex="0070"/>
	<advance width="600"/>
	<outline>
		<contour>
			<point x="-14" y="-194" type="line"/>
			<point x="94" y="-194" type="line"/>
			<point x="122" y="-48" type="line"/>
			<point x="138" y="52" type="line"/>
			<point x="140" y="52" type="line"/>
			<point x="170" y="14"/>
			<point x="222" y="-12"/>
			<point x="279" y="-12" type="curve" smooth="yes"/>
			<point x="438" y="-12"/>
			<point x="546" y="131"/>
			<point x="546" y="310" type="curve" smooth="yes"/>
			<point x="546" y="434"/>
			<point x="482" y="503"/>
			<point x="382" y="503" type="curve" smooth="yes"/>
			<point x="317" y="503"/>
			<point x="260" y="467"/>
			<point x="210" y="418" type="curve"/>
			<point x="207" y="418" type="line"/>
			<point x="212" y="491" type="line"/>
			<point x="124" y="491" type="line"/>
		</contour>
		<contour>
			<point x="269" y="76" type="curve" smooth="yes"/>
			<point x="229" y="76"/>
			<point x="187" y="92"/>
			<point x="160" y="134" type="curve"/>
			<point x="200" y="328" type="line"/>
			<point x="245" y="385"/>
			<point x="298" y="415"/>
			<point x="341" y="415" type="curve" smooth="yes"/>
			<point x="397" y="415"/>
			<point x="435" y="377"/>
			<point x="435" y="296" type="curve" smooth="yes"/>
			<point x="435" y="174"/>
			<point x="363" y="76"/>
		</contour>
		<contour>
			<point name="aboveLC" x="366" y="512" type="move"/>
		</contour>
		<contour>
			<point name="belowLC" x="46" y="-212" type="move"/>
		</contour>
	</outline>
</glyph>
<glyph name="q" format="2">
	<unicode hex="0071"/>
	<advance width="600"/>
	<outline>
		<contour>
			<point x="320" y="-194" type="line"/>
			<point x="426" y="-194" type="line"/>
			<point x="563" y="491" type="line"/>
			<point x="478" y="491" type="line"/>
			<point x="456" y="434" type="line"/>
			<point x="452" y="434" type="line"/>
			<point x="427" y="476"/>
			<point x="377" y="503"/>
			<point x="310" y="503" type="curve" smooth="yes"/>
			<point x="166" y="503"/>
			<point x="43" y="355"/>
			<point x="43" y="177" type="curve" smooth="yes"/>
			<point x="43" y="55"/>
			<point x="108" y="-12"/>
			<point x="207" y="-12" type="curve" smooth="yes"/>
			<point x="266" y="-12"/>
			<point x="330" y="20"/>
			<point x="379" y="71" type="curve"/>
			<point x="383" y="71" type="line"/>
			<point x="367" y="28"/>
			<point x="356" y="-20"/>
			<point x="350" y="-46" type="curve" smooth="yes"/>
		</contour>
		<contour>
			<point x="245" y="76" type="curve" smooth="yes"/>
			<point x="190" y="76"/>
			<point x="154" y="113"/>
			<point x="154" y="192" type="curve" smooth="yes"/>
			<point x="154" y="313"/>
			<point x="232" y="415"/>
			<point x="327" y="415" type="curve" smooth="yes"/>
			<point x="364" y="415"/>
			<point x="404" y="397"/>
			<point x="430" y="355" type="curve"/>
			<point x="390" y="162" type="line"/>
			<point x="344" y="104"/>
			<point x="290" y="76"/>
		</contour>
	</outline>
	<anchor name="aboveLC" x="353" y="512"/>
	<anchor name="belowLC" x="368" y="-212"/>
</glyph>
<glyph name="s" format="1">
	<unicode hex="0073"/>
	<advance width="600"/>
	<outline>
		<contour>
			<point x="268" y="-12" type="curve" smooth="yes"/>
			<point x="388" y="-12"/>
			<point x="484" y="34"/>
			<point x="484" y="142" type="curve" smooth="yes"/>
			<point x="484" y="223"/>
			<point x="422" y="258"/>
			<point x="332" y="288" type="curve" smooth="yes"/>
			<point x="255" y="315"/>
			<point x="220" y="331"/>
			<point x="220" y="367" type="curve" smooth="yes"/>
			<point x="220" y="402"/>
			<point x="252" y="422"/>
			<point x="304" y="422" type="curve" smooth="yes"/>
			<point x="368" y="422"/>
			<point x="422" y="393"/>
			<point x="462" y="359" type="curve"/>
			<point x="522" y="423" type="line"/>
			<point x="478" y="466"/>
			<point x="410" y="503"/>
			<point x="315" y="503" type="curve" smooth="yes"/>
			<point x="210" y="503"/>
			<point x="119" y="453"/>
			<point x="119" y="354" type="curve" smooth="yes"/>
			<point x="119" y="283"/>
			<point x="169" y="240"/>
			<point x="270" y="207" type="curve" smooth="yes"/>
			<point x="347" y="182"/>
			<point x="382" y="166"/>
			<point x="382" y="128" type="curve" smooth="yes"/>
			<point x="382" y="88"/>
			<point x="343" y="69"/>
			<point x="286" y="69" type="curve" smooth="yes"/>
			<point x="221" y="69"/>
			<point x="156" y="93"/>
			<point x="107" y="146" type="curve"/>
			<point x="46" y="78" type="line"/>
			<point x="97" y="23"/>
			<point x="179" y="-12"/>
		</contour>
		<contour>
			<point name="aboveLC" x="342" y="512" type="move"/>
		</contour>
		<contour>
			<point name="baseLC" x="264" y="0" type="move"/>
		</contour>
		<contour>
			<point name="belowLC" x="263" y="-20" type="move"/>
		</contour>
	</outline>
</glyph>
<glyph name="u" format="1">
	<unicode hex="0075"/>
	<advance width="600"/>
	<outline>
		<contour>
			<point x="174" y="-12" type="curve" smooth="yes"/>
			<point x="252" y="-12"/>
			<point x="323" y="39"/>
			<point x="377" y="92" type="curve"/>
			<point x="381" y="92" type="line"/>
			<point x="372" y="0" type="line"/>
			<point x="459" y="0" type="line"/>
			<point x="556" y="491" type="line"/>
			<point x="449" y="491" type="line"/>
			<point x="388" y="183" type="line"/>
			<point x="332" y="117"/>
			<point x="275" y="80"/>
			<point x="221" y="80" type="curve" smooth="yes"/>
			<point x="180" y="80"/>
			<point x="157" y="102"/>
			<point x="157" y="143" type="curve" smooth="yes"/>
			<point x="157" y="161"/>
			<point x="161" y="179"/>
			<point x="166" y="202" type="curve" smooth="yes"/>
			<point x="224" y="491" type="line"/>
			<point x="116" y="491" type="line"/>
			<point x="56" y="189" type="line" smooth="yes"/>
			<point x="51" y="164"/>
			<point x="47" y="138"/>
			<point x="47" y="112" type="curve" smooth="yes"/>
			<point x="47" y="34"/>
			<point x="90" y="-12"/>
		</contour>
		<contour>
			<point name="ogonekLC" x="385" y="0" type="move"/>
		</contour>
		<contour>
			<point name="aboveLC" x="336" y="512" type="move"/>
		</contour>
		<contour>
			<point name="baseLC" x="416" y="0" type="move"/>
		</contour>
		<contour>
			<point name="belowLC" x="248" y="-20" type="move"/>
		</contour>
	</outline>
</glyph>
<glyph name="v" format="2">
	<unicode hex="0076"/>
	<advance width="600"/>
	<outline>
		<contour>
			<point x="179" y="0" type="line"/>
			<point x="304" y="0" type="line"/>
			<point x="592" y="491" type="line"/>
			<point x="485" y="491" type="line"/>
			<point x="337" y="228" type="line" smooth="yes"/>
			<point x="309" y="178"/>
			<point x="282" y="128"/>
			<point x="259" y="81" type="curve"/>
			<point x="255" y="81" type="line"/>
			<point x="248" y="129"/>
			<point x="241" y="179"/>
			<point x="233" y="228" type="curve" smooth="yes"/>
			<point x="184" y="491" type="line"/>
			<point x="78" y="491" type="line"/>
		</contour>
	</outline>
	<anchor name="aboveLC" x="330" y="512"/>
	<anchor name="belowLC" x="240" y="-20"/>
</glyph>
<glyph name="w" format="2">
	<unicode hex="0077"/>
	<advance width="600"/>
	<outline>
		<contour>
			<point x="44" y="0" type="line"/>
			<point x="175" y="0" type="line"/>
			<point x="261" y="214" type="line" smooth="yes"/>
			<point x="281" y="267"/>
			<point x="290" y="299"/>
			<point x="306" y="352" type="curve"/>
			<point x="310" y="352" type="line"/>
			<point x="309" y="300"/>
			<point x="306" y="261"/>
			<point x="306" y="215" type="curve" smooth="yes"/>
			<point x="307" y="0" type="line"/>
			<point x="433" y="0" type="line"/>
			<point x="623" y="491" type="line"/>
			<point x="523" y="491" type="line"/>
			<point x="427" y="228" type="line" smooth="yes"/>
			<point x="411" y="180"/>
			<point x="397" y="136"/>
			<point x="380" y="88" type="curve"/>
			<point x="376" y="88" type="line"/>
			<point x="377" y="136"/>
			<point x="379" y="180"/>
			<point x="378" y="228" type="curve" smooth="yes"/>
			<point x="372" y="448" type="line"/>
			<point x="283" y="448" type="line"/>
			<point x="192" y="228" type="line" smooth="yes"/>
			<point x="172" y="182"/>
			<point x="156" y="136"/>
			<point x="140" y="88" type="curve"/>
			<point x="136" y="88" type="line"/>
			<point x="138" y="136"/>
			<point x="141" y="180"/>
			<point x="143" y="228" type="curve" smooth="yes"/>
			<point x="151" y="491" type="line"/>
			<point x="47" y="491" type="line"/>
		</contour>
	</outline>
	<anchor name="aboveLC" x="330" y="514"/>
	<anchor name="belowLC" x="240" y="-20"/>
</glyph>
<glyph name="x" format="2">
	<unicode hex="0078"/>
	<advance width="600"/>
	<outline>
		<contour>
			<point x="-2" y="0" type="line"/>
			<point x="120" y="0" type="line"/>
			<point x="209" y="105" type="line" smooth="yes"/>
			<point x="226" y="126"/>
			<point x="252" y="159"/>
			<point x="271" y="184" type="curve"/>
			<point x="277" y="184" type="line"/>
			<point x="289" y="159"/>
			<point x="305" y="126"/>
			<point x="317" y="102" type="curve" smooth="yes"/>
			<point x="370" y="0" type="line"/>
			<point x="482" y="0" type="line"/>
			<point x="349" y="246" type="line"/>
			<point x="568" y="491" type="line"/>
			<point x="447" y="491" type="line"/>
			<point x="364" y="392" type="line" smooth="yes"/>
			<point x="348" y="373"/>
			<point x="320" y="330"/>
			<point x="305" y="309" type="curve"/>
			<point x="301" y="309" type="line"/>
			<point x="292" y="332"/>
			<point x="276" y="369"/>
			<point x="265" y="392" type="curve" smooth="yes"/>
			<point x="216" y="491" type="line"/>
			<point x="107" y="491" type="line"/>
			<point x="227" y="255" type="line"/>
		</contour>
	</outline>
	<anchor name="aboveLC" x="330" y="512"/>
	<anchor name="baseLC" x="424" y="0"/>
	<anchor name="belowLC" x="244" y="-20"/>
</glyph>
<glyph name="z" format="2">
	<unicode hex="007A"/>
	<advance width="600"/>
	<outline>
		<contour>
			<point x="28" y="0" type="line"/>
			<point x="466" y="0" type="line"/>
			<point x="483" y="85" type="line"/>
			<point x="186" y="85" type="line"/>
			<point x="533" y="428" type="line"/>
			<point x="545" y="491" type="line"/>
			<point x="124" y="491" type="line"/>
			<point x="106" y="408" type="line"/>
			<point x="388" y="408" type="line"/>
			<point x="40" y="64" type="line"/>
		</contour>
	</outline>
	<anchor name="aboveLC" x="336" y="512"/>
	<anchor name="baseLC" x="278" y="0"/>
	<anchor name="belowLC" x="260" y="-20"/>
</glyph>
<glyph name="asciitilde" format="2">
	<unicode hex="007E"/>
	<advance width="600"/>
	<outline>
		<contour>
			<point x="386" y="250" type="curve" smooth="yes"/>
			<point x="442" y="250"/>
			<point x="495" y="285"/>
			<point x="534" y="382" type="curve"/>
			<point x="467" y="413" type="line"/>
			<point x="445" y="349"/>
			<point x="419" y="329"/>
			<point x="388" y="329" type="curve" smooth="yes"/>
			<point x="333" y="329"/>
			<point x="294" y="410"/>
			<point x="214" y="410" type="curve" smooth="yes"/>
			<point x="158" y="410"/>
			<point x="105" y="375"/>
			<point x="66" y="276" type="curve"/>
			<point x="133" y="247" type="line"/>
			<point x="155" y="310"/>
			<point x="182" y="331"/>
			<point x="212" y="331" type="curve" smooth="yes"/>
			<point x="267" y="331"/>
			<point x="306" y="250"/>
		</contour>
	</outline>
</glyph>
<glyph name="sterling" format="2">
	<unicode hex="00A3"/>
	<advance width="600"/>
	<outline>
		<contour>
			<point x="18" y="0" type="line"/>
			<point x="457" y="0" type="line"/>
			<point x="474" y="90" type="line"/>
			<point x="188" y="90" type="line"/>
			<point x="189" y="95" type="line"/>
			<point x="254" y="144"/>
			<point x="284" y="200"/>
			<point x="284" y="285" type="curve" smooth="yes"/>
			<point x="283" y="327"/>
			<point x="274" y="379"/>
			<point x="274" y="418" type="curve" smooth="yes"/>
			<point x="274" y="521"/>
			<point x="322" y="562"/>
			<point x="392" y="562" type="curve" smooth="yes"/>
			<point x="436" y="562"/>
			<point x="469" y="539"/>
			<point x="493" y="504" type="curve"/>
			<point x="563" y="560" type="line"/>
			<point x="527" y="612"/>
			<point x="467" y="648"/>
			<point x="392" y="648" type="curve" smooth="yes"/>
			<point x="264" y="648"/>
			<point x="174" y="570"/>
			<point x="174" y="431" type="curve" smooth="yes"/>
			<point x="174" y="384"/>
			<point x="186" y="320"/>
			<point x="186" y="272" type="curve" smooth="yes"/>
			<point x="186" y="183"/>
			<point x="133" y="109"/>
			<point x="32" y="65" type="curve"/>
		</contour>
		<contour>
			<point x="71" y="282" type="line"/>
			<point x="443" y="282" type="line"/>
			<point x="457" y="348" type="line"/>
			<point x="182" y="348" type="line"/>
			<point x="84" y="343" type="line"/>
		</contour>
	</outline>
</glyph>
<glyph name="currency" format="1">
	<unicode hex="00A4"/>
	<advance width="600"/>
	<outline>
		<contour>
			<point x="70" y="77" type="line"/>
			<point x="165" y="161" type="line"/>
			<point x="191" y="142"/>
			<point x="226" y="133"/>
			<point x="262" y="133" type="curve" smooth="yes"/>
			<point x="304" y="133"/>
			<point x="344" y="144"/>
			<point x="378" y="162" type="curve"/>
			<point x="449" y="69" type="line"/>
			<point x="516" y="125" type="line"/>
			<point x="448" y="211" type="line"/>
			<point x="486" y="251"/>
			<point x="508" y="305"/>
			<point x="508" y="363" type="curve" smooth="yes"/>
			<point x="508" y="391"/>
			<point x="503" y="415"/>
			<point x="494" y="437" type="curve"/>
			<point x="594" y="518" type="line"/>
			<point x="543" y="580" type="line"/>
			<point x="442" y="495" type="line"/>
			<point x="415" y="516"/>
			<point x="380" y="527"/>
			<point x="341" y="527" type="curve" smooth="yes"/>
			<point x="299" y="527"/>
			<point x="259" y="516"/>
			<point x="225" y="497" type="curve"/>
			<point x="157" y="583" type="line"/>
			<point x="88" y="526" type="line"/>
			<point x="154" y="445" type="line"/>
			<point x="117" y="405"/>
			<point x="95" y="352"/>
			<point x="95" y="294" type="curve" smooth="yes"/>
			<point x="95" y="263"/>
			<point x="101" y="237"/>
			<point x="112" y="214" type="curve"/>
			<point x="16" y="133" type="line"/>
		</contour>
		<contour>
			<point x="277" y="210" type="curve" smooth="yes"/>
			<point x="223" y="210"/>
			<point x="192" y="248"/>
			<point x="192" y="306" type="curve" smooth="yes"/>
			<point x="192" y="390"/>
			<point x="258" y="452"/>
			<point x="327" y="452" type="curve" smooth="yes"/>
			<point x="378" y="452"/>
			<point x="412" y="414"/>
			<point x="412" y="355" type="curve" smooth="yes"/>
			<point x="412" y="270"/>
			<point x="346" y="210"/>
		</contour>
	</outline>
</glyph>
<glyph name="yen" format="1">
	<unicode hex="00A5"/>
	<advance width="600"/>
	<outline>
		<contour>
			<point x="188" y="0" type="line"/>
			<point x="295" y="0" type="line"/>
			<point x="347" y="276" type="line"/>
			<point x="621" y="637" type="line"/>
			<point x="507" y="637" type="line"/>
			<point x="397" y="479" type="line" smooth="yes"/>
			<point x="367" y="435"/>
			<point x="336" y="383"/>
			<point x="311" y="338" type="curve"/>
			<point x="307" y="338" type="line"/>
			<point x="296" y="386"/>
			<point x="283" y="435"/>
			<point x="270" y="479" type="curve" smooth="yes"/>
			<point x="220" y="637" type="line"/>
			<point x="113" y="637" type="line"/>
			<point x="242" y="281" type="line"/>
		</contour>
		<contour>
			<point x="40" y="150" type="line" smooth="yes"/>
			<point x="501" y="150" type="line" smooth="yes"/>
			<point x="513" y="203" type="line"/>
			<point x="52" y="203" type="line"/>
		</contour>
		<contour>
			<point x="63" y="267" type="line"/>
			<point x="523" y="267" type="line"/>
			<point x="536" y="320" type="line"/>
			<point x="76" y="320" type="line"/>
		</contour>
	</outline>
</glyph>
<glyph name="brokenbar" format="2">
	<unicode hex="00A6"/>
	<advance width="600"/>
	<outline>
		<contour>
			<point x="252" y="-250" type="line"/>
			<point x="348" y="-250" type="line"/>
			<point x="348" y="190" type="line"/>
			<point x="252" y="190" type="line"/>
		</contour>
		<contour>
			<point x="252" y="310" type="line"/>
			<point x="348" y="310" type="line"/>
			<point x="348" y="750" type="line"/>
			<point x="252" y="750" type="line"/>
		</contour>
	</outline>
</glyph>
<glyph name="registered" format="1">
	<unicode hex="00AE"/>
	<advance width="600"/>
	<outline>
		<contour>
			<point x="309" y="316" type="curve" smooth="yes"/>
			<point x="448" y="316"/>
			<point x="545" y="416"/>
			<point x="545" y="551" type="curve" smooth="yes"/>
			<point x="545" y="647"/>
			<point x="480" y="714"/>
			<point x="388" y="714" type="curve" smooth="yes"/>
			<point x="253" y="714"/>
			<point x="152" y="614"/>
			<point x="152" y="479" type="curve" smooth="yes"/>
			<point x="152" y="383"/>
			<point x="217" y="316"/>
		</contour>
		<contour>
			<point x="317" y="356" type="curve" smooth="yes"/>
			<point x="245" y="356"/>
			<point x="197" y="406"/>
			<point x="197" y="483" type="curve" smooth="yes"/>
			<point x="197" y="593"/>
			<point x="280" y="675"/>
			<point x="380" y="675" type="curve" smooth="yes"/>
			<point x="452" y="675"/>
			<point x="500" y="625"/>
			<point x="500" y="546" type="curve" smooth="yes"/>
			<point x="500" y="436"/>
			<point x="420" y="356"/>
		</contour>
		<contour>
			<point x="254" y="417" type="line"/>
			<point x="300" y="417" type="line"/>
			<point x="334" y="587" type="line"/>
			<point x="325" y="582" type="line"/>
			<point x="359" y="582" type="line" smooth="yes"/>
			<point x="382" y="582"/>
			<point x="391" y="571"/>
			<point x="391" y="555" type="curve" smooth="yes"/>
			<point x="391" y="532"/>
			<point x="373" y="517"/>
			<point x="344" y="517" type="curve" smooth="yes"/>
			<point x="307" y="517" type="line"/>
			<point x="301" y="483" type="line"/>
			<point x="341" y="483" type="line" smooth="yes"/>
			<point x="403" y="483"/>
			<point x="442" y="515"/>
			<point x="442" y="560" type="curve" smooth="yes"/>
			<point x="442" y="602"/>
			<point x="412" y="618"/>
			<point x="374" y="618" type="curve" smooth="yes"/>
			<point x="293" y="618" type="line"/>
		</contour>
		<contour>
			<point x="341" y="487" type="line"/>
			<point x="371" y="417" type="line"/>
			<point x="421" y="417" type="line"/>
			<point x="385" y="497" type="line"/>
		</contour>
	</outline>
</glyph>
<glyph name="mu.math" format="1">
	<unicode hex="00B5"/>
	<advance width="600"/>
	<outline>
		<contour>
			<point x="-21" y="-191" type="line"/>
			<point x="86" y="-191" type="line"/>
			<point x="95" y="-112"/>
			<point x="105" y="-60"/>
			<point x="123" y="34" type="curve"/>
			<point x="139" y="-1"/>
			<point x="169" y="-9"/>
			<point x="204" y="-9" type="curve" smooth="yes"/>
			<point x="271" y="-9"/>
			<point x="328" y="33"/>
			<point x="376" y="92" type="curve"/>
			<point x="380" y="92" type="line"/>
			<point x="375" y="20"/>
			<point x="397" y="-12"/>
			<point x="454" y="-12" type="curve" smooth="yes"/>
			<point x="479" y="-12"/>
			<point x="498" y="-8"/>
			<point x="512" y="-3" type="curve"/>
			<point x="515" y="77" type="line"/>
			<point x="506" y="75"/>
			<point x="502" y="75"/>
			<point x="496" y="75" type="curve" smooth="yes"/>
			<point x="482" y="75"/>
			<point x="472" y="82"/>
			<point x="472" y="101" type="curve" smooth="yes"/>
			<point x="472" y="115"/>
			<point x="520" y="334"/>
			<point x="556" y="491" type="curve"/>
			<point x="449" y="491" type="line"/>
			<point x="386" y="178" type="line"/>
			<point x="331" y="113"/>
			<point x="281" y="79"/>
			<point x="225" y="79" type="curve" smooth="yes"/>
			<point x="164" y="79"/>
			<point x="145" y="118"/>
			<point x="163" y="200" type="curve" smooth="yes"/>
			<point x="223" y="491" type="line"/>
			<point x="116" y="491" type="line"/>
		</contour>
	</outline>
</glyph>
<glyph name="paragraph" format="1">
	<unicode hex="00B6"/>
	<advance width="600"/>
	<outline>
		<contour>
			<point x="298" y="213" type="curve" smooth="yes"/>
			<point x="317" y="213" type="line"/>
			<point x="406" y="654" type="line"/>
			<point x="363" y="654" type="line" smooth="yes"/>
			<point x="216" y="654"/>
			<point x="78" y="573"/>
			<point x="78" y="393" type="curve" smooth="yes"/>
			<point x="78" y="276"/>
			<point x="179" y="213"/>
		</contour>
		<contour>
			<point x="311" y="-80" type="line"/>
			<point x="418" y="-80" type="line"/>
			<point x="564" y="654" type="line"/>
			<point x="457" y="654" type="line"/>
		</contour>
	</outline>
</glyph>
<glyph name="Eth" format="2">
	<unicode hex="00D0"/>
	<advance width="600"/>
	<outline>
		<contour>
			<point x="324" y="311" type="line"/>
			<point x="338" y="374" type="line"/>
			<point x="104" y="374" type="line"/>
			<point x="28" y="369" type="line"/>
			<point x="14" y="311" type="line"/>
		</contour>
		<component base="D" xOffset="9"/>
	</outline>
	<anchor name="aboveUC" x="366" y="674"/>
	<anchor name="belowLC" x="226" y="-20"/>
</glyph>
<glyph name="germandbls" format="2">
	<unicode hex="00DF"/>
	<advance width="600"/>
	<outline>
		<contour>
			<point x="354" y="-12" type="curve" smooth="yes"/>
			<point x="466" y="-12"/>
			<point x="538" y="60"/>
			<point x="538" y="152" type="curve"/>
			<point x="538" y="274"/>
			<point x="399" y="299"/>
			<point x="399" y="364" type="curve" smooth="yes"/>
			<point x="399" y="433"/>
			<point x="519" y="459"/>
			<point x="519" y="578" type="curve" smooth="yes"/>
			<point x="519" y="674"/>
			<point x="444" y="718"/>
			<point x="353" y="718" type="curve" smooth="yes"/>
			<point x="228" y="718"/>
			<point x="145" y="634"/>
			<point x="121" y="511" type="curve" smooth="yes"/>
			<point x="19" y="0" type="line"/>
			<point x="126" y="0" type="line"/>
			<point x="223" y="489" type="line" smooth="yes"/>
			<point x="241" y="580"/>
			<point x="286" y="632"/>
			<point x="348" y="632" type="curve" smooth="yes"/>
			<point x="396" y="632"/>
			<point x="415" y="606"/>
			<point x="415" y="564" type="curve" smooth="yes"/>
			<point x="415" y="468"/>
			<point x="294" y="442"/>
			<point x="294" y="345" type="curve"/>
			<point x="294" y="243"/>
			<point x="438" y="222"/>
			<point x="438" y="141" type="curve"/>
			<point x="438" y="98"/>
			<point x="399" y="69"/>
			<point x="351" y="69" type="curve" smooth="yes"/>
			<point x="310" y="69"/>
			<point x="282" y="85"/>
			<point x="252" y="111" type="curve"/>
			<point x="207" y="38" type="line"/>
			<point x="250" y="2"/>
			<point x="303" y="-12"/>
		</contour>
	</outline>
</glyph>
<glyph name="adieresis" format="1">
	<unicode hex="00E4"/>
	<advance width="600"/>
	<outline>
		<component base="a"/>
		<component base="dieresiscmb" xOffset="12"/>
		<contour>
			<point name="ogonekLC" x="392" y="0" type="move"/>
		</contour>
	</outline>
</glyph>
<glyph name="eth" format="2">
	<unicode hex="00F0"/>
	<advance width="600"/>
	<outline>
		<contour>
			<point x="240" y="-12" type="curve" smooth="yes"/>
			<point x="423" y="-12"/>
			<point x="547" y="119"/>
			<point x="547" y="339" type="curve" smooth="yes"/>
			<point x="547" y="535"/>
			<point x="436" y="672"/>
			<point x="281" y="742" type="curve"/>
			<point x="234" y="666" type="line"/>
			<point x="365" y="598"/>
			<point x="443" y="504"/>
			<point x="443" y="343" type="curve" smooth="yes"/>
			<point x="443" y="177"/>
			<point x="367" y="75"/>
			<point x="251" y="75" type="curve" smooth="yes"/>
			<point x="181" y="75"/>
			<point x="136" y="120"/>
			<point x="136" y="197" type="curve" smooth="yes"/>
			<point x="136" y="287"/>
			<point x="201" y="370"/>
			<point x="310" y="370" type="curve" smooth="yes"/>
			<point x="368" y="370"/>
			<point x="418" y="345"/>
			<point x="451" y="289" type="curve"/>
			<point x="460" y="353" type="line"/>
			<point x="437" y="403"/>
			<point x="381" y="449"/>
			<point x="292" y="449" type="curve" smooth="yes"/>
			<point x="152" y="449"/>
			<point x="32" y="347"/>
			<point x="32" y="189" type="curve" smooth="yes"/>
			<point x="32" y="59"/>
			<point x="125" y="-12"/>
		</contour>
		<contour>
			<point x="227" y="493" type="line"/>
			<point x="590" y="663" type="line"/>
			<point x="564" y="720" type="line"/>
			<point x="200" y="550" type="line"/>
		</contour>
	</outline>
</glyph>
<glyph name="oslash" format="1">
	<unicode hex="00F8"/>
	<advance width="600"/>
	<outline>
		<contour>
			<point x="252" y="-12" type="curve" smooth="yes"/>
			<point x="401" y="-12"/>
			<point x="536" y="112"/>
			<point x="536" y="286" type="curve" smooth="yes"/>
			<point x="536" y="416"/>
			<point x="456" y="503"/>
			<point x="325" y="503" type="curve" smooth="yes"/>
			<point x="175" y="503"/>
			<point x="40" y="379"/>
			<point x="40" y="205" type="curve" smooth="yes"/>
			<point x="40" y="75"/>
			<point x="120" y="-12"/>
		</contour>
		<contour>
			<point x="255" y="73" type="curve" smooth="yes"/>
			<point x="183" y="73"/>
			<point x="144" y="127"/>
			<point x="144" y="205" type="curve" smooth="yes"/>
			<point x="144" y="323"/>
			<point x="219" y="418"/>
			<point x="321" y="418" type="curve" smooth="yes"/>
			<point x="393" y="418"/>
			<point x="433" y="365"/>
			<point x="433" y="286" type="curve" smooth="yes"/>
			<point x="433" y="168"/>
			<point x="357" y="73"/>
		</contour>
		<contour>
			<point x="44" y="-29" type="line"/>
			<point x="576" y="475" type="line"/>
			<point x="532" y="520" type="line"/>
			<point x="0" y="16" type="line"/>
		</contour>
		<contour>
			<point name="aboveLC" x="339" y="512" type="move"/>
		</contour>
		<contour>
			<point name="baseLC" x="238" y="0" type="move"/>
		</contour>
		<contour>
			<point name="belowLC" x="234" y="-20" type="move"/>
		</contour>
	</outline>
</glyph>
<glyph name="dcroat" format="2">
	<unicode hex="0111"/>
	<advance width="600"/>
	<outline>
		<contour>
			<point x="200" y="-12" type="curve" smooth="yes"/>
			<point x="260" y="-12"/>
			<point x="322" y="20"/>
			<point x="371" y="71" type="curve"/>
			<point x="375" y="71" type="line"/>
			<point x="370" y="0" type="line"/>
			<point x="458" y="0" type="line"/>
			<point x="600" y="706" type="line"/>
			<point x="493" y="706" type="line"/>
			<point x="455" y="512" type="line"/>
			<point x="440" y="418" type="line"/>
			<point x="438" y="418" type="line"/>
			<point x="411" y="457"/>
			<point x="367" y="483"/>
			<point x="300" y="483" type="curve" smooth="yes"/>
			<point x="152" y="483"/>
			<point x="36" y="344"/>
			<point x="36" y="177" type="curve" smooth="yes"/>
			<point x="36" y="55"/>
			<point x="100" y="-12"/>
		</contour>
		<contour>
			<point x="238" y="76" type="curve" smooth="yes"/>
			<point x="182" y="76"/>
			<point x="147" y="113"/>
			<point x="147" y="192" type="curve" smooth="yes"/>
			<point x="147" y="302"/>
			<point x="219" y="395"/>
			<point x="317" y="395" type="curve" smooth="yes"/>
			<point x="354" y="395"/>
			<point x="393" y="377"/>
			<point x="419" y="335" type="curve"/>
			<point x="383" y="161" type="line"/>
			<point x="337" y="104"/>
			<point x="283" y="76"/>
		</contour>
		<contour>
			<point x="299" y="562" type="line"/>
			<point x="565" y="562" type="line"/>
			<point x="642" y="568" type="line"/>
			<point x="652" y="627" type="line"/>
			<point x="311" y="627" type="line"/>
		</contour>
	</outline>
	<anchor name="aboveUC" x="552" y="734"/>
	<anchor name="belowLC" x="249" y="-20"/>
</glyph>
<glyph name="eogonek" format="2">
	<unicode hex="0119"/>
	<advance width="600"/>
	<outline>
		<contour>
			<point x="332" y="-226" type="curve" smooth="yes"/>
			<point x="374" y="-226"/>
			<point x="410" y="-212"/>
			<point x="437" y="-191" type="curve"/>
			<point x="416" y="-146" type="line"/>
			<point x="400" y="-155"/>
			<point x="387" y="-159"/>
			<point x="369" y="-159" type="curve" smooth="yes"/>
			<point x="341" y="-159"/>
			<point x="316" y="-145"/>
			<point x="316" y="-114" type="curve" smooth="yes"/>
			<point x="316" y="-64"/>
			<point x="380" y="-9"/>
			<point x="487" y="57" type="curve"/>
			<point x="449" y="129" type="line"/>
			<point x="404" y="96"/>
			<point x="352" y="71"/>
			<point x="292" y="71" type="curve" smooth="yes"/>
			<point x="216" y="71"/>
			<point x="161" y="114"/>
			<point x="161" y="208" type="curve" smooth="yes"/>
			<point x="161" y="342"/>
			<point x="254" y="420"/>
			<point x="333" y="420" type="curve" smooth="yes"/>
			<point x="393" y="420"/>
			<point x="431" y="381"/>
			<point x="431" y="315" type="curve" smooth="yes"/>
			<point x="431" y="301"/>
			<point x="429" y="286"/>
			<point x="425" y="273" type="curve"/>
			<point x="461" y="291" type="line"/>
			<point x="148" y="291" type="line"/>
			<point x="136" y="217" type="line"/>
			<point x="516" y="217" type="line"/>
			<point x="521" y="231"/>
			<point x="531" y="274"/>
			<point x="531" y="312" type="curve" smooth="yes"/>
			<point x="531" y="424"/>
			<point x="461" y="503"/>
			<point x="337" y="503" type="curve" smooth="yes"/>
			<point x="187" y="503"/>
			<point x="55" y="380"/>
			<point x="55" y="203" type="curve" smooth="yes"/>
			<point x="55" y="60"/>
			<point x="142" y="-12"/>
			<point x="269" y="-12" type="curve" smooth="yes"/>
			<point x="288" y="-12"/>
			<point x="311" y="-9"/>
			<point x="328" y="-4" type="curve"/>
			<point x="282" y="-40"/>
			<point x="237" y="-85"/>
			<point x="237" y="-145" type="curve" smooth="yes"/>
			<point x="237" y="-201"/>
			<point x="279" y="-226"/>
		</contour>
	</outline>
</glyph>
<glyph name="Hbar" format="1">
	<unicode hex="0126"/>
	<advance width="600"/>
	<outline>
		<contour>
			<point x="42" y="487" type="line"/>
			<point x="626" y="487" type="line"/>
			<point x="640" y="550" type="line"/>
			<point x="123" y="550" type="line"/>
			<point x="53" y="544" type="line"/>
		</contour>
		<component base="H"/>
	</outline>
</glyph>
<glyph name="Iogonek" format="2">
	<unicode hex="012E"/>
	<advance width="600"/>
	<outline>
		<contour>
			<point x="214" y="-226" type="curve" smooth="yes"/>
			<point x="250" y="-226"/>
			<point x="290" y="-214"/>
			<point x="316" y="-195" type="curve"/>
			<point x="293" y="-142" type="line"/>
			<point x="280" y="-150"/>
			<point x="268" y="-155"/>
			<point x="253" y="-155" type="curve" smooth="yes"/>
			<point x="225" y="-155"/>
			<point x="203" y="-141"/>
			<point x="203" y="-114" type="curve" smooth="yes"/>
			<point x="203" y="-79"/>
			<point x="237" y="-30"/>
			<point x="300" y="0" type="curve"/>
			<point x="449" y="0" type="line"/>
			<point x="468" y="91" type="line"/>
			<point x="309" y="91" type="line"/>
			<point x="404" y="563" type="line"/>
			<point x="563" y="563" type="line"/>
			<point x="582" y="654" type="line"/>
			<point x="157" y="654" type="line"/>
			<point x="138" y="563" type="line"/>
			<point x="296" y="563" type="line"/>
			<point x="201" y="91" type="line"/>
			<point x="44" y="91" type="line"/>
			<point x="25" y="0" type="line"/>
			<point x="218" y="0" type="line"/>
			<point x="177" y="-27"/>
			<point x="118" y="-83"/>
			<point x="118" y="-148" type="curve" smooth="yes"/>
			<point x="118" y="-200"/>
			<point x="160" y="-226"/>
		</contour>
	</outline>
	<anchor name="aboveUC" x="372" y="674"/>
</glyph>
<glyph name="dotlessi" format="2">
	<unicode hex="0131"/>
	<advance width="600"/>
	<outline>
		<contour>
			<point x="344" y="-12" type="curve" smooth="yes"/>
			<point x="402" y="-12"/>
			<point x="443" y="0"/>
			<point x="485" y="18" type="curve"/>
			<point x="462" y="99" type="line"/>
			<point x="429" y="85"/>
			<point x="404" y="76"/>
			<point x="376" y="76" type="curve" smooth="yes"/>
			<point x="337" y="76"/>
			<point x="310" y="95"/>
			<point x="310" y="141" type="curve" smooth="yes"/>
			<point x="310" y="150"/>
			<point x="311" y="160"/>
			<point x="314" y="170" type="curve" smooth="yes"/>
			<point x="387" y="491" type="line"/>
			<point x="110" y="491" type="line"/>
			<point x="92" y="406" type="line"/>
			<point x="262" y="406" type="line"/>
			<point x="208" y="177" type="line" smooth="yes"/>
			<point x="203" y="156"/>
			<point x="200" y="138"/>
			<point x="200" y="120" type="curve" smooth="yes"/>
			<point x="200" y="36"/>
			<point x="258" y="-12"/>
		</contour>
	</outline>
	<anchor name="aboveLC" x="320" y="512"/>
	<anchor name="baseLC" x="346" y="0"/>
	<anchor name="belowLC" x="322" y="-20"/>
	<anchor name="ogonekLC" x="354" y="0"/>
</glyph>
<glyph name="IJ" format="1">
	<unicode hex="0132"/>
	<advance width="600"/>
	<outline>
		<contour>
			<point x="27" y="0" type="line"/>
			<point x="135" y="0" type="line"/>
			<point x="266" y="654" type="line"/>
			<point x="158" y="654" type="line"/>
		</contour>
		<contour>
			<point x="284" y="-169" type="curve" smooth="yes"/>
			<point x="383" y="-169"/>
			<point x="430" y="-97"/>
			<point x="450" y="0" type="curve" smooth="yes"/>
			<point x="580" y="654" type="line"/>
			<point x="472" y="654" type="line"/>
			<point x="342" y="2" type="line"/>
			<point x="330" y="-54"/>
			<point x="312" y="-82"/>
			<point x="277" y="-82" type="curve" smooth="yes"/>
			<point x="258" y="-82"/>
			<point x="246" y="-78"/>
			<point x="232" y="-70" type="curve"/>
			<point x="199" y="-148" type="line"/>
			<point x="226" y="-162"/>
			<point x="252" y="-169"/>
		</contour>
	</outline>
</glyph>
<glyph name="ij" format="1">
	<unicode hex="0133"/>
	<advance width="600"/>
	<outline>
		<contour>
			<point x="43" y="0" type="line"/>
			<point x="150" y="0" type="line"/>
			<point x="249" y="491" type="line"/>
			<point x="142" y="491" type="line"/>
		</contour>
		<contour>
			<point x="222" y="578" type="curve" smooth="yes"/>
			<point x="268" y="578"/>
			<point x="307" y="613"/>
			<point x="307" y="659" type="curve" smooth="yes"/>
			<point x="307" y="702"/>
			<point x="276" y="726"/>
			<point x="234" y="726" type="curve" smooth="yes"/>
			<point x="188" y="726"/>
			<point x="149" y="689"/>
			<point x="149" y="644" type="curve" smooth="yes"/>
			<point x="149" y="601"/>
			<point x="184" y="578"/>
		</contour>
		<contour>
			<point x="256" y="-206" type="curve" smooth="yes"/>
			<point x="354" y="-206"/>
			<point x="400" y="-135"/>
			<point x="421" y="-38" type="curve" smooth="yes"/>
			<point x="527" y="491" type="line"/>
			<point x="420" y="491" type="line"/>
			<point x="314" y="-36" type="line" smooth="yes"/>
			<point x="301" y="-92"/>
			<point x="284" y="-120"/>
			<point x="248" y="-120" type="curve" smooth="yes"/>
			<point x="230" y="-120"/>
			<point x="217" y="-116"/>
			<point x="204" y="-108" type="curve"/>
			<point x="170" y="-186" type="line"/>
			<point x="198" y="-200"/>
			<point x="223" y="-206"/>
		</contour>
		<contour>
			<point x="499" y="578" type="curve" smooth="yes"/>
			<point x="545" y="578"/>
			<point x="584" y="613"/>
			<point x="584" y="659" type="curve" smooth="yes"/>
			<point x="584" y="702"/>
			<point x="553" y="726"/>
			<point x="511" y="726" type="curve" smooth="yes"/>
			<point x="465" y="726"/>
			<point x="427" y="689"/>
			<point x="427" y="644" type="curve" smooth="yes"/>
			<point x="427" y="601"/>
			<point x="461" y="578"/>
		</contour>
	</outline>
</glyph>
<glyph name="Lslash" format="2">
	<unicode hex="0141"/>
	<advance width="600"/>
	<outline>
		<contour>
			<point x="52" y="186" type="line"/>
			<point x="154" y="235" type="line"/>
			<point x="230" y="269" type="line"/>
			<point x="497" y="399" type="line"/>
			<point x="470" y="470" type="line"/>
			<point x="248" y="360" type="line"/>
			<point x="172" y="326" type="line"/>
			<point x="25" y="256" type="line"/>
		</contour>
		<component base="L"/>
	</outline>
	<anchor name="aboveUC" x="272" y="674"/>
	<anchor name="belowLC" x="296" y="-20"/>
</glyph>
<glyph name="Eng" format="1">
	<unicode hex="014A"/>
	<advance width="600"/>
	<outline>
		<contour>
			<point x="321" y="-12" type="curve" smooth="yes"/>
			<point x="466" y="-12"/>
			<point x="562" y="200"/>
			<point x="562" y="438" type="curve" smooth="yes"/>
			<point x="562" y="601"/>
			<point x="496" y="666"/>
			<point x="400" y="666" type="curve" smooth="yes"/>
			<point x="345" y="666"/>
			<point x="278" y="635"/>
			<point x="231" y="587" type="curve"/>
			<point x="244" y="654" type="line"/>
			<point x="141" y="654" type="line"/>
			<point x="10" y="0" type="line"/>
			<point x="118" y="0" type="line"/>
			<point x="215" y="491" type="line"/>
			<point x="266" y="545"/>
			<point x="321" y="573"/>
			<point x="360" y="573" type="curve" smooth="yes"/>
			<point x="415" y="573"/>
			<point x="452" y="535"/>
			<point x="452" y="430" type="curve" smooth="yes"/>
			<point x="452" y="258"/>
			<point x="384" y="81"/>
			<point x="310" y="81" type="curve" smooth="yes"/>
			<point x="293" y="81"/>
			<point x="281" y="86"/>
			<point x="271" y="92" type="curve"/>
			<point x="230" y="7" type="line"/>
			<point x="249" y="-5"/>
			<point x="289" y="-12"/>
		</contour>
		<contour>
			<point name="aboveUC" x="380" y="674" type="move"/>
		</contour>
		<contour>
			<point name="belowLC" x="250" y="-20" type="move"/>
		</contour>
	</outline>
</glyph>
<glyph name="oe" format="1">
	<unicode hex="0153"/>
	<advance width="600"/>
	<outline>
		<contour>
			<point x="127" y="-12" type="curve" smooth="yes"/>
			<point x="193" y="-12"/>
			<point x="247" y="18"/>
			<point x="288" y="88" type="curve"/>
			<point x="271" y="97" type="line"/>
			<point x="279" y="25"/>
			<point x="336" y="-12"/>
			<point x="398" y="-12" type="curve" smooth="yes"/>
			<point x="454" y="-12"/>
			<point x="509" y="9"/>
			<point x="547" y="38" type="curve"/>
			<point x="515" y="108" type="line"/>
			<point x="487" y="88"/>
			<point x="455" y="71"/>
			<point x="415" y="71" type="curve" smooth="yes"/>
			<point x="365" y="71"/>
			<point x="333" y="101"/>
			<point x="333" y="173" type="curve" smooth="yes"/>
			<point x="333" y="295"/>
			<point x="390" y="420"/>
			<point x="460" y="420" type="curve" smooth="yes"/>
			<point x="501" y="420"/>
			<point x="513" y="386"/>
			<point x="513" y="341" type="curve" smooth="yes"/>
			<point x="513" y="321"/>
			<point x="510" y="299"/>
			<point x="504" y="278" type="curve"/>
			<point x="518" y="291" type="line"/>
			<point x="323" y="291" type="line"/>
			<point x="318" y="217" type="line"/>
			<point x="575" y="217" type="line"/>
			<point x="582" y="238"/>
			<point x="598" y="290"/>
			<point x="598" y="343" type="curve" smooth="yes"/>
			<point x="598" y="441"/>
			<point x="559" y="503"/>
			<point x="478" y="503" type="curve" smooth="yes"/>
			<point x="421" y="503"/>
			<point x="359" y="466"/>
			<point x="324" y="388" type="curve"/>
			<point x="336" y="385" type="line"/>
			<point x="328" y="461"/>
			<point x="291" y="503"/>
			<point x="225" y="503" type="curve" smooth="yes"/>
			<point x="102" y="503"/>
			<point x="-9" y="372"/>
			<point x="-9" y="176" type="curve" smooth="yes"/>
			<point x="-9" y="58"/>
			<point x="43" y="-12"/>
		</contour>
		<contour>
			<point x="88" y="181" type="curve" smooth="yes"/>
			<point x="88" y="282"/>
			<point x="139" y="416"/>
			<point x="216" y="416" type="curve" smooth="yes"/>
			<point x="254" y="416"/>
			<point x="273" y="374"/>
			<point x="273" y="308" type="curve" smooth="yes"/>
			<point x="273" y="191"/>
			<point x="220" y="74"/>
			<point x="149" y="74" type="curve" smooth="yes"/>
			<point x="108" y="74"/>
			<point x="88" y="117"/>
		</contour>
		<contour>
			<point name="aboveLC" x="340" y="512" type="move"/>
		</contour>
		<contour>
			<point name="baseLC" x="402" y="0" type="move"/>
		</contour>
		<contour>
			<point name="belowLC" x="270" y="-20" type="move"/>
		</contour>
	</outline>
</glyph>
<glyph name="Tbar" format="1">
	<unicode hex="0166"/>
	<advance width="600"/>
	<outline>
		<contour>
			<point x="111" y="309" type="line"/>
			<point x="486" y="309" type="line"/>
			<point x="499" y="372" type="line"/>
			<point x="197" y="372" type="line"/>
			<point x="123" y="366" type="line"/>
		</contour>
		<component base="T"/>
		<contour>
			<point name="aboveUC" x="372" y="674" type="move"/>
		</contour>
		<contour>
			<point name="belowLC" x="235" y="-20" type="move"/>
		</contour>
	</outline>
</glyph>
<glyph name="tbar" format="1">
	<unicode hex="0167"/>
	<advance width="600"/>
	<outline>
		<contour>
			<point x="34" y="222" type="line"/>
			<point x="488" y="222" type="line"/>
			<point x="501" y="288" type="line"/>
			<point x="180" y="288" type="line"/>
			<point x="47" y="283" type="line"/>
		</contour>
		<component base="t"/>
		<contour>
			<point name="aboveLC" x="308" y="638" type="move"/>
		</contour>
		<contour>
			<point name="belowLC" x="307" y="-20" type="move"/>
		</contour>
	</outline>
</glyph>
<glyph name="Uogonek" format="2">
	<unicode hex="0172"/>
	<advance width="600"/>
	<outline>
		<contour>
			<point x="214" y="-226" type="curve" smooth="yes"/>
			<point x="249" y="-226"/>
			<point x="289" y="-214"/>
			<point x="315" y="-195" type="curve"/>
			<point x="292" y="-142" type="line"/>
			<point x="279" y="-150"/>
			<point x="267" y="-155"/>
			<point x="252" y="-155" type="curve" smooth="yes"/>
			<point x="224" y="-155"/>
			<point x="202" y="-141"/>
			<point x="202" y="-114" type="curve" smooth="yes"/>
			<point x="202" y="-78"/>
			<point x="242" y="-32"/>
			<point x="320" y="-8" type="curve" smooth="yes"/>
			<point x="431" y="29"/>
			<point x="485" y="103"/>
			<point x="515" y="253" type="curve" smooth="yes"/>
			<point x="595" y="654" type="line"/>
			<point x="489" y="654" type="line"/>
			<point x="411" y="261" type="line" smooth="yes"/>
			<point x="384" y="124"/>
			<point x="334" y="81"/>
			<point x="266" y="81" type="curve" smooth="yes"/>
			<point x="199" y="81"/>
			<point x="164" y="124"/>
			<point x="164" y="200" type="curve" smooth="yes"/>
			<point x="164" y="225"/>
			<point x="169" y="252"/>
			<point x="175" y="281" type="curve" smooth="yes"/>
			<point x="250" y="654" type="line"/>
			<point x="142" y="654" type="line"/>
			<point x="69" y="290" type="line" smooth="yes"/>
			<point x="62" y="254"/>
			<point x="58" y="224"/>
			<point x="58" y="190" type="curve" smooth="yes"/>
			<point x="58" y="71"/>
			<point x="119" y="5"/>
			<point x="211" y="-9" type="curve"/>
			<point x="168" y="-36"/>
			<point x="117" y="-90"/>
			<point x="117" y="-148" type="curve" smooth="yes"/>
			<point x="117" y="-200"/>
			<point x="159" y="-226"/>
		</contour>
	</outline>
	<anchor name="aboveUC" x="372" y="675"/>
</glyph>
<glyph name="uogonek" format="1">
	<unicode hex="0173"/>
	<advance width="600"/>
	<outline>
		<contour>
			<point x="355" y="-226" type="curve" smooth="yes"/>
			<point x="397" y="-226"/>
			<point x="433" y="-212"/>
			<point x="459" y="-191" type="curve"/>
			<point x="439" y="-146" type="line"/>
			<point x="423" y="-155"/>
			<point x="410" y="-160"/>
			<point x="392" y="-160" type="curve" smooth="yes"/>
			<point x="364" y="-160"/>
			<point x="339" y="-145"/>
			<point x="339" y="-114" type="curve" smooth="yes"/>
			<point x="339" y="-75"/>
			<point x="374" y="-34"/>
			<point x="458" y="-3" type="curve"/>
			<point x="556" y="491" type="line"/>
			<point x="449" y="491" type="line"/>
			<point x="388" y="183" type="line"/>
			<point x="332" y="117"/>
			<point x="275" y="80"/>
			<point x="221" y="80" type="curve" smooth="yes"/>
			<point x="180" y="80"/>
			<point x="157" y="102"/>
			<point x="157" y="143" type="curve" smooth="yes"/>
			<point x="157" y="161"/>
			<point x="161" y="179"/>
			<point x="166" y="202" type="curve" smooth="yes"/>
			<point x="224" y="491" type="line"/>
			<point x="116" y="491" type="line"/>
			<point x="56" y="189" type="line" smooth="yes"/>
			<point x="51" y="164"/>
			<point x="47" y="138"/>
			<point x="47" y="112" type="curve" smooth="yes"/>
			<point x="47" y="34"/>
			<point x="90" y="-12"/>
			<point x="174" y="-12" type="curve" smooth="yes"/>
			<point x="252" y="-12"/>
			<point x="323" y="39"/>
			<point x="377" y="92" type="curve"/>
			<point x="381" y="92" type="line"/>
			<point x="372" y="1" type="line"/>
			<point x="321" y="-26"/>
			<point x="260" y="-77"/>
			<point x="260" y="-145" type="curve" smooth="yes"/>
			<point x="260" y="-200"/>
			<point x="302" y="-226"/>
		</contour>
		<contour>
			<point name="aboveLC" x="336" y="512" type="move"/>
		</contour>
	</outline>
</glyph>
<glyph name="longs" format="2">
	<unicode hex="017F"/>
	<advance width="600"/>
	<outline>
		<contour>
			<point x="156" y="0" type="line"/>
			<point x="264" y="0" type="line"/>
			<point x="368" y="526" type="line" smooth="yes"/>
			<point x="384" y="603"/>
			<point x="428" y="632"/>
			<point x="489" y="632" type="curve" smooth="yes"/>
			<point x="529" y="632"/>
			<point x="557" y="621"/>
			<point x="586" y="600" type="curve"/>
			<point x="635" y="668" type="line"/>
			<point x="602" y="694"/>
			<point x="552" y="718"/>
			<point x="485" y="718" type="curve" smooth="yes"/>
			<point x="366" y="718"/>
			<point x="288" y="658"/>
			<point x="262" y="528" type="curve" smooth="yes"/>
		</contour>
		<contour>
			<point x="101" y="406" type="line"/>
			<point x="293" y="406" type="line"/>
			<point x="310" y="491" type="line"/>
			<point x="256" y="491" type="line"/>
			<point x="117" y="486" type="line"/>
		</contour>
	</outline>
</glyph>
<glyph name="Dhook" format="1">
	<unicode hex="018A"/>
	<advance width="600"/>
	<outline>
		<contour>
			<point x="129" y="0" type="line"/>
			<point x="214" y="0" type="line" smooth="yes"/>
			<point x="442" y="0"/>
			<point x="593" y="169"/>
			<point x="593" y="422" type="curve" smooth="yes"/>
			<point x="593" y="582"/>
			<point x="496" y="667"/>
			<point x="329" y="667" type="curve" smooth="yes"/>
			<point x="130" y="667"/>
			<point x="24" y="531"/>
			<point x="24" y="396" type="curve" smooth="yes"/>
			<point x="24" y="330"/>
			<point x="53" y="286"/>
			<point x="101" y="260" type="curve"/>
			<point x="156" y="328" type="line"/>
			<point x="126" y="348"/>
			<point x="111" y="374"/>
			<point x="111" y="411" type="curve" smooth="yes"/>
			<point x="111" y="496"/>
			<point x="172" y="579"/>
			<point x="287" y="579" type="curve" smooth="yes"/>
			<point x="335" y="579" type="line" smooth="yes"/>
			<point x="438" y="579"/>
			<point x="482" y="522"/>
			<point x="482" y="415" type="curve" smooth="yes"/>
			<point x="482" y="212"/>
			<point x="367" y="87"/>
			<point x="252" y="87" type="curve" smooth="yes"/>
			<point x="246" y="87" type="line"/>
			<point x="349" y="605" type="line"/>
			<point x="249" y="605" type="line"/>
		</contour>
		<contour>
			<point name="aboveUC" x="386" y="674" type="move"/>
		</contour>
		<contour>
			<point name="belowLC" x="274" y="-20" type="move"/>
		</contour>
	</outline>
</glyph>
<glyph name="Ghook" format="2">
	<unicode hex="0193"/>
	<advance width="600"/>
	<outline>
		<contour>
			<point x="573" y="566" type="line"/>
			<point x="557" y="598"/>
			<point x="547" y="624"/>
			<point x="547" y="663" type="curve" smooth="yes"/>
			<point x="547" y="699"/>
			<point x="570" y="723"/>
			<point x="602" y="723" type="curve" smooth="yes"/>
			<point x="613" y="723"/>
			<point x="622" y="720"/>
			<point x="634" y="712" type="curve"/>
			<point x="669" y="787" type="line"/>
			<point x="649" y="798"/>
			<point x="622" y="808"/>
			<point x="589" y="808" type="curve" smooth="yes"/>
			<point x="509" y="808"/>
			<point x="460" y="748"/>
			<point x="460" y="676" type="curve" smooth="yes"/>
			<point x="460" y="650"/>
			<point x="465" y="619"/>
			<point x="472" y="586" type="curve"/>
		</contour>
		<component base="G"/>
	</outline>
</glyph>
<glyph name="Uhorn" format="2">
	<unicode hex="01AF"/>
	<advance width="600"/>
	<outline>
		<contour>
			<point x="580" y="610" type="line"/>
			<point x="670" y="624"/>
			<point x="724" y="669"/>
			<point x="724" y="752" type="curve" smooth="yes"/>
			<point x="724" y="774"/>
			<point x="719" y="799"/>
			<point x="709" y="824" type="curve"/>
			<point x="626" y="797" type="line"/>
			<point x="633" y="780"/>
			<point x="636" y="758"/>
			<point x="636" y="742" type="curve" smooth="yes"/>
			<point x="636" y="690"/>
			<point x="603" y="658"/>
			<point x="541" y="653" type="curve"/>
		</contour>
		<component base="U"/>
	</outline>
	<anchor name="aboveUC" x="372" y="674"/>
	<anchor name="belowLC" x="232" y="-20"/>
</glyph>
<glyph name="uhorn" format="1">
	<unicode hex="01B0"/>
	<advance width="600"/>
	<outline>
		<contour>
			<point x="541" y="448" type="line"/>
			<point x="609" y="466"/>
			<point x="666" y="522"/>
			<point x="666" y="604" type="curve" smooth="yes"/>
			<point x="666" y="630"/>
			<point x="663" y="649"/>
			<point x="653" y="677" type="curve"/>
			<point x="571" y="650" type="line"/>
			<point x="577" y="632"/>
			<point x="580" y="616"/>
			<point x="580" y="599" type="curve" smooth="yes"/>
			<point x="580" y="540"/>
			<point x="542" y="496"/>
			<point x="496" y="491" type="curve"/>
		</contour>
		<component base="u"/>
		<contour>
			<point name="aboveLC" x="336" y="512" type="move"/>
		</contour>
		<contour>
			<point name="belowLC" x="248" y="-20" type="move"/>
		</contour>
	</outline>
</glyph>
<glyph name="Oogonek" format="1">
	<unicode hex="01EA"/>
	<advance width="600"/>
	<outline>
		<contour>
			<point x="214" y="-226" type="curve" smooth="yes"/>
			<point x="249" y="-226"/>
			<point x="289" y="-214"/>
			<point x="315" y="-195" type="curve"/>
			<point x="292" y="-142" type="line"/>
			<point x="279" y="-150"/>
			<point x="267" y="-155"/>
			<point x="252" y="-155" type="curve" smooth="yes"/>
			<point x="224" y="-155"/>
			<point x="202" y="-141"/>
			<point x="202" y="-114" type="curve" smooth="yes"/>
			<point x="202" y="-84"/>
			<point x="234" y="-25"/>
			<point x="308" y="-8" type="curve" smooth="yes"/>
			<point x="476" y="31"/>
			<point x="572" y="216"/>
			<point x="572" y="404" type="curve" smooth="yes"/>
			<point x="572" y="564"/>
			<point x="490" y="666"/>
			<point x="356" y="666" type="curve" smooth="yes"/>
			<point x="162" y="666"/>
			<point x="36" y="467"/>
			<point x="36" y="250" type="curve" smooth="yes"/>
			<point x="36" y="97"/>
			<point x="108" y="10"/>
			<point x="212" y="-10" type="curve"/>
			<point x="166" y="-39"/>
			<point x="117" y="-91"/>
			<point x="117" y="-148" type="curve" smooth="yes"/>
			<point x="117" y="-200"/>
			<point x="159" y="-226"/>
		</contour>
		<contour>
			<point x="263" y="79" type="curve" smooth="yes"/>
			<point x="184" y="79"/>
			<point x="146" y="138"/>
			<point x="146" y="242" type="curve" smooth="yes"/>
			<point x="146" y="410"/>
			<point x="224" y="573"/>
			<point x="346" y="573" type="curve" smooth="yes"/>
			<point x="425" y="573"/>
			<point x="462" y="514"/>
			<point x="462" y="412" type="curve" smooth="yes"/>
			<point x="462" y="240"/>
			<point x="385" y="79"/>
		</contour>
		<contour>
			<point name="aboveUC" x="372" y="674" type="move"/>
		</contour>
	</outline>
</glyph>
<glyph name="Aringacute" format="2">
	<unicode hex="01FA"/>
	<advance width="600"/>
	<outline>
		<contour>
			<point x="385" y="839" type="line"/>
			<point x="542" y="927" type="line"/>
			<point x="493" y="987" type="line"/>
			<point x="338" y="865" type="line"/>
		</contour>
		<component base="Aring"/>
	</outline>
</glyph>
<glyph name="ccurl" format="1">
	<unicode hex="0255"/>
	<advance width="600"/>
	<outline>
		<contour>
			<point x="107" y="-98" type="line"/>
			<point x="191" y="67"/>
			<point x="293" y="165"/>
			<point x="378" y="165" type="curve" smooth="yes"/>
			<point x="413" y="165"/>
			<point x="426" y="150"/>
			<point x="426" y="133" type="curve" smooth="yes"/>
			<point x="426" y="101"/>
			<point x="386" y="72"/>
			<point x="324" y="72" type="curve" smooth="yes"/>
			<point x="240" y="72"/>
			<point x="167" y="118"/>
			<point x="167" y="214" type="curve" smooth="yes"/>
			<point x="167" y="328"/>
			<point x="263" y="420"/>
			<point x="353" y="420" type="curve" smooth="yes"/>
			<point x="407" y="420"/>
			<point x="450" y="398"/>
			<point x="484" y="358" type="curve"/>
			<point x="548" y="414" type="line"/>
			<point x="513" y="460"/>
			<point x="448" y="503"/>
			<point x="362" y="503" type="curve" smooth="yes"/>
			<point x="205" y="503"/>
			<point x="64" y="383"/>
			<point x="64" y="204" type="curve" smooth="yes"/>
			<point x="64" y="64"/>
			<point x="184" y="-12"/>
			<point x="308" y="-12" type="curve" smooth="yes"/>
			<point x="437" y="-12"/>
			<point x="512" y="59"/>
			<point x="512" y="148" type="curve" smooth="yes"/>
			<point x="512" y="205"/>
			<point x="472" y="242"/>
			<point x="395" y="242" type="curve" smooth="yes"/>
			<point x="272" y="242"/>
			<point x="138" y="138"/>
			<point x="27" y="-59" type="curve"/>
		</contour>
		<contour>
			<point name="aboveLC" x="380" y="512" type="move"/>
		</contour>
		<contour>
			<point name="belowLC" x="298" y="-20" type="move"/>
		</contour>
	</outline>
</glyph>
<glyph name="dhook" format="1">
	<unicode hex="0257"/>
	<advance width="600"/>
	<outline>
		<contour>
			<point x="207" y="-12" type="curve" smooth="yes"/>
			<point x="267" y="-12"/>
			<point x="329" y="20"/>
			<point x="378" y="71" type="curve"/>
			<point x="382" y="71" type="line"/>
			<point x="377" y="0" type="line"/>
			<point x="465" y="0" type="line"/>
			<point x="575" y="548" type="line" smooth="yes"/>
			<point x="586" y="600"/>
			<point x="603" y="627"/>
			<point x="641" y="627" type="curve" smooth="yes"/>
			<point x="650" y="627"/>
			<point x="657" y="625"/>
			<point x="667" y="622" type="curve"/>
			<point x="704" y="708" type="line"/>
			<point x="690" y="714"/>
			<point x="670" y="718"/>
			<point x="644" y="718" type="curve" smooth="yes"/>
			<point x="545" y="718"/>
			<point x="492" y="658"/>
			<point x="475" y="572" type="curve" smooth="yes"/>
			<point x="452" y="438" type="line"/>
			<point x="449" y="438" type="line"/>
			<point x="422" y="478"/>
			<point x="377" y="503"/>
			<point x="310" y="503" type="curve" smooth="yes"/>
			<point x="166" y="503"/>
			<point x="43" y="355"/>
			<point x="43" y="177" type="curve" smooth="yes"/>
			<point x="43" y="55"/>
			<point x="108" y="-12"/>
		</contour>
		<contour>
			<point x="245" y="76" type="curve" smooth="yes"/>
			<point x="190" y="76"/>
			<point x="154" y="113"/>
			<point x="154" y="192" type="curve" smooth="yes"/>
			<point x="154" y="313"/>
			<point x="232" y="415"/>
			<point x="327" y="415" type="curve" smooth="yes"/>
			<point x="364" y="415"/>
			<point x="404" y="398"/>
			<point x="430" y="356" type="curve"/>
			<point x="390" y="162" type="line"/>
			<point x="344" y="105"/>
			<point x="290" y="76"/>
		</contour>
		<contour>
			<point name="aboveUC" x="444" y="734" type="move"/>
		</contour>
		<contour>
			<point name="belowLC" x="249" y="-20" type="move"/>
		</contour>
	</outline>
</glyph>
<glyph name="eopen" format="2">
	<unicode hex="025B"/>
	<advance width="600"/>
	<outline>
		<contour>
			<point x="255" y="-12" type="curve" smooth="yes"/>
			<point x="338" y="-12"/>
			<point x="400" y="-3"/>
			<point x="481" y="47" type="curve"/>
			<point x="450" y="121" type="line"/>
			<point x="388" y="84"/>
			<point x="338" y="71"/>
			<point x="283" y="71" type="curve" smooth="yes"/>
			<point x="211" y="71"/>
			<point x="161" y="103"/>
			<point x="161" y="145" type="curve" smooth="yes"/>
			<point x="161" y="196"/>
			<point x="208" y="217"/>
			<point x="295" y="217" type="curve"/>
			<point x="386" y="217" type="line"/>
			<point x="401" y="291" type="line"/>
			<point x="324" y="291" type="line"/>
			<point x="255" y="291"/>
			<point x="228" y="311"/>
			<point x="228" y="348" type="curve" smooth="yes"/>
			<point x="228" y="387"/>
			<point x="269" y="420"/>
			<point x="339" y="420" type="curve" smooth="yes"/>
			<point x="402" y="420"/>
			<point x="446" y="398"/>
			<point x="493" y="360" type="curve"/>
			<point x="550" y="434" type="line"/>
			<point x="498" y="478"/>
			<point x="428" y="503"/>
			<point x="346" y="503" type="curve" smooth="yes"/>
			<point x="221" y="503"/>
			<point x="117" y="449"/>
			<point x="117" y="358" type="curve" smooth="yes"/>
			<point x="117" y="317"/>
			<point x="139" y="283"/>
			<point x="195" y="263" type="curve"/>
			<point x="194" y="259" type="line"/>
			<point x="112" y="247"/>
			<point x="50" y="202"/>
			<point x="50" y="125" type="curve" smooth="yes"/>
			<point x="50" y="39"/>
			<point x="144" y="-12"/>
		</contour>
	</outline>
	<anchor name="aboveLC" x="358" y="512"/>
	<anchor name="baseLC" x="253" y="0"/>
	<anchor name="belowLC" x="246" y="-20"/>
</glyph>
<glyph name="eopenreversed" format="1">
	<unicode hex="025C"/>
	<advance width="600"/>
	<outline>
		<contour>
			<point x="256" y="-12" type="curve" smooth="yes"/>
			<point x="390" y="-12"/>
			<point x="494" y="53"/>
			<point x="494" y="150" type="curve" smooth="yes"/>
			<point x="494" y="199"/>
			<point x="461" y="242"/>
			<point x="407" y="259" type="curve"/>
			<point x="408" y="263" type="line"/>
			<point x="471" y="278"/>
			<point x="516" y="318"/>
			<point x="516" y="381" type="curve" smooth="yes"/>
			<point x="516" y="462"/>
			<point x="426" y="503"/>
			<point x="323" y="503" type="curve" smooth="yes"/>
			<point x="255" y="503"/>
			<point x="186" y="490"/>
			<point x="114" y="448" type="curve"/>
			<point x="145" y="374" type="line"/>
			<point x="199" y="402"/>
			<point x="256" y="420"/>
			<point x="297" y="420" type="curve" smooth="yes"/>
			<point x="362" y="420"/>
			<point x="405" y="400"/>
			<point x="405" y="359" type="curve" smooth="yes"/>
			<point x="405" y="316"/>
			<point x="359" y="291"/>
			<point x="288" y="291" type="curve" smooth="yes"/>
			<point x="204" y="291" type="line"/>
			<point x="189" y="217" type="line"/>
			<point x="270" y="217" type="line" smooth="yes"/>
			<point x="348" y="217"/>
			<point x="383" y="194"/>
			<point x="383" y="153" type="curve" smooth="yes"/>
			<point x="383" y="109"/>
			<point x="336" y="73"/>
			<point x="261" y="73" type="curve" smooth="yes"/>
			<point x="196" y="73"/>
			<point x="144" y="94"/>
			<point x="93" y="133" type="curve"/>
			<point x="35" y="58" type="line"/>
			<point x="96" y="9"/>
			<point x="171" y="-12"/>
		</contour>
		<contour>
			<point name="aboveLC" x="334" y="512" type="move"/>
		</contour>
		<contour>
			<point name="belowLC" x="246" y="-20" type="move"/>
		</contour>
	</outline>
</glyph>
<glyph name="dotlessjstroke" format="2">
	<unicode hex="025F"/>
	<advance width="600"/>
	<outline>
		<contour>
			<point x="111" y="202" type="line"/>
			<point x="540" y="202" type="line"/>
			<point x="554" y="268" type="line"/>
			<point x="311" y="268" type="line"/>
			<point x="122" y="262" type="line"/>
		</contour>
		<component base="dotlessj"/>
	</outline>
</glyph>
<glyph name="ghook" format="1">
	<unicode hex="0260"/>
	<advance width="600"/>
	<outline>
		<contour>
			<point x="204" y="-206" type="curve" smooth="yes"/>
			<point x="327" y="-206"/>
			<point x="434" y="-154"/>
			<point x="463" y="-8" type="curve" smooth="yes"/>
			<point x="560" y="472" type="line" smooth="yes"/>
			<point x="570" y="525"/>
			<point x="588" y="551"/>
			<point x="626" y="551" type="curve" smooth="yes"/>
			<point x="635" y="551"/>
			<point x="642" y="550"/>
			<point x="652" y="546" type="curve"/>
			<point x="689" y="632" type="line"/>
			<point x="674" y="639"/>
			<point x="655" y="643"/>
			<point x="628" y="643" type="curve" smooth="yes"/>
			<point x="529" y="643"/>
			<point x="477" y="582"/>
			<point x="460" y="496" type="curve" smooth="yes"/>
			<point x="452" y="440" type="line"/>
			<point x="449" y="440" type="line"/>
			<point x="422" y="479"/>
			<point x="377" y="505"/>
			<point x="310" y="505" type="curve" smooth="yes"/>
			<point x="170" y="505"/>
			<point x="48" y="368"/>
			<point x="48" y="193" type="curve" smooth="yes"/>
			<point x="48" y="79"/>
			<point x="113" y="10"/>
			<point x="217" y="10" type="curve" smooth="yes"/>
			<point x="275" y="10"/>
			<point x="336" y="39"/>
			<point x="379" y="80" type="curve"/>
			<point x="383" y="80" type="line"/>
			<point x="362" y="-8" type="line" smooth="yes"/>
			<point x="340" y="-93"/>
			<point x="276" y="-120"/>
			<point x="203" y="-120" type="curve" smooth="yes"/>
			<point x="151" y="-120"/>
			<point x="95" y="-101"/>
			<point x="57" y="-68" type="curve"/>
			<point x="9" y="-144" type="line"/>
			<point x="56" y="-180"/>
			<point x="119" y="-206"/>
		</contour>
		<contour>
			<point x="252" y="98" type="curve" smooth="yes"/>
			<point x="193" y="98"/>
			<point x="159" y="133"/>
			<point x="159" y="210" type="curve" smooth="yes"/>
			<point x="159" y="326"/>
			<point x="240" y="415"/>
			<point x="325" y="415" type="curve" smooth="yes"/>
			<point x="366" y="415"/>
			<point x="402" y="396"/>
			<point x="430" y="354" type="curve"/>
			<point x="391" y="171" type="line"/>
			<point x="348" y="124"/>
			<point x="298" y="98"/>
		</contour>
		<contour>
			<point name="aboveLC" x="336" y="560" type="move"/>
		</contour>
		<contour>
			<point name="belowLC" x="268" y="-212" type="move"/>
		</contour>
	</outline>
</glyph>
<glyph name="gscript" format="1">
	<unicode hex="0261"/>
	<advance width="600"/>
	<outline>
		<component base="g"/>
		<contour>
			<point name="aboveLC" x="351" y="512" type="move"/>
		</contour>
		<contour>
			<point name="belowLC" x="218" y="-212" type="move"/>
		</contour>
	</outline>
</glyph>
<glyph name="ramshorn" format="1">
	<unicode hex="0264"/>
	<advance width="600"/>
	<outline>
		<contour>
			<point x="238" y="-12" type="curve" smooth="yes"/>
			<point x="370" y="-12"/>
			<point x="454" y="82"/>
			<point x="454" y="194" type="curve" smooth="yes"/>
			<point x="454" y="250"/>
			<point x="426" y="306"/>
			<point x="386" y="356" type="curve"/>
			<point x="424" y="393"/>
			<point x="457" y="416"/>
			<point x="490" y="416" type="curve" smooth="yes"/>
			<point x="508" y="416"/>
			<point x="523" y="410"/>
			<point x="533" y="401" type="curve"/>
			<point x="583" y="478" type="line"/>
			<point x="564" y="494"/>
			<point x="527" y="503"/>
			<point x="494" y="503" type="curve" smooth="yes"/>
			<point x="441" y="503"/>
			<point x="379" y="474"/>
			<point x="322" y="420" type="curve"/>
			<point x="287" y="474"/>
			<point x="237" y="503"/>
			<point x="185" y="503" type="curve" smooth="yes"/>
			<point x="151" y="503"/>
			<point x="111" y="495"/>
			<point x="87" y="479" type="curve"/>
			<point x="104" y="402" type="line"/>
			<point x="117" y="410"/>
			<point x="134" y="416"/>
			<point x="152" y="416" type="curve" smooth="yes"/>
			<point x="183" y="416"/>
			<point x="212" y="395"/>
			<point x="236" y="356" type="curve"/>
			<point x="148" y="284"/>
			<point x="88" y="205"/>
			<point x="88" y="121" type="curve" smooth="yes"/>
			<point x="88" y="36"/>
			<point x="145" y="-12"/>
		</contour>
		<contour>
			<point x="254" y="76" type="curve" smooth="yes"/>
			<point x="213" y="76"/>
			<point x="192" y="104"/>
			<point x="192" y="140" type="curve" smooth="yes"/>
			<point x="192" y="196"/>
			<point x="239" y="255"/>
			<point x="301" y="303" type="curve"/>
			<point x="330" y="268"/>
			<point x="351" y="226"/>
			<point x="351" y="185" type="curve" smooth="yes"/>
			<point x="351" y="127"/>
			<point x="314" y="76"/>
		</contour>
		<contour>
			<point name="aboveLC" x="336" y="512" type="move"/>
		</contour>
		<contour>
			<point name="belowLC" x="235" y="-20" type="move"/>
		</contour>
	</outline>
</glyph>
<glyph name="henghook" format="2">
	<unicode hex="0267"/>
	<advance width="600"/>
	<outline>
		<contour>
			<point x="299" y="-185" type="curve" smooth="yes"/>
			<point x="399" y="-185"/>
			<point x="444" y="-117"/>
			<point x="464" y="-19" type="curve" smooth="yes"/>
			<point x="526" y="290" type="line" smooth="yes"/>
			<point x="531" y="316"/>
			<point x="535" y="341"/>
			<point x="535" y="367" type="curve" smooth="yes"/>
			<point x="535" y="445"/>
			<point x="492" y="491"/>
			<point x="408" y="491" type="curve" smooth="yes"/>
			<point x="331" y="491"/>
			<point x="264" y="445"/>
			<point x="209" y="390" type="curve"/>
			<point x="205" y="390" type="line"/>
			<point x="236" y="517" type="line"/>
			<point x="256" y="599"/>
			<point x="295" y="628"/>
			<point x="355" y="628" type="curve" smooth="yes"/>
			<point x="379" y="628"/>
			<point x="401" y="622"/>
			<point x="422" y="610" type="curve"/>
			<point x="460" y="695" type="line"/>
			<point x="434" y="708"/>
			<point x="400" y="718"/>
			<point x="357" y="718" type="curve" smooth="yes"/>
			<point x="222" y="718"/>
			<point x="154" y="638"/>
			<point x="129" y="515" type="curve"/>
			<point x="26" y="0" type="line"/>
			<point x="133" y="0" type="line"/>
			<point x="192" y="296" type="line"/>
			<point x="248" y="362"/>
			<point x="307" y="399"/>
			<point x="361" y="399" type="curve" smooth="yes"/>
			<point x="402" y="399"/>
			<point x="425" y="378"/>
			<point x="425" y="337" type="curve" smooth="yes"/>
			<point x="425" y="319"/>
			<point x="421" y="300"/>
			<point x="416" y="277" type="curve" smooth="yes"/>
			<point x="358" y="-15" type="line" smooth="yes"/>
			<point x="346" y="-74"/>
			<point x="328" y="-99"/>
			<point x="292" y="-99" type="curve" smooth="yes"/>
			<point x="273" y="-99"/>
			<point x="260" y="-94"/>
			<point x="247" y="-86" type="curve"/>
			<point x="214" y="-164" type="line"/>
			<point x="241" y="-178"/>
			<point x="266" y="-185"/>
		</contour>
	</outline>
	<anchor name="aboveUC" x="330" y="734"/>
</glyph>
<glyph name="ismall" format="2">
	<unicode hex="026A"/>
	<advance width="600"/>
	<outline>
		<contour>
			<point x="33" y="0" type="line"/>
			<point x="447" y="0" type="line"/>
			<point x="465" y="91" type="line"/>
			<point x="312" y="91" type="line"/>
			<point x="374" y="400" type="line"/>
			<point x="527" y="400" type="line"/>
			<point x="545" y="491" type="line"/>
			<point x="130" y="491" type="line"/>
			<point x="112" y="400" type="line"/>
			<point x="263" y="400" type="line"/>
			<point x="201" y="91" type="line"/>
			<point x="51" y="91" type="line"/>
		</contour>
	</outline>
	<anchor name="aboveLC" x="339" y="512"/>
	<anchor name="belowLC" x="234" y="-20"/>
</glyph>
<glyph name="nretroflex" format="1">
	<unicode hex="0273"/>
	<advance width="600"/>
	<outline>
		<contour>
			<point x="442" y="-185" type="curve" smooth="yes"/>
			<point x="479" y="-185"/>
			<point x="503" y="-178"/>
			<point x="518" y="-172" type="curve"/>
			<point x="520" y="-92" type="line"/>
			<point x="510" y="-96"/>
			<point x="501" y="-98"/>
			<point x="490" y="-98" type="curve" smooth="yes"/>
			<point x="470" y="-98"/>
			<point x="458" y="-86"/>
			<point x="458" y="-64" type="curve" smooth="yes"/>
			<point x="458" y="-53"/>
			<point x="459" y="-45"/>
			<point x="461" y="-34" type="curve" smooth="yes"/>
			<point x="528" y="302" type="line" smooth="yes"/>
			<point x="534" y="328"/>
			<point x="537" y="353"/>
			<point x="537" y="379" type="curve" smooth="yes"/>
			<point x="537" y="457"/>
			<point x="495" y="503"/>
			<point x="410" y="503" type="curve" smooth="yes"/>
			<point x="332" y="503"/>
			<point x="259" y="452"/>
			<point x="205" y="399" type="curve"/>
			<point x="201" y="399" type="line"/>
			<point x="210" y="491" type="line"/>
			<point x="123" y="491" type="line"/>
			<point x="26" y="0" type="line"/>
			<point x="133" y="0" type="line"/>
			<point x="194" y="308" type="line"/>
			<point x="250" y="374"/>
			<point x="310" y="411"/>
			<point x="363" y="411" type="curve" smooth="yes"/>
			<point x="404" y="411"/>
			<point x="427" y="390"/>
			<point x="427" y="349" type="curve" smooth="yes"/>
			<point x="427" y="331"/>
			<point x="424" y="312"/>
			<point x="419" y="289" type="curve" smooth="yes"/>
			<point x="355" y="-30" type="line" smooth="yes"/>
			<point x="350" y="-52"/>
			<point x="348" y="-71"/>
			<point x="348" y="-92" type="curve" smooth="yes"/>
			<point x="348" y="-151"/>
			<point x="379" y="-185"/>
		</contour>
		<contour>
			<point name="aboveLC" x="356" y="512" type="move"/>
		</contour>
	</outline>
</glyph>
<glyph name="rfishhook" format="1">
	<unicode hex="027E"/>
	<advance width="600"/>
	<outline>
		<contour>
			<point x="85" y="0" type="line"/>
			<point x="195" y="0" type="line"/>
			<point x="248" y="270" type="line" smooth="yes"/>
			<point x="266" y="363"/>
			<point x="334" y="404"/>
			<point x="409" y="404" type="curve" smooth="yes"/>
			<point x="450" y="404"/>
			<point x="486" y="401"/>
			<point x="526" y="384" type="curve"/>
			<point x="565" y="480" type="line"/>
			<point x="531" y="495"/>
			<point x="471" y="503"/>
			<point x="414" y="503" type="curve" smooth="yes"/>
			<point x="255" y="503"/>
			<point x="170" y="422"/>
			<point x="144" y="296" type="curve" smooth="yes"/>
		</contour>
		<contour>
			<point name="aboveLC" x="378" y="512" type="move"/>
		</contour>
		<contour>
			<point name="belowLC" x="142" y="-20" type="move"/>
		</contour>
	</outline>
</glyph>
<glyph name="rsmall" format="2">
	<unicode hex="0280"/>
	<advance width="600"/>
	<outline>
		<contour>
			<point x="57" y="0" type="line"/>
			<point x="164" y="0" type="line"/>
			<point x="200" y="176" type="line"/>
			<point x="307" y="176" type="line"/>
			<point x="432" y="176"/>
			<point x="529" y="254"/>
			<point x="529" y="364" type="curve" smooth="yes"/>
			<point x="529" y="454"/>
			<point x="462" y="491"/>
			<point x="368" y="491" type="curve" smooth="yes"/>
			<point x="154" y="491" type="line"/>
		</contour>
		<contour>
			<point x="216" y="255" type="line"/>
			<point x="245" y="408" type="line"/>
			<point x="336" y="408" type="line" smooth="yes"/>
			<point x="388" y="408"/>
			<point x="418" y="388"/>
			<point x="418" y="342" type="curve" smooth="yes"/>
			<point x="418" y="296"/>
			<point x="377" y="255"/>
			<point x="306" y="255" type="curve" smooth="yes"/>
		</contour>
		<contour>
			<point x="371" y="0" type="line"/>
			<point x="481" y="0" type="line"/>
			<point x="379" y="237" type="line"/>
			<point x="293" y="205" type="line"/>
		</contour>
	</outline>
	<anchor name="aboveLC" x="354" y="512"/>
	<anchor name="belowLC" x="274" y="-20"/>
</glyph>
<glyph name="rsmallinverted" format="2">
	<unicode hex="0281"/>
	<advance width="600"/>
	<outline>
		<contour>
			<point x="57" y="0" type="line"/>
			<point x="273" y="0" type="line" smooth="yes"/>
			<point x="399" y="0"/>
			<point x="495" y="77"/>
			<point x="495" y="188" type="curve" smooth="yes"/>
			<point x="495" y="278"/>
			<point x="428" y="315"/>
			<point x="335" y="315" type="curve" smooth="yes"/>
			<point x="228" y="315" type="line"/>
			<point x="262" y="491" type="line"/>
			<point x="154" y="491" type="line"/>
		</contour>
		<contour>
			<point x="181" y="84" type="line"/>
			<point x="211" y="236" type="line"/>
			<point x="302" y="236" type="line" smooth="yes"/>
			<point x="355" y="237"/>
			<point x="384" y="217"/>
			<point x="384" y="171" type="curve" smooth="yes"/>
			<point x="384" y="124"/>
			<point x="344" y="84"/>
			<point x="273" y="84" type="curve" smooth="yes"/>
		</contour>
		<contour>
			<point x="383" y="254" type="line"/>
			<point x="578" y="491" type="line"/>
			<point x="468" y="491" type="line"/>
			<point x="309" y="286" type="line"/>
		</contour>
	</outline>
	<anchor name="aboveLC" x="368" y="512"/>
	<anchor name="belowLC" x="254" y="-20"/>
</glyph>
<glyph name="shook" format="1">
	<unicode hex="0282"/>
	<advance width="600"/>
	<outline>
		<contour>
			<point x="135" y="-185" type="curve" smooth="yes"/>
			<point x="169" y="-185"/>
			<point x="189" y="-179"/>
			<point x="206" y="-172" type="curve"/>
			<point x="200" y="-89" type="line"/>
			<point x="188" y="-94"/>
			<point x="175" y="-96"/>
			<point x="161" y="-96" type="curve" smooth="yes"/>
			<point x="135" y="-96"/>
			<point x="121" y="-85"/>
			<point x="121" y="-53" type="curve" smooth="yes"/>
			<point x="121" y="-38"/>
			<point x="125" y="-8"/>
			<point x="142" y="65" type="curve"/>
			<point x="46" y="78" type="line"/>
			<point x="30" y="1"/>
			<point x="21" y="-38"/>
			<point x="21" y="-72" type="curve" smooth="yes"/>
			<point x="21" y="-134"/>
			<point x="51" y="-185"/>
		</contour>
		<component base="s"/>
		<contour>
			<point name="aboveLC" x="342" y="512" type="move"/>
		</contour>
		<contour>
			<point name="belowLC" x="246" y="-212" type="move"/>
		</contour>
	</outline>
</glyph>
<glyph name="dotlessjstrokehook" format="2">
	<unicode hex="0284"/>
	<advance width="600"/>
	<outline>
		<contour>
			<point x="79" y="225" type="line"/>
			<point x="507" y="225" type="line"/>
			<point x="521" y="291" type="line"/>
			<point x="250" y="291" type="line"/>
			<point x="91" y="285" type="line"/>
		</contour>
		<component base="esh"/>
	</outline>
</glyph>
<glyph name="zcurl" format="1">
	<unicode hex="0291"/>
	<advance width="600"/>
	<outline>
		<contour>
			<point x="283" y="-116" type="line"/>
			<point x="359" y="91"/>
			<point x="423" y="163"/>
			<point x="469" y="163" type="curve" smooth="yes"/>
			<point x="489" y="163"/>
			<point x="499" y="153"/>
			<point x="499" y="137" type="curve" smooth="yes"/>
			<point x="499" y="109"/>
			<point x="472" y="78"/>
			<point x="407" y="78" type="curve" smooth="yes"/>
			<point x="332" y="78"/>
			<point x="256" y="79"/>
			<point x="179" y="83" type="curve"/>
			<point x="518" y="428" type="line"/>
			<point x="529" y="491" type="line"/>
			<point x="124" y="491" type="line"/>
			<point x="106" y="408" type="line"/>
			<point x="376" y="408" type="line"/>
			<point x="40" y="64" type="line"/>
			<point x="28" y="0" type="line"/>
			<point x="365" y="0" type="line" smooth="yes"/>
			<point x="508" y="0"/>
			<point x="565" y="77"/>
			<point x="565" y="155" type="curve" smooth="yes"/>
			<point x="565" y="200"/>
			<point x="537" y="230"/>
			<point x="484" y="230" type="curve" smooth="yes"/>
			<point x="389" y="230"/>
			<point x="303" y="111"/>
			<point x="223" y="-102" type="curve"/>
		</contour>
		<contour>
			<point name="aboveLC" x="329" y="512" type="move"/>
		</contour>
	</outline>
</glyph>
<glyph name="bsmall" format="2">
	<unicode hex="0299"/>
	<advance width="600"/>
	<outline>
		<contour>
			<point x="50" y="0" type="line"/>
			<point x="279" y="0" type="line" smooth="yes"/>
			<point x="424" y="0"/>
			<point x="502" y="70"/>
			<point x="502" y="168" type="curve" smooth="yes"/>
			<point x="502" y="219"/>
			<point x="469" y="244"/>
			<point x="422" y="257" type="curve"/>
			<point x="423" y="261" type="line"/>
			<point x="486" y="278"/>
			<point x="526" y="325"/>
			<point x="526" y="391" type="curve" smooth="yes"/>
			<point x="526" y="465"/>
			<point x="455" y="491"/>
			<point x="365" y="491" type="curve" smooth="yes"/>
			<point x="148" y="491" type="line"/>
		</contour>
		<contour>
			<point x="173" y="78" type="line"/>
			<point x="202" y="219" type="line"/>
			<point x="309" y="219" type="line" smooth="yes"/>
			<point x="366" y="219"/>
			<point x="396" y="197"/>
			<point x="396" y="162" type="curve" smooth="yes"/>
			<point x="396" y="116"/>
			<point x="362" y="78"/>
			<point x="284" y="78" type="curve" smooth="yes"/>
		</contour>
		<contour>
			<point x="214" y="290" type="line"/>
			<point x="240" y="414" type="line"/>
			<point x="340" y="414" type="line" smooth="yes"/>
			<point x="393" y="414"/>
			<point x="418" y="395"/>
			<point x="418" y="366" type="curve" smooth="yes"/>
			<point x="418" y="324"/>
			<point x="388" y="290"/>
			<point x="312" y="290" type="curve" smooth="yes"/>
		</contour>
	</outline>
	<anchor name="aboveLC" x="346" y="512"/>
	<anchor name="belowLC" x="258" y="-20"/>
</glyph>
<glyph name="jcrossedtail" format="1">
	<unicode hex="029D"/>
	<advance width="600"/>
	<outline>
		<component base="jcrossedtail.d"/>
		<component base="dotaccentcmb" xOffset="56"/>
		<contour>
			<point name="belowLC" x="154" y="-212" type="move"/>
		</contour>
	</outline>
</glyph>
<glyph name="kturned" format="1">
	<unicode hex="029E"/>
	<advance width="600"/>
	<outline>
		<contour>
			<point x="300" y="-194" type="line"/>
			<point x="408" y="-194" type="line"/>
			<point x="545" y="491" type="line"/>
			<point x="438" y="491" type="line"/>
			<point x="414" y="368" type="line"/>
			<point x="244" y="230" type="line"/>
			<point x="-17" y="0" type="line"/>
			<point x="109" y="0" type="line"/>
			<point x="382" y="231" type="line"/>
			<point x="386" y="231" type="line"/>
		</contour>
		<contour>
			<point x="221" y="176" type="line"/>
			<point x="292" y="248" type="line"/>
			<point x="174" y="491" type="line"/>
			<point x="64" y="491" type="line"/>
		</contour>
		<contour>
			<point name="aboveLC" x="316" y="512" type="move"/>
		</contour>
		<contour>
			<point name="belowLC" x="350" y="-212" type="move"/>
		</contour>
	</outline>
</glyph>
<glyph name="lsmall" format="2">
	<unicode hex="029F"/>
	<advance width="600"/>
	<outline>
		<contour>
			<point x="91" y="0" type="line"/>
			<point x="481" y="0" type="line"/>
			<point x="499" y="85" type="line"/>
			<point x="215" y="85" type="line"/>
			<point x="295" y="491" type="line"/>
			<point x="188" y="491" type="line"/>
		</contour>
	</outline>
	<anchor name="aboveLC" x="240" y="512"/>
	<anchor name="belowLC" x="298" y="-20"/>
</glyph>
<glyph name="glottalstopstrokereversed" format="1">
	<unicode hex="02A2"/>
	<advance width="600"/>
	<outline>
		<contour>
			<point x="206" y="0" type="line"/>
			<point x="313" y="0" type="line"/>
			<point x="363" y="244" type="line"/>
			<point x="502" y="244" type="line"/>
			<point x="516" y="311" type="line"/>
			<point x="366" y="311" type="line"/>
			<point x="283" y="372"/>
			<point x="242" y="424"/>
			<point x="242" y="505" type="curve" smooth="yes"/>
			<point x="242" y="576"/>
			<point x="293" y="633"/>
			<point x="374" y="633" type="curve" smooth="yes"/>
			<point x="440" y="633"/>
			<point x="484" y="604"/>
			<point x="525" y="555" type="curve"/>
			<point x="586" y="614" type="line"/>
			<point x="544" y="673"/>
			<point x="476" y="718"/>
			<point x="373" y="718" type="curve" smooth="yes"/>
			<point x="236" y="718"/>
			<point x="131" y="627"/>
			<point x="131" y="491" type="curve" smooth="yes"/>
			<point x="131" y="421"/>
			<point x="166" y="363"/>
			<point x="233" y="311" type="curve"/>
			<point x="93" y="305" type="line"/>
			<point x="80" y="244" type="line"/>
			<point x="255" y="244" type="line"/>
		</contour>
		<contour>
			<point name="aboveUC" x="388" y="734" type="move"/>
		</contour>
		<contour>
			<point name="belowLC" x="254" y="-20" type="move"/>
		</contour>
	</outline>
</glyph>
<glyph name="ts" format="2">
	<unicode hex="02A6"/>
	<advance width="600"/>
	<outline>
		<contour>
			<point x="265" y="-12" type="curve" smooth="yes"/>
			<point x="464" y="-12"/>
			<point x="541" y="61"/>
			<point x="541" y="163" type="curve" smooth="yes"/>
			<point x="541" y="288"/>
			<point x="404" y="295"/>
			<point x="404" y="367" type="curve" smooth="yes"/>
			<point x="404" y="398"/>
			<point x="427" y="422"/>
			<point x="460" y="422" type="curve" smooth="yes"/>
			<point x="490" y="422"/>
			<point x="510" y="409"/>
			<point x="531" y="388" type="curve"/>
			<point x="584" y="447" type="line"/>
			<point x="552" y="480"/>
			<point x="513" y="503"/>
			<point x="462" y="503" type="curve" smooth="yes"/>
			<point x="375" y="503"/>
			<point x="303" y="442"/>
			<point x="303" y="356" type="curve" smooth="yes"/>
			<point x="303" y="236"/>
			<point x="440" y="241"/>
			<point x="440" y="150" type="curve" smooth="yes"/>
			<point x="440" y="107"/>
			<point x="403" y="70"/>
			<point x="291" y="70" type="curve" smooth="yes"/>
			<point x="203" y="70"/>
			<point x="166" y="98"/>
			<point x="166" y="152" type="curve" smooth="yes"/>
			<point x="166" y="170"/>
			<point x="169" y="183"/>
			<point x="173" y="202" type="curve" smooth="yes"/>
			<point x="215" y="406" type="line"/>
			<point x="395" y="406" type="line"/>
			<point x="412" y="491" type="line"/>
			<point x="233" y="491" type="line"/>
			<point x="265" y="645" type="line"/>
			<point x="177" y="645" type="line"/>
			<point x="130" y="491" type="line"/>
			<point x="56" y="486" type="line"/>
			<point x="40" y="406" type="line"/>
			<point x="109" y="406" type="line"/>
			<point x="67" y="206" type="line" smooth="yes"/>
			<point x="62" y="185"/>
			<point x="56" y="158"/>
			<point x="56" y="133" type="curve" smooth="yes"/>
			<point x="56" y="47"/>
			<point x="115" y="-12"/>
		</contour>
	</outline>
	<anchor name="aboveLC" x="374" y="638"/>
	<anchor name="belowLC" x="276" y="-20"/>
</glyph>
<glyph name="ringhalfleftmod" format="2">
	<unicode hex="02BF"/>
	<advance width="600"/>
	<outline>
		<contour>
			<point x="438" y="539" type="curve"/>
			<point x="450" y="599" type="line"/>
			<point x="391" y="599"/>
			<point x="359" y="626"/>
			<point x="359" y="675" type="curve" smooth="yes"/>
			<point x="359" y="728"/>
			<point x="404" y="767"/>
			<point x="478" y="770" type="curve"/>
			<point x="490" y="830" type="line"/>
			<point x="356" y="832"/>
			<point x="275" y="770"/>
			<point x="275" y="670" type="curve" smooth="yes"/>
			<point x="275" y="584"/>
			<point x="337" y="535"/>
		</contour>
	</outline>
</glyph>
<glyph name="verticallinemod" format="1">
	<unicode hex="02C8"/>
	<advance width="600"/>
	<outline>
		<contour>
			<point x="284" y="390" type="line"/>
			<point x="352" y="390" type="line"/>
			<point x="446" y="725" type="line"/>
			<point x="325" y="725" type="line"/>
		</contour>
	</outline>
</glyph>
<glyph name="verticallinelowmod" format="2">
	<unicode hex="02CC"/>
	<advance width="600"/>
	<outline>
		<contour>
			<point x="129" y="-257" type="line"/>
			<point x="249" y="-257" type="line"/>
			<point x="290" y="77" type="line"/>
			<point x="221" y="77" type="line"/>
		</contour>
	</outline>
</glyph>
<glyph name="colontriangularmod" format="1">
	<unicode hex="02D0"/>
	<advance width="600"/>
	<outline>
		<contour>
			<point x="139" y="0" type="line"/>
			<point x="343" y="0" type="line"/>
			<point x="280" y="164" type="line"/>
			<point x="268" y="164" type="line"/>
		</contour>
		<contour>
			<point x="295" y="327" type="line"/>
			<point x="307" y="327" type="line"/>
			<point x="436" y="491" type="line"/>
			<point x="232" y="491" type="line"/>
		</contour>
	</outline>
</glyph>
<glyph name="gravecmb" format="2">
	<unicode hex="0300"/>
	<advance width="600"/>
	<outline>
		<contour>
			<point x="388" y="569" type="line"/>
			<point x="454" y="621" type="line"/>
			<point x="337" y="806" type="line"/>
			<point x="245" y="737" type="line"/>
		</contour>
	</outline>
	<anchor name="_aboveLC" x="339" y="512"/>
	<anchor name="aboveLC" x="300" y="512"/>
</glyph>
<glyph name="acutecmb" format="1">
	<unicode hex="0301"/>
	<advance width="600"/>
	<outline>
		<contour>
			<point x="331" y="579" type="line"/>
			<point x="525" y="717" type="line"/>
			<point x="460" y="800" type="line"/>
			<point x="283" y="640" type="line"/>
		</contour>
		<contour>
			<point name="_aboveLC" x="339" y="512" type="move"/>
		</contour>
		<contour>
			<point name="aboveLC" x="300" y="512" type="move"/>
		</contour>
	</outline>
</glyph>
<glyph name="circumflexcmb" format="1">
	<unicode hex="0302"/>
	<advance width="600"/>
	<outline>
		<contour>
			<point x="226" y="564" type="line"/>
			<point x="371" y="670" type="line"/>
			<point x="375" y="670" type="line"/>
			<point x="475" y="564" type="line"/>
			<point x="525" y="606" type="line"/>
			<point x="438" y="742" type="line"/>
			<point x="321" y="742" type="line"/>
			<point x="187" y="609" type="line"/>
		</contour>
		<contour>
			<point name="_aboveLC" x="339" y="512" type="move"/>
		</contour>
		<contour>
			<point name="aboveLC" x="385" y="735" type="move"/>
		</contour>
	</outline>
</glyph>
<glyph name="macroncmb" format="2">
	<unicode hex="0304"/>
	<advance width="600"/>
	<outline>
		<contour>
			<point x="224" y="597" type="line"/>
			<point x="493" y="597" type="line"/>
			<point x="506" y="668" type="line"/>
			<point x="237" y="668" type="line"/>
		</contour>
	</outline>
	<anchor name="_aboveLC" x="339" y="512"/>
	<anchor name="aboveLC" x="323" y="552"/>
</glyph>
<glyph name="brevecmb" format="2">
	<unicode hex="0306"/>
	<advance width="600"/>
	<outline>
		<contour>
			<point x="354" y="571" type="curve" smooth="yes"/>
			<point x="466" y="571"/>
			<point x="527" y="644"/>
			<point x="545" y="726" type="curve"/>
			<point x="479" y="737" type="line"/>
			<point x="463" y="690"/>
			<point x="427" y="645"/>
			<point x="368" y="645" type="curve" smooth="yes"/>
			<point x="310" y="645"/>
			<point x="287" y="690"/>
			<point x="290" y="737" type="curve"/>
			<point x="219" y="726" type="line"/>
			<point x="210" y="644"/>
			<point x="245" y="571"/>
		</contour>
	</outline>
	<anchor name="_aboveLC" x="339" y="512"/>
	<anchor name="aboveLC" x="300" y="512"/>
</glyph>
<glyph name="dotaccentcmb" format="1">
	<unicode hex="0307"/>
	<advance width="600"/>
	<outline>
		<contour>
			<point x="362" y="582" type="curve" smooth="yes"/>
			<point x="409" y="582"/>
			<point x="448" y="618"/>
			<point x="448" y="664" type="curve" smooth="yes"/>
			<point x="448" y="706"/>
			<point x="418" y="730"/>
			<point x="375" y="730" type="curve" smooth="yes"/>
			<point x="328" y="730"/>
			<point x="290" y="692"/>
			<point x="290" y="648" type="curve" smooth="yes"/>
			<point x="290" y="604"/>
			<point x="324" y="582"/>
		</contour>
		<contour>
			<point name="_aboveLC" x="339" y="512" type="move"/>
		</contour>
		<contour>
			<point name="aboveLC" x="382" y="726" type="move"/>
		</contour>
	</outline>
</glyph>
<glyph name="dieresiscmb" format="1">
	<unicode hex="0308"/>
	<advance width="600"/>
	<outline>
		<contour>
			<point x="260" y="580" type="curve" smooth="yes"/>
			<point x="298" y="580"/>
			<point x="326" y="610"/>
			<point x="326" y="648" type="curve" smooth="yes"/>
			<point x="326" y="681"/>
			<point x="304" y="700"/>
			<point x="275" y="700" type="curve" smooth="yes"/>
			<point x="237" y="700"/>
			<point x="208" y="669"/>
			<point x="208" y="633" type="curve" smooth="yes"/>
			<point x="208" y="599"/>
			<point x="231" y="580"/>
		</contour>
		<contour>
			<point x="458" y="580" type="curve" smooth="yes"/>
			<point x="496" y="580"/>
			<point x="525" y="610"/>
			<point x="525" y="648" type="curve" smooth="yes"/>
			<point x="525" y="681"/>
			<point x="503" y="700"/>
			<point x="473" y="700" type="curve" smooth="yes"/>
			<point x="436" y="700"/>
			<point x="407" y="669"/>
			<point x="407" y="633" type="curve" smooth="yes"/>
			<point x="407" y="599"/>
			<point x="429" y="580"/>
		</contour>
		<contour>
			<point name="_aboveLC" x="339" y="512" type="move"/>
		</contour>
		<contour>
			<point name="aboveLC" x="370" y="674" type="move"/>
		</contour>
	</outline>
</glyph>
<glyph name="hungarumlautcmb" format="1">
	<unicode hex="030B"/>
	<advance width="600"/>
	<outline>
		<contour>
			<point x="306" y="569" type="line"/>
			<point x="439" y="726" type="line"/>
			<point x="368" y="770" type="line"/>
			<point x="249" y="603" type="line"/>
		</contour>
		<contour>
			<point x="471" y="569" type="line"/>
			<point x="604" y="726" type="line"/>
			<point x="533" y="770" type="line"/>
			<point x="414" y="603" type="line"/>
		</contour>
		<contour>
			<point name="_aboveLC" x="339" y="512" type="move"/>
		</contour>
	</outline>
</glyph>
<glyph name="caroncmb" format="1">
	<unicode hex="030C"/>
	<advance width="600"/>
	<outline>
		<contour>
			<point x="301" y="577" type="line"/>
			<point x="418" y="577" type="line"/>
			<point x="552" y="710" type="line"/>
			<point x="512" y="754" type="line"/>
			<point x="368" y="649" type="line"/>
			<point x="364" y="649" type="line"/>
			<point x="264" y="754" type="line"/>
			<point x="214" y="713" type="line"/>
		</contour>
		<contour>
			<point name="_aboveLC" x="339" y="512" type="move"/>
		</contour>
	</outline>
</glyph>
<glyph name="dblgravecmb" format="1">
	<unicode hex="030F"/>
	<advance width="600"/>
	<outline>
		<contour>
			<point x="227" y="566" type="line"/>
			<point x="294" y="588" type="line"/>
			<point x="239" y="771" type="line"/>
			<point x="153" y="741" type="line"/>
		</contour>
		<contour>
			<point x="392" y="566" type="line"/>
			<point x="459" y="588" type="line"/>
			<point x="404" y="771" type="line"/>
			<point x="318" y="741" type="line"/>
		</contour>
		<contour>
			<point name="_aboveLC" x="339" y="512" type="move"/>
		</contour>
	</outline>
</glyph>
<glyph name="breveinvertedcmb" format="1">
	<unicode hex="0311"/>
	<advance width="600"/>
	<outline>
		<contour>
			<point x="258" y="566" type="line"/>
			<point x="273" y="614"/>
			<point x="311" y="658"/>
			<point x="369" y="658" type="curve" smooth="yes"/>
			<point x="427" y="658"/>
			<point x="446" y="614"/>
			<point x="444" y="566" type="curve"/>
			<point x="512" y="578" type="line"/>
			<point x="524" y="659"/>
			<point x="491" y="732"/>
			<point x="384" y="732" type="curve" smooth="yes"/>
			<point x="275" y="732"/>
			<point x="215" y="659"/>
			<point x="195" y="578" type="curve"/>
		</contour>
		<contour>
			<point name="_aboveLC" x="339" y="512" type="move"/>
		</contour>
	</outline>
</glyph>
<glyph name="lefttackbelowcmb" format="1">
	<unicode hex="0318"/>
	<advance width="600"/>
	<outline>
		<contour>
			<point x="215" y="-253" type="line"/>
			<point x="278" y="-253" type="line"/>
			<point x="316" y="-56" type="line"/>
			<point x="255" y="-56" type="line"/>
			<point x="241" y="-125" type="line"/>
			<point x="134" y="-125" type="line"/>
			<point x="123" y="-184" type="line"/>
			<point x="229" y="-184" type="line"/>
		</contour>
		<contour>
			<point name="_belowLC" x="234" y="-20" type="move"/>
		</contour>
	</outline>
</glyph>
<glyph name="leftangleabovecmb" format="2">
	<unicode hex="031A"/>
	<advance width="600"/>
	<outline>
		<contour>
			<point x="411" y="573" type="line"/>
			<point x="473" y="573" type="line"/>
			<point x="501" y="719" type="line"/>
			<point x="333" y="719" type="line"/>
			<point x="321" y="660" type="line"/>
			<point x="428" y="660" type="line"/>
		</contour>
	</outline>
	<anchor name="_aboverightLC" x="372" y="512"/>
</glyph>
<glyph name="uptackbelowcmb" format="1">
	<unicode hex="031D"/>
	<advance width="600"/>
	<outline>
		<contour>
			<point x="95" y="-220" type="line"/>
			<point x="293" y="-220" type="line"/>
			<point x="305" y="-161" type="line"/>
			<point x="237" y="-161" type="line"/>
			<point x="258" y="-56" type="line"/>
			<point x="196" y="-56" type="line"/>
			<point x="175" y="-161" type="line"/>
			<point x="107" y="-161" type="line"/>
		</contour>
		<contour>
			<point name="_belowLC" x="234" y="-20" type="move"/>
		</contour>
	</outline>
</glyph>
<glyph name="downtackbelowcmb" format="1">
	<unicode hex="031E"/>
	<advance width="600"/>
	<outline>
		<contour>
			<point x="157" y="-253" type="line"/>
			<point x="219" y="-253" type="line"/>
			<point x="240" y="-148" type="line"/>
			<point x="308" y="-148" type="line"/>
			<point x="319" y="-89" type="line"/>
			<point x="121" y="-89" type="line"/>
			<point x="110" y="-148" type="line"/>
			<point x="178" y="-148" type="line"/>
		</contour>
		<contour>
			<point name="_belowLC" x="234" y="-20" type="move"/>
		</contour>
	</outline>
</glyph>
<glyph name="plusbelowcmb" format="1">
	<unicode hex="031F"/>
	<advance width="600"/>
	<outline>
		<contour>
			<point x="157" y="-253" type="line"/>
			<point x="219" y="-253" type="line"/>
			<point x="233" y="-184" type="line"/>
			<point x="300" y="-184" type="line"/>
			<point x="312" y="-125" type="line"/>
			<point x="244" y="-125" type="line"/>
			<point x="258" y="-56" type="line"/>
			<point x="196" y="-56" type="line"/>
			<point x="183" y="-125" type="line"/>
			<point x="114" y="-125" type="line"/>
			<point x="103" y="-184" type="line"/>
			<point x="171" y="-184" type="line"/>
		</contour>
		<contour>
			<point name="_belowLC" x="234" y="-20" type="move"/>
		</contour>
	</outline>
</glyph>
<glyph name="minusbelowcmb" format="2">
	<unicode hex="0320"/>
	<advance width="600"/>
	<outline>
		<contour>
			<point x="103" y="-184" type="line"/>
			<point x="300" y="-184" type="line"/>
			<point x="312" y="-125" type="line"/>
			<point x="114" y="-125" type="line"/>
		</contour>
	</outline>
	<anchor name="_belowLC" x="234" y="-20"/>
</glyph>
<glyph name="verticallinebelowcmb" format="2">
	<unicode hex="0329"/>
	<advance width="600"/>
	<outline>
		<contour>
			<point x="142" y="-268" type="line"/>
			<point x="231" y="-268" type="line"/>
			<point x="261" y="-68" type="line"/>
			<point x="188" y="-68" type="line"/>
		</contour>
	</outline>
	<anchor name="_belowLC" x="234" y="-20"/>
</glyph>
<glyph name="ringhalfrightbelowcmb" format="2">
	<unicode hex="0339"/>
	<advance width="600"/>
	<outline>
		<contour>
			<point x="132" y="-260" type="line"/>
			<point x="226" y="-260"/>
			<point x="285" y="-214"/>
			<point x="285" y="-148" type="curve" smooth="yes"/>
			<point x="285" y="-92"/>
			<point x="237" y="-59"/>
			<point x="170" y="-62" type="curve"/>
			<point x="161" y="-107" type="line"/>
			<point x="196" y="-107"/>
			<point x="215" y="-124"/>
			<point x="215" y="-154" type="curve" smooth="yes"/>
			<point x="215" y="-188"/>
			<point x="187" y="-213"/>
			<point x="140" y="-215" type="curve"/>
		</contour>
	</outline>
	<anchor name="_belowLC" x="234" y="-20"/>
</glyph>
<glyph name="bridgeinvertedbelowcmb" format="2">
	<unicode hex="033A"/>
	<advance width="600"/>
	<outline>
		<contour>
			<point x="75" y="-220" type="line"/>
			<point x="317" y="-220" type="line"/>
			<point x="345" y="-77" type="line"/>
			<point x="288" y="-77" type="line"/>
			<point x="271" y="-160" type="line"/>
			<point x="144" y="-160" type="line"/>
			<point x="160" y="-77" type="line"/>
			<point x="103" y="-77" type="line"/>
		</contour>
	</outline>
	<anchor name="_belowLC" x="234" y="-20"/>
</glyph>
<glyph name="seagullbelowcmb" format="1">
	<unicode hex="033C"/>
	<advance width="600"/>
	<outline>
		<contour>
			<point x="78" y="-240" type="line"/>
			<point x="93" y="-168"/>
			<point x="112" y="-151"/>
			<point x="139" y="-151" type="curve" smooth="yes"/>
			<point x="169" y="-151"/>
			<point x="176" y="-176"/>
			<point x="168" y="-218" type="curve" smooth="yes"/>
			<point x="163" y="-238" type="line"/>
			<point x="221" y="-238" type="line"/>
			<point x="225" y="-218" type="line" smooth="yes"/>
			<point x="233" y="-176"/>
			<point x="250" y="-151"/>
			<point x="279" y="-151" type="curve" smooth="yes"/>
			<point x="306" y="-151"/>
			<point x="319" y="-168"/>
			<point x="305" y="-240" type="curve"/>
			<point x="367" y="-232" type="line"/>
			<point x="387" y="-126"/>
			<point x="365" y="-78"/>
			<point x="298" y="-78" type="curve" smooth="yes"/>
			<point x="265" y="-78"/>
			<point x="233" y="-95"/>
			<point x="215" y="-134" type="curve"/>
			<point x="211" y="-134" type="line"/>
			<point x="208" y="-95"/>
			<point x="184" y="-78"/>
			<point x="150" y="-78" type="curve" smooth="yes"/>
			<point x="84" y="-78"/>
			<point x="41" y="-126"/>
			<point x="20" y="-232" type="curve"/>
		</contour>
		<contour>
			<point name="_belowLC" x="234" y="-20" type="move"/>
		</contour>
	</outline>
</glyph>
<glyph name="xabovecmb" format="2">
	<unicode hex="033D"/>
	<advance width="600"/>
	<outline>
		<contour>
			<point x="298" y="548" type="line"/>
			<point x="358" y="599" type="line"/>
			<point x="398" y="548" type="line"/>
			<point x="447" y="589" type="line"/>
			<point x="407" y="640" type="line"/>
			<point x="467" y="691" type="line"/>
			<point x="435" y="733" type="line"/>
			<point x="375" y="682" type="line"/>
			<point x="335" y="733" type="line"/>
			<point x="287" y="691" type="line"/>
			<point x="327" y="640" type="line"/>
			<point x="266" y="589" type="line"/>
		</contour>
	</outline>
	<anchor name="_aboveLC" x="339" y="512"/>
</glyph>
<glyph name="dieresistonoscmb" format="2">
	<unicode hex="0344"/>
	<advance width="600"/>
	<outline>
		<contour>
			<point x="251" y="592" type="curve" smooth="yes"/>
			<point x="282" y="592"/>
			<point x="306" y="616"/>
			<point x="306" y="646" type="curve" smooth="yes"/>
			<point x="306" y="670"/>
			<point x="287" y="684"/>
			<point x="268" y="684" type="curve" smooth="yes"/>
			<point x="236" y="684"/>
			<point x="213" y="659"/>
			<point x="213" y="629" type="curve" smooth="yes"/>
			<point x="213" y="606"/>
			<point x="232" y="592"/>
		</contour>
		<contour>
			<point x="308" y="563" type="line"/>
			<point x="354" y="563" type="line"/>
			<point x="456" y="742" type="line"/>
			<point x="377" y="742" type="line"/>
		</contour>
		<contour>
			<point x="466" y="592" type="curve" smooth="yes"/>
			<point x="498" y="592"/>
			<point x="521" y="616"/>
			<point x="521" y="646" type="curve" smooth="yes"/>
			<point x="521" y="670"/>
			<point x="503" y="684"/>
			<point x="484" y="684" type="curve" smooth="yes"/>
			<point x="452" y="684"/>
			<point x="429" y="659"/>
			<point x="429" y="629" type="curve" smooth="yes"/>
			<point x="429" y="606"/>
			<point x="447" y="592"/>
		</contour>
	</outline>
	<anchor name="_aboveLC" x="339" y="512"/>
</glyph>
<glyph name="iotasubscriptcmb" format="1">
	<unicode hex="0345"/>
	<advance width="600"/>
	<outline>
		<contour>
			<point x="246" y="-208" type="curve" smooth="yes"/>
			<point x="270" y="-208"/>
			<point x="285" y="-205"/>
			<point x="300" y="-199" type="curve"/>
			<point x="301" y="-134" type="line"/>
			<point x="290" y="-137"/>
			<point x="287" y="-137"/>
			<point x="282" y="-137" type="curve" smooth="yes"/>
			<point x="264" y="-137"/>
			<point x="251" y="-129"/>
			<point x="255" y="-105" type="curve" smooth="yes"/>
			<point x="258" y="-93"/>
			<point x="262" y="-74"/>
			<point x="266" y="-58" type="curve"/>
			<point x="184" y="-58" type="line"/>
			<point x="176" y="-98" type="line" smooth="yes"/>
			<point x="163" y="-167"/>
			<point x="180" y="-208"/>
		</contour>
		<contour>
			<point name="_belowLC" x="234" y="-24" type="move"/>
		</contour>
	</outline>
</glyph>
<glyph name="breveinverteddoublecmb" format="2">
	<unicode hex="0361"/>
	<advance width="600"/>
	<outline>
		<contour>
			<point x="-58" y="593" type="line"/>
			<point x="83" y="668"/>
			<point x="245" y="697"/>
			<point x="377" y="697" type="curve" smooth="yes"/>
			<point x="510" y="697"/>
			<point x="661" y="668"/>
			<point x="771" y="593" type="curve"/>
			<point x="812" y="648" type="line"/>
			<point x="696" y="731"/>
			<point x="553" y="773"/>
			<point x="392" y="773" type="curve" smooth="yes"/>
			<point x="232" y="773"/>
			<point x="72" y="731"/>
			<point x="-77" y="648" type="curve"/>
		</contour>
	</outline>
</glyph>
<glyph name="b.sups" format="2">
	<unicode hex="1D47"/>
	<advance width="600"/>
	<outline>
		<contour>
			<point x="340" y="377" type="curve" smooth="yes"/>
			<point x="431" y="377"/>
			<point x="520" y="451"/>
			<point x="520" y="591" type="curve" smooth="yes"/>
			<point x="520" y="668"/>
			<point x="484" y="717"/>
			<point x="413" y="717" type="curve" smooth="yes"/>
			<point x="374" y="717"/>
			<point x="337" y="700"/>
			<point x="305" y="674" type="curve"/>
			<point x="320" y="730" type="line"/>
			<point x="343" y="850" type="line"/>
			<point x="265" y="850" type="line"/>
			<point x="172" y="385" type="line"/>
			<point x="234" y="385" type="line"/>
			<point x="248" y="418" type="line"/>
			<point x="250" y="418" type="line"/>
			<point x="271" y="392"/>
			<point x="301" y="377"/>
		</contour>
		<contour>
			<point x="330" y="441" type="curve" smooth="yes"/>
			<point x="306" y="441"/>
			<point x="286" y="448"/>
			<point x="267" y="467" type="curve"/>
			<point x="297" y="617" type="line"/>
			<point x="328" y="641"/>
			<point x="353" y="652"/>
			<point x="382" y="652" type="curve" smooth="yes"/>
			<point x="419" y="652"/>
			<point x="438" y="629"/>
			<point x="438" y="581" type="curve" smooth="yes"/>
			<point x="438" y="493"/>
			<point x="389" y="441"/>
		</contour>
	</outline>
</glyph>
<glyph name="d.sups" format="2">
	<unicode hex="1D48"/>
	<advance width="600"/>
	<outline>
		<contour>
			<point x="280" y="377" type="curve" smooth="yes"/>
			<point x="321" y="377"/>
			<point x="356" y="395"/>
			<point x="386" y="419" type="curve"/>
			<point x="388" y="419" type="line"/>
			<point x="388" y="385" type="line"/>
			<point x="452" y="385" type="line"/>
			<point x="545" y="850" type="line"/>
			<point x="466" y="850" type="line"/>
			<point x="443" y="733" type="line"/>
			<point x="437" y="678" type="line"/>
			<point x="415" y="702"/>
			<point x="392" y="717"/>
			<point x="353" y="717" type="curve" smooth="yes"/>
			<point x="256" y="717"/>
			<point x="169" y="635"/>
			<point x="169" y="511" type="curve" smooth="yes"/>
			<point x="169" y="421"/>
			<point x="211" y="377"/>
		</contour>
		<contour>
			<point x="312" y="441" type="curve" smooth="yes"/>
			<point x="273" y="441"/>
			<point x="251" y="468"/>
			<point x="251" y="516" type="curve" smooth="yes"/>
			<point x="251" y="602"/>
			<point x="302" y="652"/>
			<point x="357" y="652" type="curve" smooth="yes"/>
			<point x="380" y="652"/>
			<point x="401" y="645"/>
			<point x="421" y="626" type="curve"/>
			<point x="391" y="477" type="line"/>
			<point x="364" y="453"/>
			<point x="339" y="441"/>
		</contour>
	</outline>
</glyph>
<glyph name="g.sups" format="2">
	<unicode hex="1D4D"/>
	<advance width="600"/>
	<outline>
		<contour>
			<point x="181" y="348" type="curve"/>
			<point x="145" y="292" type="line"/>
			<point x="177" y="267"/>
			<point x="223" y="249"/>
			<point x="271" y="249" type="curve" smooth="yes"/>
			<point x="370" y="249"/>
			<point x="437" y="287"/>
			<point x="456" y="386" type="curve" smooth="yes"/>
			<point x="521" y="709" type="line"/>
			<point x="459" y="709" type="line"/>
			<point x="445" y="677" type="line"/>
			<point x="443" y="677" type="line"/>
			<point x="422" y="703"/>
			<point x="393" y="717"/>
			<point x="356" y="717" type="curve" smooth="yes"/>
			<point x="267" y="717"/>
			<point x="175" y="636"/>
			<point x="175" y="513" type="curve" smooth="yes"/>
			<point x="175" y="437"/>
			<point x="217" y="388"/>
			<point x="287" y="388" type="curve" smooth="yes"/>
			<point x="323" y="388"/>
			<point x="359" y="403"/>
			<point x="388" y="425" type="curve"/>
			<point x="378" y="383" type="line" smooth="yes"/>
			<point x="367" y="332"/>
			<point x="334" y="311"/>
			<point x="277" y="311" type="curve" smooth="yes"/>
			<point x="240" y="311"/>
			<point x="209" y="326"/>
		</contour>
		<contour>
			<point x="319" y="450" type="curve" smooth="yes"/>
			<point x="279" y="450"/>
			<point x="257" y="479"/>
			<point x="257" y="524" type="curve" smooth="yes"/>
			<point x="257" y="600"/>
			<point x="310" y="653"/>
			<point x="360" y="653" type="curve" smooth="yes"/>
			<point x="387" y="653"/>
			<point x="407" y="645"/>
			<point x="426" y="625" type="curve"/>
			<point x="398" y="488" type="line"/>
			<point x="370" y="462"/>
			<point x="345" y="450"/>
		</contour>
	</outline>
</glyph>
<glyph name="m.sups" format="2">
	<unicode hex="1D50"/>
	<advance width="600"/>
	<outline>
		<contour>
			<point x="85" y="385" type="line"/>
			<point x="162" y="385" type="line"/>
			<point x="205" y="603" type="line"/>
			<point x="235" y="635"/>
			<point x="264" y="652"/>
			<point x="283" y="652" type="curve" smooth="yes"/>
			<point x="308" y="652"/>
			<point x="319" y="638"/>
			<point x="319" y="612" type="curve" smooth="yes"/>
			<point x="319" y="601"/>
			<point x="317" y="592"/>
			<point x="314" y="579" type="curve" smooth="yes"/>
			<point x="276" y="385" type="line"/>
			<point x="351" y="385" type="line"/>
			<point x="394" y="603" type="line"/>
			<point x="424" y="635"/>
			<point x="453" y="652"/>
			<point x="472" y="652" type="curve" smooth="yes"/>
			<point x="497" y="652"/>
			<point x="506" y="638"/>
			<point x="506" y="613" type="curve" smooth="yes"/>
			<point x="506" y="603"/>
			<point x="505" y="592"/>
			<point x="502" y="579" type="curve" smooth="yes"/>
			<point x="464" y="385" type="line"/>
			<point x="540" y="385" type="line"/>
			<point x="581" y="588" type="line" smooth="yes"/>
			<point x="584" y="604"/>
			<point x="586" y="621"/>
			<point x="586" y="633" type="curve" smooth="yes"/>
			<point x="586" y="688"/>
			<point x="565" y="718"/>
			<point x="510" y="718" type="curve" smooth="yes"/>
			<point x="470" y="718"/>
			<point x="432" y="691"/>
			<point x="396" y="659" type="curve"/>
			<point x="388" y="693"/>
			<point x="370" y="718"/>
			<point x="322" y="718" type="curve" smooth="yes"/>
			<point x="281" y="718"/>
			<point x="245" y="694"/>
			<point x="214" y="665" type="curve"/>
			<point x="210" y="665" type="line"/>
			<point x="212" y="710" type="line"/>
			<point x="149" y="710" type="line"/>
		</contour>
	</outline>
</glyph>
<glyph name="Germandbls" format="2">
	<unicode hex="1E9E"/>
	<advance width="600"/>
	<outline>
		<contour>
			<point x="340" y="-12" type="curve" smooth="yes"/>
			<point x="468" y="-12"/>
			<point x="546" y="69"/>
			<point x="546" y="178" type="curve" smooth="yes"/>
			<point x="546" y="274"/>
			<point x="477" y="329"/>
			<point x="394" y="354" type="curve"/>
			<point x="396" y="329" type="line"/>
			<point x="560" y="509" type="line"/>
			<point x="540" y="609"/>
			<point x="468" y="666"/>
			<point x="370" y="666" type="curve" smooth="yes"/>
			<point x="218" y="666"/>
			<point x="128" y="580"/>
			<point x="100" y="440" type="curve" smooth="yes"/>
			<point x="11" y="0" type="line"/>
			<point x="119" y="0" type="line"/>
			<point x="203" y="421" type="line" smooth="yes"/>
			<point x="226" y="531"/>
			<point x="287" y="580"/>
			<point x="365" y="580" type="curve" smooth="yes"/>
			<point x="418" y="580"/>
			<point x="454" y="547"/>
			<point x="466" y="503" type="curve"/>
			<point x="474" y="540" type="line"/>
			<point x="314" y="362" type="line"/>
			<point x="308" y="297" type="line"/>
			<point x="392" y="276"/>
			<point x="440" y="242"/>
			<point x="440" y="177" type="curve" smooth="yes"/>
			<point x="440" y="120"/>
			<point x="396" y="77"/>
			<point x="333" y="77" type="curve" smooth="yes"/>
			<point x="291" y="77"/>
			<point x="263" y="94"/>
			<point x="240" y="124" type="curve"/>
			<point x="188" y="57" type="line"/>
			<point x="214" y="22"/>
			<point x="269" y="-12"/>
		</contour>
	</outline>
</glyph>
<glyph name="underscoredbl" format="1">
	<unicode hex="2017"/>
	<advance width="600"/>
	<outline>
		<contour>
			<point x="-28" y="-138" type="line"/>
			<point x="452" y="-138" type="line"/>
			<point x="467" y="-63" type="line"/>
			<point x="-13" y="-63" type="line"/>
		</contour>
		<contour>
			<point x="-56" y="-270" type="line"/>
			<point x="424" y="-270" type="line"/>
			<point x="438" y="-196" type="line"/>
			<point x="-42" y="-196" type="line"/>
		</contour>
	</outline>
</glyph>
<glyph name="quoteleft" format="2">
	<unicode hex="2018"/>
	<advance width="600"/>
	<outline>
		<contour>
			<point x="323" y="342" type="curve" smooth="yes"/>
			<point x="376" y="342"/>
			<point x="420" y="387"/>
			<point x="420" y="444" type="curve" smooth="yes"/>
			<point x="420" y="489"/>
			<point x="394" y="515"/>
			<point x="359" y="515" type="curve" smooth="yes"/>
			<point x="334" y="515"/>
			<point x="304" y="502"/>
			<point x="286" y="488" type="curve"/>
			<point x="322" y="403" type="line"/>
			<point x="332" y="501" type="line"/>
			<point x="344" y="562"/>
			<point x="398" y="615"/>
			<point x="482" y="638" type="curve"/>
			<point x="468" y="695" type="line"/>
			<point x="329" y="660"/>
			<point x="236" y="565"/>
			<point x="236" y="445" type="curve" smooth="yes"/>
			<point x="236" y="377"/>
			<point x="271" y="342"/>
		</contour>
	</outline>
</glyph>
<glyph name="quoteright" format="1">
	<unicode hex="2019"/>
	<advance width="600"/>
	<outline>
		<contour>
			<point x="224" y="345" type="line"/>
			<point x="363" y="379"/>
			<point x="456" y="475"/>
			<point x="456" y="595" type="curve" smooth="yes"/>
			<point x="456" y="663"/>
			<point x="420" y="698"/>
			<point x="368" y="698" type="curve" smooth="yes"/>
			<point x="315" y="698"/>
			<point x="271" y="653"/>
			<point x="271" y="596" type="curve" smooth="yes"/>
			<point x="271" y="551"/>
			<point x="298" y="525"/>
			<point x="332" y="525" type="curve" smooth="yes"/>
			<point x="357" y="525"/>
			<point x="387" y="538"/>
			<point x="405" y="552" type="curve"/>
			<point x="369" y="637" type="line"/>
			<point x="360" y="539" type="line"/>
			<point x="347" y="478"/>
			<point x="294" y="426"/>
			<point x="210" y="403" type="curve"/>
		</contour>
	</outline>
</glyph>
<glyph name="quotereversed" format="2">
	<unicode hex="201B"/>
	<advance width="600"/>
	<outline>
		<contour>
			<point x="377" y="347" type="curve"/>
			<point x="413" y="398" type="line"/>
			<point x="338" y="435"/>
			<point x="303" y="474"/>
			<point x="303" y="523" type="curve" smooth="yes"/>
			<point x="303" y="537"/>
			<point x="306" y="551"/>
			<point x="310" y="564" type="curve"/>
			<point x="334" y="639" type="line"/>
			<point x="265" y="563" type="line"/>
			<point x="275" y="544"/>
			<point x="295" y="526"/>
			<point x="328" y="526" type="curve" smooth="yes"/>
			<point x="380" y="526"/>
			<point x="420" y="573"/>
			<point x="420" y="622" type="curve" smooth="yes"/>
			<point x="420" y="667"/>
			<point x="385" y="698"/>
			<point x="342" y="698" type="curve" smooth="yes"/>
			<point x="278" y="698"/>
			<point x="218" y="637"/>
			<point x="218" y="545" type="curve" smooth="yes"/>
			<point x="218" y="463"/>
			<point x="280" y="388"/>
		</contour>
	</outline>
</glyph>
<glyph name="daggerdbl" format="1">
	<unicode hex="2021"/>
	<advance width="600"/>
	<outline>
		<contour>
			<point x="181" y="-80" type="line"/>
			<point x="270" y="-80" type="line"/>
			<point x="295" y="84" type="line"/>
			<point x="439" y="78" type="line"/>
			<point x="457" y="166" type="line"/>
			<point x="310" y="158" type="line"/>
			<point x="348" y="316" type="line"/>
			<point x="373" y="474" type="line"/>
			<point x="516" y="464" type="line"/>
			<point x="533" y="553" type="line"/>
			<point x="387" y="546" type="line"/>
			<point x="426" y="712" type="line"/>
			<point x="338" y="712" type="line"/>
			<point x="311" y="546" type="line"/>
			<point x="168" y="553" type="line"/>
			<point x="151" y="464" type="line"/>
			<point x="298" y="474" type="line"/>
			<point x="259" y="316" type="line"/>
			<point x="235" y="158" type="line"/>
			<point x="91" y="166" type="line"/>
			<point x="74" y="78" type="line"/>
			<point x="219" y="84" type="line"/>
		</contour>
	</outline>
</glyph>
<glyph name="ellipsis" format="1">
	<unicode hex="2026"/>
	<advance width="600"/>
	<outline>
		<contour>
			<point x="36" y="-12" type="curve" smooth="yes"/>
			<point x="94" y="-12"/>
			<point x="131" y="32"/>
			<point x="131" y="87" type="curve" smooth="yes"/>
			<point x="131" y="128"/>
			<point x="108" y="153"/>
			<point x="70" y="153" type="curve" smooth="yes"/>
			<point x="18" y="153"/>
			<point x="-26" y="109"/>
			<point x="-26" y="54" type="curve" smooth="yes"/>
			<point x="-26" y="16"/>
			<point x="-4" y="-12"/>
		</contour>
		<contour>
			<point x="238" y="-12" type="curve" smooth="yes"/>
			<point x="296" y="-12"/>
			<point x="333" y="32"/>
			<point x="333" y="87" type="curve" smooth="yes"/>
			<point x="333" y="128"/>
			<point x="311" y="153"/>
			<point x="273" y="153" type="curve" smooth="yes"/>
			<point x="220" y="153"/>
			<point x="177" y="109"/>
			<point x="177" y="54" type="curve" smooth="yes"/>
			<point x="177" y="16"/>
			<point x="199" y="-12"/>
		</contour>
		<contour>
			<point x="441" y="-12" type="curve" smooth="yes"/>
			<point x="498" y="-12"/>
			<point x="536" y="32"/>
			<point x="536" y="87" type="curve" smooth="yes"/>
			<point x="536" y="128"/>
			<point x="513" y="153"/>
			<point x="475" y="153" type="curve" smooth="yes"/>
			<point x="423" y="153"/>
			<point x="379" y="110"/>
			<point x="379" y="54" type="curve" smooth="yes"/>
			<point x="379" y="16"/>
			<point x="401" y="-12"/>
		</contour>
	</outline>
</glyph>
<glyph name="guilsinglright" format="1">
	<unicode hex="203A"/>
	<advance width="600"/>
	<outline>
		<contour>
			<point x="183" y="41" type="line"/>
			<point x="376" y="204" type="line"/>
			<point x="392" y="291" type="line"/>
			<point x="266" y="462" type="line"/>
			<point x="211" y="422" type="line"/>
			<point x="292" y="257" type="line"/>
			<point x="144" y="85" type="line"/>
		</contour>
	</outline>
</glyph>
<glyph name="overline" format="1">
	<unicode hex="203E"/>
	<advance width="600"/>
	<outline>
		<contour>
			<point x="122" y="582" type="line"/>
			<point x="589" y="582" type="line"/>
			<point x="601" y="644" type="line"/>
			<point x="134" y="644" type="line"/>
		</contour>
	</outline>
</glyph>
<glyph name="undertie" format="2">
	<unicode hex="203F"/>
	<advance width="600"/>
	<outline>
		<contour>
			<point x="190" y="-232" type="curve" smooth="yes"/>
			<point x="348" y="-232"/>
			<point x="506" y="-189"/>
			<point x="652" y="-106" type="curve"/>
			<point x="628" y="-55" type="line"/>
			<point x="492" y="-131"/>
			<point x="333" y="-161"/>
			<point x="204" y="-161" type="curve" smooth="yes"/>
			<point x="73" y="-161"/>
			<point x="-75" y="-131"/>
			<point x="-183" y="-55" type="curve"/>
			<point x="-222" y="-106" type="line"/>
			<point x="-108" y="-189"/>
			<point x="32" y="-232"/>
		</contour>
	</outline>
</glyph>
<glyph name="five.subs" format="2">
	<unicode hex="2085"/>
	<advance width="600"/>
	<outline>
		<contour>
			<point x="242" y="-194" type="curve" smooth="yes"/>
			<point x="324" y="-194"/>
			<point x="397" y="-132"/>
			<point x="397" y="-44" type="curve" smooth="yes"/>
			<point x="397" y="26"/>
			<point x="351" y="70"/>
			<point x="288" y="70" type="curve" smooth="yes"/>
			<point x="276" y="70"/>
			<point x="258" y="67"/>
			<point x="242" y="59" type="curve"/>
			<point x="266" y="140" type="line"/>
			<point x="418" y="140" type="line"/>
			<point x="431" y="208" type="line"/>
			<point x="215" y="208" type="line"/>
			<point x="162" y="18" type="line"/>
			<point x="191" y="-11" type="line"/>
			<point x="214" y="5"/>
			<point x="233" y="13"/>
			<point x="257" y="13" type="curve" smooth="yes"/>
			<point x="293" y="13"/>
			<point x="318" y="-10"/>
			<point x="318" y="-50" type="curve" smooth="yes"/>
			<point x="318" y="-97"/>
			<point x="280" y="-129"/>
			<point x="241" y="-129" type="curve" smooth="yes"/>
			<point x="200" y="-129"/>
			<point x="174" y="-108"/>
			<point x="156" y="-76" type="curve"/>
			<point x="102" y="-114" type="line"/>
			<point x="128" y="-159"/>
			<point x="175" y="-194"/>
		</contour>
	</outline>
</glyph>
<glyph name="six.subs" format="2">
	<unicode hex="2086"/>
	<advance width="600"/>
	<outline>
		<contour>
			<point x="255" y="-194" type="curve" smooth="yes"/>
			<point x="329" y="-194"/>
			<point x="399" y="-134"/>
			<point x="399" y="-44" type="curve" smooth="yes"/>
			<point x="399" y="18"/>
			<point x="359" y="62"/>
			<point x="293" y="62" type="curve" smooth="yes"/>
			<point x="256" y="62"/>
			<point x="219" y="42"/>
			<point x="199" y="18" type="curve"/>
			<point x="192" y="-41" type="line"/>
			<point x="215" y="-10"/>
			<point x="246" y="6"/>
			<point x="273" y="6" type="curve" smooth="yes"/>
			<point x="306" y="6"/>
			<point x="325" y="-15"/>
			<point x="325" y="-49" type="curve" smooth="yes"/>
			<point x="325" y="-97"/>
			<point x="294" y="-129"/>
			<point x="262" y="-129" type="curve" smooth="yes"/>
			<point x="228" y="-129"/>
			<point x="200" y="-105"/>
			<point x="200" y="-39" type="curve" smooth="yes"/>
			<point x="200" y="88"/>
			<point x="253" y="155"/>
			<point x="322" y="155" type="curve" smooth="yes"/>
			<point x="352" y="155"/>
			<point x="371" y="146"/>
			<point x="390" y="127" type="curve"/>
			<point x="434" y="177" type="line"/>
			<point x="408" y="205"/>
			<point x="373" y="220"/>
			<point x="329" y="220" type="curve" smooth="yes"/>
			<point x="223" y="220"/>
			<point x="124" y="130"/>
			<point x="124" y="-40" type="curve" smooth="yes"/>
			<point x="124" y="-131"/>
			<point x="178" y="-194"/>
		</contour>
	</outline>
</glyph>
<glyph name="parenright.subs" format="2">
	<unicode hex="208E"/>
	<advance width="600"/>
	<outline>
		<contour>
			<point x="189" y="-266" type="line"/>
			<point x="295" y="-141"/>
			<point x="340" y="-46"/>
			<point x="340" y="94" type="curve" smooth="yes"/>
			<point x="340" y="166"/>
			<point x="323" y="233"/>
			<point x="297" y="290" type="curve"/>
			<point x="237" y="264" type="line"/>
			<point x="256" y="215"/>
			<point x="264" y="148"/>
			<point x="264" y="94" type="curve" smooth="yes"/>
			<point x="264" y="-25"/>
			<point x="223" y="-128"/>
			<point x="136" y="-240" type="curve"/>
		</contour>
	</outline>
</glyph>
<glyph name="colonmonetary" format="2">
	<unicode hex="20A1"/>
	<advance width="600"/>
	<outline>
		<contour>
			<point x="287" y="-12" type="curve" smooth="yes"/>
			<point x="378" y="-12"/>
			<point x="447" y="22"/>
			<point x="509" y="82" type="curve"/>
			<point x="456" y="151" type="line"/>
			<point x="413" y="105"/>
			<point x="366" y="77"/>
			<point x="308" y="77" type="curve" smooth="yes"/>
			<point x="234" y="77"/>
			<point x="186" y="136"/>
			<point x="186" y="241" type="curve" smooth="yes"/>
			<point x="186" y="412"/>
			<point x="281" y="564"/>
			<point x="415" y="564" type="curve" smooth="yes"/>
			<point x="467" y="564"/>
			<point x="499" y="537"/>
			<point x="526" y="496" type="curve"/>
			<point x="592" y="549" type="line"/>
			<point x="559" y="602"/>
			<point x="506" y="649"/>
			<point x="420" y="649" type="curve" smooth="yes"/>
			<point x="230" y="649"/>
			<point x="79" y="486"/>
			<point x="79" y="237" type="curve" smooth="yes"/>
			<point x="79" y="81"/>
			<point x="161" y="-12"/>
		</contour>
		<contour>
			<point x="139" y="-110" type="line"/>
			<point x="181" y="-110" type="line"/>
			<point x="454" y="747" type="line"/>
			<point x="412" y="747" type="line"/>
		</contour>
		<contour>
			<point x="233" y="-110" type="line"/>
			<point x="275" y="-110" type="line"/>
			<point x="548" y="747" type="line"/>
			<point x="506" y="747" type="line"/>
		</contour>
	</outline>
</glyph>
<glyph name="franc" format="2">
	<unicode hex="20A3"/>
	<advance width="600"/>
	<outline>
		<contour>
			<point x="73" y="0" type="line"/>
			<point x="181" y="0" type="line"/>
			<point x="238" y="286" type="line"/>
			<point x="478" y="286" type="line"/>
			<point x="496" y="377" type="line"/>
			<point x="256" y="377" type="line"/>
			<point x="288" y="546" type="line"/>
			<point x="576" y="546" type="line"/>
			<point x="594" y="636" type="line"/>
			<point x="200" y="636" type="line"/>
		</contour>
		<contour>
			<point x="17" y="114" type="line"/>
			<point x="356" y="114" type="line"/>
			<point x="370" y="182" type="line"/>
			<point x="112" y="182" type="line"/>
			<point x="30" y="177" type="line"/>
		</contour>
	</outline>
</glyph>
<glyph name="naira" format="2">
	<unicode hex="20A6"/>
	<advance width="600"/>
	<outline>
		<contour>
			<point x="56" y="0" type="line"/>
			<point x="135" y="0" type="line"/>
			<point x="187" y="259" type="line"/>
			<point x="227" y="550" type="line"/>
			<point x="232" y="550" type="line"/>
			<point x="263" y="360" type="line"/>
			<point x="320" y="0" type="line"/>
			<point x="423" y="0" type="line"/>
			<point x="550" y="637" type="line"/>
			<point x="471" y="637" type="line"/>
			<point x="419" y="377" type="line"/>
			<point x="378" y="80" type="line"/>
			<point x="374" y="81" type="line"/>
			<point x="343" y="278" type="line"/>
			<point x="285" y="637" type="line"/>
			<point x="183" y="637" type="line"/>
		</contour>
		<contour>
			<point x="49" y="349" type="line"/>
			<point x="569" y="349" type="line"/>
			<point x="578" y="395" type="line"/>
			<point x="131" y="395" type="line"/>
			<point x="58" y="390" type="line"/>
		</contour>
		<contour>
			<point x="29" y="243" type="line"/>
			<point x="548" y="243" type="line"/>
			<point x="557" y="289" type="line"/>
			<point x="111" y="289" type="line"/>
			<point x="37" y="284" type="line"/>
		</contour>
	</outline>
</glyph>
<glyph name="peso" format="1">
	<unicode hex="20B1"/>
	<advance width="600"/>
	<outline>
		<contour>
			<point x="52" y="0" type="line"/>
			<point x="152" y="0" type="line"/>
			<point x="200" y="235" type="line"/>
			<point x="260" y="235" type="line" smooth="yes"/>
			<point x="408" y="235"/>
			<point x="537" y="313"/>
			<point x="537" y="479" type="curve" smooth="yes"/>
			<point x="537" y="594"/>
			<point x="458" y="637"/>
			<point x="340" y="637" type="curve" smooth="yes"/>
			<point x="180" y="637" type="line"/>
		</contour>
		<contour>
			<point x="214" y="305" type="line"/>
			<point x="266" y="568" type="line"/>
			<point x="318" y="568" type="line" smooth="yes"/>
			<point x="395" y="568"/>
			<point x="437" y="540"/>
			<point x="437" y="470" type="curve" smooth="yes"/>
			<point x="437" y="366"/>
			<point x="377" y="305"/>
			<point x="264" y="305" type="curve" smooth="yes"/>
		</contour>
		<contour>
			<point x="73" y="467" type="line"/>
			<point x="598" y="467" type="line"/>
			<point x="607" y="513" type="line"/>
			<point x="161" y="513" type="line"/>
			<point x="81" y="508" type="line"/>
		</contour>
		<contour>
			<point x="52" y="366" type="line"/>
			<point x="577" y="366" type="line"/>
			<point x="587" y="411" type="line"/>
			<point x="141" y="411" type="line"/>
			<point x="61" y="406" type="line"/>
		</contour>
	</outline>
</glyph>
<glyph name="guarani" format="1">
	<unicode hex="20B2"/>
	<advance width="600"/>
	<outline>
		<contour>
			<point x="275" y="-12" type="curve" smooth="yes"/>
			<point x="346" y="-12"/>
			<point x="416" y="7"/>
			<point x="478" y="50" type="curve"/>
			<point x="534" y="342" type="line"/>
			<point x="337" y="342" type="line"/>
			<point x="320" y="259" type="line"/>
			<point x="423" y="259" type="line"/>
			<point x="394" y="108" type="line"/>
			<point x="372" y="92"/>
			<point x="331" y="78"/>
			<point x="287" y="80" type="curve" smooth="yes"/>
			<point x="216" y="81"/>
			<point x="174" y="142"/>
			<point x="174" y="244" type="curve" smooth="yes"/>
			<point x="174" y="418"/>
			<point x="266" y="563"/>
			<point x="393" y="563" type="curve" smooth="yes"/>
			<point x="446" y="563"/>
			<point x="475" y="538"/>
			<point x="501" y="500" type="curve"/>
			<point x="570" y="555" type="line"/>
			<point x="534" y="609"/>
			<point x="482" y="648"/>
			<point x="407" y="648" type="curve" smooth="yes"/>
			<point x="204" y="648"/>
			<point x="65" y="482"/>
			<point x="65" y="241" type="curve" smooth="yes"/>
			<point x="65" y="85"/>
			<point x="138" y="-12"/>
		</contour>
		<contour>
			<point x="365" y="613" type="line"/>
			<point x="438" y="613" type="line"/>
			<point x="466" y="747" type="line"/>
			<point x="392" y="747" type="line"/>
		</contour>
		<contour>
			<point x="217" y="-113" type="line"/>
			<point x="291" y="-113" type="line"/>
			<point x="320" y="25" type="line"/>
			<point x="246" y="25" type="line"/>
		</contour>
	</outline>
</glyph>
<glyph name="cedi" format="2">
	<unicode hex="20B5"/>
	<advance width="600"/>
	<outline>
		<contour>
			<point x="291" y="-12" type="curve" smooth="yes"/>
			<point x="378" y="-12"/>
			<point x="452" y="22"/>
			<point x="513" y="81" type="curve"/>
			<point x="463" y="150" type="line"/>
			<point x="419" y="108"/>
			<point x="370" y="79"/>
			<point x="313" y="79" type="curve" smooth="yes"/>
			<point x="237" y="79"/>
			<point x="192" y="137"/>
			<point x="192" y="244" type="curve" smooth="yes"/>
			<point x="192" y="418"/>
			<point x="290" y="563"/>
			<point x="412" y="563" type="curve" smooth="yes"/>
			<point x="466" y="563"/>
			<point x="494" y="538"/>
			<point x="522" y="498" type="curve"/>
			<point x="590" y="553" type="line"/>
			<point x="556" y="605"/>
			<point x="509" y="649"/>
			<point x="423" y="649" type="curve" smooth="yes"/>
			<point x="236" y="649"/>
			<point x="82" y="490"/>
			<point x="82" y="236" type="curve" smooth="yes"/>
			<point x="82" y="79"/>
			<point x="167" y="-12"/>
		</contour>
		<contour>
			<point x="238" y="-110" type="line"/>
			<point x="302" y="-110" type="line"/>
			<point x="472" y="741" type="line"/>
			<point x="409" y="741" type="line"/>
		</contour>
	</outline>
</glyph>
<glyph name="liraturkish" format="1">
	<unicode hex="20BA"/>
	<advance width="600"/>
	<outline>
		<contour>
			<point x="84" y="-12" type="line"/>
			<point x="380" y="-19"/>
			<point x="524" y="76"/>
			<point x="533" y="246" type="curve" smooth="yes"/>
			<point x="535" y="267"/>
			<point x="531" y="288"/>
			<point x="528" y="297" type="curve"/>
			<point x="440" y="279" type="line"/>
			<point x="441" y="272"/>
			<point x="442" y="259"/>
			<point x="441" y="248" type="curve" smooth="yes"/>
			<point x="436" y="148"/>
			<point x="347" y="93"/>
			<point x="212" y="87" type="curve"/>
			<point x="320" y="636" type="line"/>
			<point x="214" y="636" type="line"/>
		</contour>
		<contour>
			<point x="76" y="356" type="line"/>
			<point x="169" y="395" type="line"/>
			<point x="275" y="425" type="line"/>
			<point x="485" y="519" type="line"/>
			<point x="465" y="565" type="line"/>
			<point x="286" y="486" type="line"/>
			<point x="180" y="456" type="line"/>
			<point x="57" y="402" type="line"/>
		</contour>
		<contour>
			<point x="53" y="227" type="line"/>
			<point x="145" y="266" type="line"/>
			<point x="252" y="297" type="line"/>
			<point x="461" y="390" type="line"/>
			<point x="441" y="436" type="line"/>
			<point x="262" y="357" type="line"/>
			<point x="156" y="327" type="line"/>
			<point x="34" y="273" type="line"/>
		</contour>
	</outline>
</glyph>
<glyph name="soundcopyright" format="1">
	<unicode hex="2117"/>
	<advance width="600"/>
	<outline>
		<contour>
			<point x="240" y="-10" type="curve" smooth="yes"/>
			<point x="432" y="-10"/>
			<point x="590" y="158"/>
			<point x="590" y="398" type="curve" smooth="yes"/>
			<point x="590" y="556"/>
			<point x="501" y="654"/>
			<point x="372" y="654" type="curve" smooth="yes"/>
			<point x="182" y="654"/>
			<point x="23" y="491"/>
			<point x="23" y="249" type="curve" smooth="yes"/>
			<point x="23" y="90"/>
			<point x="111" y="-10"/>
		</contour>
		<contour>
			<point x="246" y="39" type="curve" smooth="yes"/>
			<point x="138" y="39"/>
			<point x="76" y="125"/>
			<point x="76" y="254" type="curve" smooth="yes"/>
			<point x="76" y="457"/>
			<point x="203" y="605"/>
			<point x="363" y="605" type="curve" smooth="yes"/>
			<point x="472" y="605"/>
			<point x="536" y="522"/>
			<point x="536" y="393" type="curve" smooth="yes"/>
			<point x="536" y="192"/>
			<point x="407" y="39"/>
		</contour>
		<contour>
			<point x="165" y="141" type="line"/>
			<point x="239" y="141" type="line"/>
			<point x="300" y="451" type="line"/>
			<point x="289" y="443" type="line"/>
			<point x="335" y="443" type="line" smooth="yes"/>
			<point x="375" y="443"/>
			<point x="395" y="430"/>
			<point x="395" y="394" type="curve" smooth="yes"/>
			<point x="395" y="337"/>
			<point x="361" y="306"/>
			<point x="302" y="306" type="curve" smooth="yes"/>
			<point x="251" y="306" type="line"/>
			<point x="239" y="247" type="line"/>
			<point x="297" y="247" type="line" smooth="yes"/>
			<point x="382" y="247"/>
			<point x="474" y="287"/>
			<point x="474" y="404" type="curve" smooth="yes"/>
			<point x="474" y="477"/>
			<point x="420" y="504"/>
			<point x="357" y="504" type="curve" smooth="yes"/>
			<point x="237" y="504" type="line"/>
		</contour>
	</outline>
</glyph>
<glyph name="onetenth" format="1">
	<unicode hex="2152"/>
	<advance width="600"/>
	<outline>
		<contour>
			<point x="169" y="401" type="line"/>
			<point x="249" y="401" type="line"/>
			<point x="296" y="637" type="line"/>
			<point x="233" y="637" type="line"/>
			<point x="201" y="619"/>
			<point x="177" y="610"/>
			<point x="130" y="603" type="curve"/>
			<point x="119" y="553" type="line"/>
			<point x="200" y="553" type="line"/>
		</contour>
		<contour>
			<point x="106" y="272" type="line"/>
			<point x="602" y="427" type="line"/>
			<point x="582" y="498" type="line"/>
			<point x="94" y="307" type="line"/>
		</contour>
		<contour>
			<point x="90" y="0" type="line"/>
			<point x="170" y="0" type="line"/>
			<point x="217" y="236" type="line"/>
			<point x="154" y="236" type="line"/>
			<point x="121" y="218"/>
			<point x="98" y="209"/>
			<point x="50" y="202" type="curve"/>
			<point x="40" y="152" type="line"/>
			<point x="121" y="152" type="line"/>
		</contour>
		<contour>
			<point x="372" y="-13" type="curve" smooth="yes"/>
			<point x="460" y="-13"/>
			<point x="523" y="53"/>
			<point x="523" y="147" type="curve" smooth="yes"/>
			<point x="523" y="209"/>
			<point x="486" y="248"/>
			<point x="426" y="248" type="curve" smooth="yes"/>
			<point x="343" y="248"/>
			<point x="274" y="185"/>
			<point x="274" y="90" type="curve" smooth="yes"/>
			<point x="274" y="29"/>
			<point x="312" y="-13"/>
		</contour>
		<contour>
			<point x="339" y="94" type="curve" smooth="yes"/>
			<point x="339" y="158"/>
			<point x="377" y="198"/>
			<point x="418" y="198" type="curve" smooth="yes"/>
			<point x="444" y="198"/>
			<point x="458" y="180"/>
			<point x="458" y="143" type="curve" smooth="yes"/>
			<point x="458" y="75"/>
			<point x="421" y="38"/>
			<point x="381" y="38" type="curve" smooth="yes"/>
			<point x="354" y="38"/>
			<point x="339" y="57"/>
		</contour>
	</outline>
</glyph>
<glyph name="arrowup" format="1">
	<unicode hex="2191"/>
	<advance width="600"/>
	<outline>
		<contour>
			<point x="256" y="-25" type="line"/>
			<point x="344" y="-25" type="line"/>
			<point x="344" y="381" type="line"/>
			<point x="509" y="201" type="line"/>
			<point x="568" y="254" type="line"/>
			<point x="302" y="528" type="line"/>
			<point x="298" y="528" type="line"/>
			<point x="32" y="254" type="line"/>
			<point x="91" y="201" type="line"/>
			<point x="256" y="381" type="line"/>
		</contour>
	</outline>
</glyph>
<glyph name="arrowboth" format="1">
	<unicode hex="2194"/>
	<advance width="600"/>
	<outline>
		<contour>
			<point x="612" y="254" type="line"/>
			<point x="433" y="471" type="line"/>
			<point x="375" y="425" type="line"/>
			<point x="487" y="296" type="line"/>
			<point x="113" y="296" type="line"/>
			<point x="225" y="425" type="line"/>
			<point x="167" y="471" type="line"/>
			<point x="-12" y="254" type="line"/>
			<point x="-12" y="250" type="line"/>
			<point x="167" y="33" type="line"/>
			<point x="225" y="79" type="line"/>
			<point x="113" y="208" type="line"/>
			<point x="487" y="208" type="line"/>
			<point x="375" y="79" type="line"/>
			<point x="433" y="33" type="line"/>
			<point x="612" y="250" type="line"/>
		</contour>
	</outline>
</glyph>
<glyph name="arrowupdn" format="1">
	<unicode hex="2195"/>
	<advance width="600"/>
	<outline>
		<contour>
			<point x="302" y="-57" type="line"/>
			<point x="519" y="122" type="line"/>
			<point x="473" y="180" type="line"/>
			<point x="344" y="68" type="line"/>
			<point x="344" y="435" type="line"/>
			<point x="473" y="323" type="line"/>
			<point x="519" y="381" type="line"/>
			<point x="302" y="560" type="line"/>
			<point x="298" y="560" type="line"/>
			<point x="81" y="381" type="line"/>
			<point x="127" y="323" type="line"/>
			<point x="256" y="435" type="line"/>
			<point x="256" y="68" type="line"/>
			<point x="127" y="180" type="line"/>
			<point x="81" y="122" type="line"/>
			<point x="298" y="-57" type="line"/>
		</contour>
	</outline>
</glyph>
<glyph name="arrowupleft" format="1">
	<unicode hex="2196"/>
	<advance width="600"/>
	<outline>
		<contour>
			<point x="457" y="25" type="line"/>
			<point x="518" y="87" type="line"/>
			<point x="231" y="375" type="line"/>
			<point x="476" y="364" type="line"/>
			<point x="480" y="443" type="line"/>
			<point x="98" y="449" type="line"/>
			<point x="95" y="446" type="line"/>
			<point x="101" y="64" type="line"/>
			<point x="181" y="68" type="line"/>
			<point x="169" y="313" type="line"/>
		</contour>
	</outline>
</glyph>
<glyph name="arrowupright" format="1">
	<unicode hex="2197"/>
	<advance width="600"/>
	<outline>
		<contour>
			<point x="135" y="25" type="line"/>
			<point x="423" y="313" type="line"/>
			<point x="412" y="68" type="line"/>
			<point x="491" y="64" type="line"/>
			<point x="497" y="446" type="line"/>
			<point x="494" y="449" type="line"/>
			<point x="112" y="443" type="line"/>
			<point x="116" y="364" type="line"/>
			<point x="361" y="374" type="line"/>
			<point x="74" y="87" type="line"/>
		</contour>
	</outline>
</glyph>
<glyph name="arrowdblleft" format="2">
	<unicode hex="21D0"/>
	<advance width="600"/>
	<outline>
		<contour>
			<point x="290" y="-16" type="line"/>
			<point x="343" y="43" type="line"/>
			<point x="114" y="250" type="line"/>
			<point x="114" y="254" type="line"/>
			<point x="343" y="461" type="line"/>
			<point x="290" y="520" type="line"/>
			<point x="16" y="254" type="line"/>
			<point x="16" y="250" type="line"/>
		</contour>
		<contour>
			<point x="150" y="305" type="line"/>
			<point x="569" y="305" type="line"/>
			<point x="569" y="371" type="line"/>
			<point x="150" y="371" type="line"/>
		</contour>
		<contour>
			<point x="150" y="133" type="line"/>
			<point x="569" y="133" type="line"/>
			<point x="569" y="199" type="line"/>
			<point x="150" y="199" type="line"/>
		</contour>
	</outline>
</glyph>
<glyph name="arrowdblup" format="1">
	<unicode hex="21D1"/>
	<advance width="600"/>
	<outline>
		<contour>
			<point x="91" y="201" type="line"/>
			<point x="298" y="429" type="line"/>
			<point x="302" y="429" type="line"/>
			<point x="509" y="201" type="line"/>
			<point x="568" y="254" type="line"/>
			<point x="302" y="528" type="line"/>
			<point x="298" y="528" type="line"/>
			<point x="32" y="254" type="line"/>
		</contour>
		<contour>
			<point x="353" y="-25" type="line"/>
			<point x="419" y="-25" type="line"/>
			<point x="419" y="393" type="line"/>
			<point x="353" y="393" type="line"/>
		</contour>
		<contour>
			<point x="181" y="-25" type="line"/>
			<point x="247" y="-25" type="line"/>
			<point x="247" y="393" type="line"/>
			<point x="181" y="393" type="line"/>
		</contour>
	</outline>
</glyph>
<glyph name="partialdiff" format="1">
	<unicode hex="2202"/>
	<advance width="600"/>
	<outline>
		<contour>
			<point x="213" y="-12" type="curve" smooth="yes"/>
			<point x="405" y="-12"/>
			<point x="554" y="198"/>
			<point x="554" y="448" type="curve" smooth="yes"/>
			<point x="554" y="611"/>
			<point x="477" y="671"/>
			<point x="375" y="671" type="curve" smooth="yes"/>
			<point x="320" y="671"/>
			<point x="262" y="652"/>
			<point x="213" y="615" type="curve"/>
			<point x="252" y="547" type="line"/>
			<point x="282" y="570"/>
			<point x="313" y="585"/>
			<point x="355" y="585" type="curve" smooth="yes"/>
			<point x="411" y="585"/>
			<point x="453" y="545"/>
			<point x="453" y="448" type="curve" smooth="yes"/>
			<point x="453" y="260"/>
			<point x="353" y="75"/>
			<point x="230" y="75" type="curve" smooth="yes"/>
			<point x="176" y="75"/>
			<point x="145" y="111"/>
			<point x="145" y="171" type="curve" smooth="yes"/>
			<point x="145" y="258"/>
			<point x="205" y="328"/>
			<point x="301" y="328" type="curve" smooth="yes"/>
			<point x="358" y="328"/>
			<point x="399" y="289"/>
			<point x="427" y="235" type="curve"/>
			<point x="454" y="319" type="line"/>
			<point x="426" y="368"/>
			<point x="367" y="409"/>
			<point x="293" y="409" type="curve" smooth="yes"/>
			<point x="147" y="409"/>
			<point x="40" y="308"/>
			<point x="40" y="162" type="curve" smooth="yes"/>
			<point x="40" y="45"/>
			<point x="110" y="-12"/>
		</contour>
	</outline>
</glyph>
<glyph name="Delta.math" format="2">
	<unicode hex="2206"/>
	<advance width="600"/>
	<outline>
		<contour>
			<point x="-31" y="0" type="line"/>
			<point x="513" y="0" type="line"/>
			<point x="525" y="63" type="line"/>
			<point x="433" y="655" type="line"/>
			<point x="309" y="655" type="line"/>
			<point x="-19" y="63" type="line"/>
		</contour>
		<contour>
			<point x="101" y="90" type="line"/>
			<point x="245" y="361" type="line"/>
			<point x="350" y="566" type="line"/>
			<point x="354" y="566" type="line"/>
			<point x="377" y="361" type="line"/>
			<point x="413" y="90" type="line"/>
		</contour>
	</outline>
</glyph>
<glyph name="product" format="2">
	<unicode hex="220F"/>
	<advance width="600"/>
	<outline>
		<contour>
			<point x="38" y="-120" type="line"/>
			<point x="146" y="-120" type="line"/>
			<point x="146" y="542" type="line"/>
			<point x="446" y="542" type="line"/>
			<point x="446" y="-120" type="line"/>
			<point x="554" y="-120" type="line"/>
			<point x="554" y="636" type="line"/>
			<point x="38" y="636" type="line"/>
		</contour>
	</outline>
</glyph>
<glyph name="minus" format="1">
	<unicode hex="2212"/>
	<advance width="600"/>
	<outline>
		<contour>
			<point x="80" y="291" type="line"/>
			<point x="520" y="291" type="line"/>
			<point x="520" y="369" type="line"/>
			<point x="80" y="369" type="line"/>
		</contour>
	</outline>
</glyph>
<glyph name="radical" format="2">
	<unicode hex="221A"/>
	<advance width="600"/>
	<outline>
		<contour>
			<point x="295" y="-89" type="line"/>
			<point x="373" y="-89" type="line"/>
			<point x="590" y="820" type="line"/>
			<point x="515" y="820" type="line"/>
			<point x="345" y="93" type="line" smooth="yes"/>
			<point x="340" y="70"/>
			<point x="336" y="46"/>
			<point x="332" y="22" type="curve"/>
			<point x="328" y="22" type="line"/>
			<point x="322" y="46"/>
			<point x="317" y="70"/>
			<point x="309" y="93" type="curve" smooth="yes"/>
			<point x="200" y="419" type="line"/>
			<point x="51" y="355" type="line"/>
			<point x="73" y="301" type="line"/>
			<point x="145" y="332" type="line"/>
		</contour>
	</outline>
</glyph>
<glyph name="infinity" format="1">
	<unicode hex="221E"/>
	<advance width="600"/>
	<outline>
		<contour>
			<point x="446" y="139" type="curve" smooth="yes"/>
			<point x="539" y="139"/>
			<point x="607" y="215"/>
			<point x="607" y="337" type="curve" smooth="yes"/>
			<point x="607" y="441"/>
			<point x="540" y="516"/>
			<point x="450" y="516" type="curve" smooth="yes"/>
			<point x="380" y="516"/>
			<point x="330" y="476"/>
			<point x="287" y="406" type="curve"/>
			<point x="283" y="406" type="line"/>
			<point x="253" y="460"/>
			<point x="209" y="500"/>
			<point x="146" y="500" type="curve" smooth="yes"/>
			<point x="57" y="500"/>
			<point x="-7" y="433"/>
			<point x="-7" y="321" type="curve" smooth="yes"/>
			<point x="-7" y="234"/>
			<point x="54" y="161"/>
			<point x="130" y="161" type="curve" smooth="yes"/>
			<point x="195" y="161"/>
			<point x="240" y="205"/>
			<point x="270" y="254" type="curve"/>
			<point x="274" y="254" type="line"/>
			<point x="326" y="171"/>
			<point x="374" y="139"/>
		</contour>
		<contour>
			<point x="145" y="241" type="curve" smooth="yes"/>
			<point x="105" y="241"/>
			<point x="74" y="278"/>
			<point x="74" y="324" type="curve" smooth="yes"/>
			<point x="74" y="371"/>
			<point x="100" y="400"/>
			<point x="142" y="400" type="curve" smooth="yes"/>
			<point x="177" y="400"/>
			<point x="208" y="376"/>
			<point x="237" y="317" type="curve"/>
			<point x="214" y="267"/>
			<point x="183" y="241"/>
		</contour>
		<contour>
			<point x="441" y="240" type="curve" smooth="yes"/>
			<point x="393" y="240"/>
			<point x="358" y="270"/>
			<point x="319" y="344" type="curve"/>
			<point x="355" y="408"/>
			<point x="392" y="436"/>
			<point x="434" y="436" type="curve" smooth="yes"/>
			<point x="492" y="436"/>
			<point x="526" y="395"/>
			<point x="526" y="334" type="curve" smooth="yes"/>
			<point x="526" y="284"/>
			<point x="495" y="240"/>
		</contour>
	</outline>
</glyph>
<glyph name="intersection" format="1">
	<unicode hex="2229"/>
	<advance width="600"/>
	<outline>
		<contour>
			<point x="87" y="100" type="line"/>
			<point x="169" y="100" type="line"/>
			<point x="169" y="340" type="line" smooth="yes"/>
			<point x="169" y="438"/>
			<point x="220" y="492"/>
			<point x="300" y="492" type="curve" smooth="yes"/>
			<point x="380" y="492"/>
			<point x="431" y="438"/>
			<point x="431" y="340" type="curve" smooth="yes"/>
			<point x="431" y="100" type="line"/>
			<point x="513" y="100" type="line"/>
			<point x="513" y="352" type="line" smooth="yes"/>
			<point x="513" y="486"/>
			<point x="424" y="574"/>
			<point x="300" y="574" type="curve" smooth="yes"/>
			<point x="176" y="574"/>
			<point x="87" y="486"/>
			<point x="87" y="352" type="curve" smooth="yes"/>
		</contour>
	</outline>
</glyph>
<glyph name="greaterequal" format="2">
	<unicode hex="2265"/>
	<advance width="600"/>
	<outline>
		<contour>
			<point x="80" y="0" type="line"/>
			<point x="520" y="0" type="line"/>
			<point x="520" y="79" type="line"/>
			<point x="80" y="79" type="line"/>
		</contour>
		<contour>
			<point x="80" y="153" type="line"/>
			<point x="520" y="302" type="line"/>
			<point x="520" y="395" type="line"/>
			<point x="80" y="543" type="line"/>
			<point x="80" y="453" type="line"/>
			<point x="275" y="390" type="line"/>
			<point x="411" y="351" type="line"/>
			<point x="411" y="347" type="line"/>
			<point x="275" y="306" type="line"/>
			<point x="80" y="244" type="line"/>
		</contour>
	</outline>
</glyph>
<glyph name="revlogicalnot" format="1">
	<unicode hex="2310"/>
	<advance width="600"/>
	<outline>
		<contour>
			<point x="80" y="100" type="line"/>
			<point x="161" y="100" type="line"/>
			<point x="161" y="291" type="line"/>
			<point x="520" y="291" type="line"/>
			<point x="520" y="369" type="line"/>
			<point x="80" y="369" type="line"/>
		</contour>
	</outline>
</glyph>
<glyph name="ceilingleft" format="2">
	<unicode hex="231C"/>
	<advance width="600"/>
	<outline>
		<contour>
			<point x="148" y="0" type="line"/>
			<point x="230" y="0" type="line"/>
			<point x="360" y="649" type="line"/>
			<point x="561" y="649" type="line"/>
			<point x="572" y="708" type="line"/>
			<point x="291" y="708" type="line"/>
		</contour>
	</outline>
</glyph>
<glyph name="ceilingright" format="2">
	<unicode hex="231D"/>
	<advance width="600"/>
	<outline>
		<contour>
			<point x="245" y="0" type="line"/>
			<point x="327" y="0" type="line"/>
			<point x="469" y="708" type="line"/>
			<point x="187" y="708" type="line"/>
			<point x="176" y="649" type="line"/>
			<point x="376" y="649" type="line"/>
		</contour>
	</outline>
</glyph>
<glyph name="floorleft" format="1">
	<unicode hex="231E"/>
	<advance width="600"/>
	<outline>
		<contour>
			<point x="137" y="-54" type="line"/>
			<point x="419" y="-54" type="line"/>
			<point x="430" y="5" type="line"/>
			<point x="230" y="5" type="line"/>
			<point x="358" y="636" type="line"/>
			<point x="276" y="636" type="line"/>
		</contour>
	</outline>
</glyph>
<glyph name="integraltp" format="2">
	<unicode hex="2320"/>
	<advance width="600"/>
	<outline>
		<contour>
			<point x="352" y="-400" type="line"/>
			<point x="352" y="557" type="line"/>
			<point x="352" y="656"/>
			<point x="363" y="708"/>
			<point x="417" y="708" type="curve" smooth="yes"/>
			<point x="431" y="708"/>
			<point x="443" y="706"/>
			<point x="452" y="704" type="curve"/>
			<point x="463" y="783" type="line"/>
			<point x="454" y="787"/>
			<point x="433" y="790"/>
			<point x="413" y="790" type="curve" smooth="yes"/>
			<point x="281" y="790"/>
			<point x="255" y="688"/>
			<point x="255" y="554" type="curve"/>
			<point x="255" y="-400" type="line"/>
		</contour>
	</outline>
</glyph>
<glyph name="heavyhorzbxd" format="1">
	<unicode hex="2501"/>
	<advance width="600"/>
	<outline>
		<contour>
			<point x="-54" y="192" type="line"/>
			<point x="654" y="192" type="line"/>
			<point x="654" y="408" type="line"/>
			<point x="-54" y="408" type="line"/>
		</contour>
	</outline>
</glyph>
<glyph name="heavyquaddashhorzbxd" format="1">
	<unicode hex="2509"/>
	<advance width="600"/>
	<outline>
		<contour>
			<point x="469" y="192" type="line"/>
			<point x="581" y="192" type="line"/>
			<point x="581" y="408" type="line"/>
			<point x="469" y="408" type="line"/>
		</contour>
		<contour>
			<point x="319" y="192" type="line"/>
			<point x="431" y="192" type="line"/>
			<point x="431" y="408" type="line"/>
			<point x="319" y="408" type="line"/>
		</contour>
		<contour>
			<point x="169" y="192" type="line"/>
			<point x="281" y="192" type="line"/>
			<point x="281" y="408" type="line"/>
			<point x="169" y="408" type="line"/>
		</contour>
		<contour>
			<point x="19" y="192" type="line"/>
			<point x="131" y="192" type="line"/>
			<point x="131" y="408" type="line"/>
			<point x="19" y="408" type="line"/>
		</contour>
	</outline>
</glyph>
<glyph name="upheavyrightdnlightbxd" format="1">
	<unicode hex="251E"/>
	<advance width="600"/>
	<outline>
		<contour>
			<point x="654" y="246" type="line"/>
			<point x="654" y="354" type="line"/>
			<point x="408" y="354" type="line"/>
			<point x="408" y="1000" type="line"/>
			<point x="192" y="1000" type="line"/>
			<point x="192" y="246" type="line"/>
			<point x="246" y="246" type="line"/>
			<point x="246" y="-400" type="line"/>
			<point x="354" y="-400" type="line"/>
			<point x="354" y="246" type="line"/>
		</contour>
	</outline>
</glyph>
<glyph name="lightvertleftbxd" format="1">
	<unicode hex="2524"/>
	<advance width="600"/>
	<outline>
		<contour>
			<point x="354" y="-400" type="line"/>
			<point x="354" y="1000" type="line"/>
			<point x="246" y="1000" type="line"/>
			<point x="246" y="354" type="line"/>
			<point x="-54" y="354" type="line"/>
			<point x="-54" y="246" type="line"/>
			<point x="246" y="246" type="line"/>
			<point x="246" y="-400" type="line"/>
		</contour>
	</outline>
</glyph>
<glyph name="lightdnhorzbxd" format="2">
	<unicode hex="252C"/>
	<advance width="600"/>
	<outline>
		<contour>
			<point x="654" y="246" type="line"/>
			<point x="654" y="354" type="line"/>
			<point x="-54" y="354" type="line"/>
			<point x="-54" y="246" type="line"/>
			<point x="246" y="246" type="line"/>
			<point x="246" y="-400" type="line"/>
			<point x="354" y="-400" type="line"/>
			<point x="354" y="246" type="line"/>
		</contour>
	</outline>
</glyph>
<glyph name="dndblrightsngbxd" format="1">
	<unicode hex="2553"/>
	<advance width="600"/>
	<outline>
		<contour>
			<point x="354" y="-400" type="line"/>
			<point x="462" y="-400" type="line"/>
			<point x="462" y="246" type="line"/>
			<point x="654" y="246" type="line"/>
			<point x="654" y="354" type="line"/>
			<point x="138" y="354" type="line"/>
			<point x="138" y="-400" type="line"/>
			<point x="246" y="-400" type="line"/>
			<point x="246" y="246" type="line"/>
			<point x="354" y="246" type="line"/>
		</contour>
	</outline>
</glyph>
<glyph name="upsngrightdblbxd" format="1">
	<unicode hex="2558"/>
	<advance width="600"/>
	<outline>
		<contour>
			<point x="246" y="138" type="line"/>
			<point x="654" y="138" type="line"/>
			<point x="654" y="246" type="line"/>
			<point x="354" y="246" type="line"/>
			<point x="354" y="354" type="line"/>
			<point x="654" y="354" type="line"/>
			<point x="654" y="462" type="line"/>
			<point x="354" y="462" type="line"/>
			<point x="354" y="1000" type="line"/>
			<point x="246" y="1000" type="line"/>
		</contour>
	</outline>
</glyph>
<glyph name="dbluprightbxd" format="1">
	<unicode hex="255A"/>
	<advance width="600"/>
	<outline>
		<contour>
			<point x="354" y="354" type="line"/>
			<point x="654" y="354" type="line"/>
			<point x="654" y="462" type="line"/>
			<point x="462" y="462" type="line"/>
			<point x="462" y="1000" type="line"/>
			<point x="354" y="1000" type="line"/>
		</contour>
		<contour>
			<point x="138" y="138" type="line"/>
			<point x="654" y="138" type="line"/>
			<point x="654" y="246" type="line"/>
			<point x="246" y="246" type="line"/>
			<point x="246" y="1000" type="line"/>
			<point x="138" y="1000" type="line"/>
		</contour>
	</outline>
</glyph>
<glyph name="upsngleftdblbxd" format="1">
	<unicode hex="255B"/>
	<advance width="600"/>
	<outline>
		<contour>
			<point x="354" y="138" type="line"/>
			<point x="354" y="1000" type="line"/>
			<point x="246" y="1000" type="line"/>
			<point x="246" y="462" type="line"/>
			<point x="-54" y="462" type="line"/>
			<point x="-54" y="354" type="line"/>
			<point x="246" y="354" type="line"/>
			<point x="246" y="246" type="line"/>
			<point x="-54" y="246" type="line"/>
			<point x="-54" y="138" type="line"/>
		</contour>
	</outline>
</glyph>
<glyph name="vertdblleftsngbxd" format="1">
	<unicode hex="2562"/>
	<advance width="600"/>
	<outline>
		<contour>
			<point x="354" y="-400" type="line"/>
			<point x="462" y="-400" type="line"/>
			<point x="462" y="1000" type="line"/>
			<point x="354" y="1000" type="line"/>
		</contour>
		<contour>
			<point x="246" y="-400" type="line"/>
			<point x="246" y="1000" type="line"/>
			<point x="138" y="1000" type="line"/>
			<point x="138" y="354" type="line"/>
			<point x="-54" y="354" type="line"/>
			<point x="-54" y="246" type="line"/>
			<point x="138" y="246" type="line"/>
			<point x="138" y="-400" type="line"/>
		</contour>
	</outline>
</glyph>
<glyph name="lightdiagupleftdnrightbxd" format="2">
	<unicode hex="2572"/>
	<advance width="600"/>
	<outline>
		<contour>
			<point x="60" y="900" type="line"/>
			<point x="0" y="900" type="line"/>
			<point x="0" y="779" type="line"/>
			<point x="540" y="-300" type="line"/>
			<point x="600" y="-300" type="line"/>
			<point x="600" y="-179" type="line"/>
		</contour>
	</outline>
</glyph>
<glyph name="lightleftheavyrightbxd" format="1">
	<unicode hex="257C"/>
	<advance width="600"/>
	<outline>
		<contour>
			<point x="654" y="192" type="line"/>
			<point x="654" y="408" type="line"/>
			<point x="246" y="408" type="line"/>
			<point x="246" y="354" type="line"/>
			<point x="-54" y="354" type="line"/>
			<point x="-54" y="246" type="line"/>
			<point x="246" y="246" type="line"/>
			<point x="246" y="192" type="line"/>
		</contour>
	</outline>
</glyph>
<glyph name="squareblack" format="1">
	<unicode hex="25A0"/>
	<advance width="600"/>
	<outline>
		<contour>
			<point x="82" y="111" type="line"/>
			<point x="518" y="111" type="line"/>
			<point x="518" y="549" type="line"/>
			<point x="82" y="549" type="line"/>
		</contour>
	</outline>
</glyph>
<glyph name="bulletsquare" format="2">
	<unicode hex="25AA"/>
	<advance width="600"/>
	<outline>
		<contour>
			<point x="158" y="121" type="line"/>
			<point x="442" y="121" type="line"/>
			<point x="442" y="403" type="line"/>
			<point x="158" y="403" type="line"/>
		</contour>
	</outline>
</glyph>
<glyph name="bulletsquarewhite" format="2">
	<unicode hex="25AB"/>
	<advance width="600"/>
	<outline>
		<contour>
			<point x="143" y="107" type="line"/>
			<point x="457" y="107" type="line"/>
			<point x="457" y="417" type="line"/>
			<point x="143" y="417" type="line"/>
		</contour>
		<contour>
			<point x="204" y="162" type="line"/>
			<point x="204" y="362" type="line"/>
			<point x="396" y="362" type="line"/>
			<point x="396" y="162" type="line"/>
		</contour>
	</outline>
</glyph>
<glyph name="triangleupblack" format="1">
	<unicode hex="25B2"/>
	<advance width="600"/>
	<outline>
		<contour>
			<point x="64" y="104" type="line"/>
			<point x="536" y="104" type="line"/>
			<point x="536" y="106" type="line"/>
			<point x="302" y="595" type="line"/>
			<point x="298" y="595" type="line"/>
			<point x="64" y="106" type="line"/>
		</contour>
	</outline>
</glyph>
<glyph name="triangleupwhite" format="2">
	<unicode hex="25B3"/>
	<advance width="600"/>
	<outline>
		<contour>
			<point x="64" y="104" type="line"/>
			<point x="536" y="104" type="line"/>
			<point x="536" y="106" type="line"/>
			<point x="302" y="595" type="line"/>
			<point x="298" y="595" type="line"/>
			<point x="64" y="106" type="line"/>
		</contour>
		<contour>
			<point x="157" y="158" type="line"/>
			<point x="300" y="464" type="line"/>
			<point x="443" y="158" type="line"/>
		</contour>
	</outline>
</glyph>
<glyph name="triangledownblack" format="1">
	<unicode hex="25BC"/>
	<advance width="600"/>
	<outline>
		<contour>
			<point x="298" y="84" type="line"/>
			<point x="302" y="84" type="line"/>
			<point x="536" y="571" type="line"/>
			<point x="536" y="575" type="line"/>
			<point x="64" y="575" type="line"/>
			<point x="64" y="571" type="line"/>
		</contour>
	</outline>
</glyph>
<glyph name="diamondblack" format="2">
	<unicode hex="25C6"/>
	<advance width="600"/>
	<outline>
		<contour>
			<point x="300" y="68" type="line"/>
			<point x="571" y="339" type="line"/>
			<point x="300" y="610" type="line"/>
			<point x="29" y="339" type="line"/>
		</contour>
	</outline>
</glyph>
<glyph name="fisheye" format="2">
	<unicode hex="25C9"/>
	<advance width="600"/>
	<outline>
		<contour>
			<point x="300" y="90" type="curve" smooth="yes"/>
			<point x="437" y="90"/>
			<point x="548" y="187"/>
			<point x="548" y="339" type="curve" smooth="yes"/>
			<point x="548" y="490"/>
			<point x="437" y="589"/>
			<point x="300" y="589" type="curve" smooth="yes"/>
			<point x="163" y="589"/>
			<point x="52" y="490"/>
			<point x="52" y="339" type="curve" smooth="yes"/>
			<point x="52" y="187"/>
			<point x="163" y="90"/>
		</contour>
		<contour>
			<point x="300" y="148" type="curve" smooth="yes"/>
			<point x="201" y="148"/>
			<point x="113" y="220"/>
			<point x="113" y="339" type="curve" smooth="yes"/>
			<point x="113" y="458"/>
			<point x="201" y="530"/>
			<point x="300" y="530" type="curve" smooth="yes"/>
			<point x="399" y="530"/>
			<point x="487" y="458"/>
			<point x="487" y="339" type="curve" smooth="yes"/>
			<point x="487" y="220"/>
			<point x="399" y="148"/>
		</contour>
		<contour>
			<point x="300" y="205" type="curve" smooth="yes"/>
			<point x="371" y="205"/>
			<point x="431" y="259"/>
			<point x="431" y="339" type="curve" smooth="yes"/>
			<point x="431" y="419"/>
			<point x="371" y="474"/>
			<point x="300" y="474" type="curve" smooth="yes"/>
			<point x="229" y="474"/>
			<point x="169" y="419"/>
			<point x="169" y="339" type="curve" smooth="yes"/>
			<point x="169" y="259"/>
			<point x="229" y="205"/>
		</contour>
	</outline>
</glyph>
<glyph name="lozenge" format="1">
	<unicode hex="25CA"/>
	<advance width="600"/>
	<outline>
		<contour>
			<point x="254" y="-10" type="line"/>
			<point x="346" y="-10" type="line"/>
			<point x="512" y="328" type="line"/>
			<point x="346" y="666" type="line"/>
			<point x="254" y="666" type="line"/>
			<point x="88" y="328" type="line"/>
		</contour>
		<contour>
			<point x="298" y="81" type="line"/>
			<point x="237" y="209" type="line"/>
			<point x="179" y="328" type="line"/>
			<point x="237" y="446" type="line"/>
			<point x="298" y="575" type="line"/>
			<point x="302" y="575" type="line"/>
			<point x="363" y="446" type="line"/>
			<point x="421" y="328" type="line"/>
			<point x="363" y="209" type="line"/>
			<point x="302" y="81" type="line"/>
		</contour>
	</outline>
</glyph>
<glyph name="circlewhite" format="1">
	<unicode hex="25CB"/>
	<advance width="600"/>
	<outline>
		<contour>
			<point x="300" y="86" type="curve" smooth="yes"/>
			<point x="444" y="86"/>
			<point x="547" y="190"/>
			<point x="547" y="330" type="curve" smooth="yes"/>
			<point x="547" y="470"/>
			<point x="444" y="574"/>
			<point x="300" y="574" type="curve" smooth="yes"/>
			<point x="156" y="574"/>
			<point x="53" y="470"/>
			<point x="53" y="330" type="curve" smooth="yes"/>
			<point x="53" y="190"/>
			<point x="156" y="86"/>
		</contour>
		<contour>
			<point x="300" y="145" type="curve" smooth="yes"/>
			<point x="197" y="145"/>
			<point x="122" y="224"/>
			<point x="122" y="330" type="curve" smooth="yes"/>
			<point x="122" y="436"/>
			<point x="197" y="515"/>
			<point x="300" y="515" type="curve" smooth="yes"/>
			<point x="403" y="515"/>
			<point x="478" y="436"/>
			<point x="478" y="330" type="curve" smooth="yes"/>
			<point x="478" y="224"/>
			<point x="403" y="145"/>
		</contour>
	</outline>
</glyph>
<glyph name="invbullet" format="1">
	<unicode hex="25D8"/>
	<advance width="600"/>
	<outline>
		<contour>
			<point x="148" y="112" type="line"/>
			<point x="452" y="112" type="line"/>
			<point x="452" y="412" type="line"/>
			<point x="148" y="412" type="line"/>
		</contour>
		<contour>
			<point x="300" y="124" type="curve" smooth="yes"/>
			<point x="219" y="124"/>
			<point x="160" y="183"/>
			<point x="160" y="262" type="curve" smooth="yes"/>
			<point x="160" y="341"/>
			<point x="219" y="400"/>
			<point x="300" y="400" type="curve" smooth="yes"/>
			<point x="381" y="400"/>
			<point x="440" y="341"/>
			<point x="440" y="262" type="curve" smooth="yes"/>
			<point x="440" y="183"/>
			<point x="381" y="124"/>
		</contour>
	</outline>
</glyph>
<glyph name="invcircle" format="2">
	<unicode hex="25D9"/>
	<advance width="600"/>
	<outline>
		<contour>
			<point x="58" y="91" type="line"/>
			<point x="542" y="91" type="line"/>
			<point x="542" y="569" type="line"/>
			<point x="58" y="569" type="line"/>
		</contour>
		<contour>
			<point x="300" y="95" type="curve" smooth="yes"/>
			<point x="161" y="95"/>
			<point x="62" y="195"/>
			<point x="62" y="330" type="curve" smooth="yes"/>
			<point x="62" y="465"/>
			<point x="161" y="565"/>
			<point x="300" y="565" type="curve" smooth="yes"/>
			<point x="439" y="565"/>
			<point x="538" y="465"/>
			<point x="538" y="330" type="curve" smooth="yes"/>
			<point x="538" y="195"/>
			<point x="439" y="95"/>
		</contour>
		<contour>
			<point x="300" y="154" type="curve" smooth="yes"/>
			<point x="398" y="154"/>
			<point x="468" y="228"/>
			<point x="468" y="330" type="curve" smooth="yes"/>
			<point x="468" y="432"/>
			<point x="398" y="506"/>
			<point x="300" y="506" type="curve" smooth="yes"/>
			<point x="202" y="506"/>
			<point x="132" y="432"/>
			<point x="132" y="330" type="curve" smooth="yes"/>
			<point x="132" y="228"/>
			<point x="202" y="154"/>
		</contour>
	</outline>
</glyph>
